<svg width="529" height="487" viewBox="0 0 529 487" fill="none" xmlns="http://www.w3.org/2000/svg">
<g opacity="0.5">
<path d="M288.88 235.2L275.79 390.86C275.79 390.86 274.42 400.3 281.44 400.31C292.98 400.34 338.88 400.31 338.88 400.31C338.88 400.31 330.19 398.35 330.3 393.93C330.42 388.72 345.6 233.72 345.6 233.72L288.88 235.2Z" fill="#759BE0"/>
<path d="M342.6 397.49C340.33 397.5 296.49 397.63 285.25 397.49C280.35 397.43 279.49 393.14 279.45 390.36C279.43 389.03 279.6 388.04 279.6 388.04L279.94 383.99L280.81 373.68L281.58 364.57L282.57 352.86L283.4 342.98L292.7 232.37L349.42 230.9C349.42 230.9 343.03 295.77 338.51 342.98C338.01 348.24 337.52 353.29 337.08 357.99C336.94 359.49 336.8 360.96 336.66 362.39C336.24 366.86 335.86 370.96 335.52 374.58C335.34 376.49 335.18 378.26 335.04 379.89C334.46 386.26 334.12 390.32 334.12 391.1C334.12 391.55 334.16 391.97 334.23 392.36C335.16 397.33 341.75 397.49 342.6 397.49Z" fill="#AEC3FF"/>
<path d="M151.14 150.49L183.03 278.58L187.4 296.13L202.25 355.79H478.19L423.44 150.49H151.14Z" fill="#AEC3FF"/>
<path d="M151.14 150.49L146.72 151.96L196.38 360.25L202.25 355.79L151.14 150.49Z" fill="#759BE0"/>
<path d="M196.38 360.25H470.61L478.18 355.79H202.25L196.38 360.25Z" fill="#759BE0"/>
<path d="M292.674 400.379H352.054V397.559H292.674V400.379Z" fill="#AEC3FF"/>
<path opacity="0.7" d="M336.96 360.24L336.65 362.4L280.81 373.68L281.58 364.57L281.95 360.24H336.96Z" fill="#759BE0"/>
<path d="M342.6 397.49C340.33 397.5 296.49 397.63 285.25 397.49C280.35 397.43 279.49 393.14 279.45 390.36L335.03 379.9C334.45 386.27 334.11 390.33 334.11 391.11C334.11 391.56 334.15 391.98 334.22 392.37C335.16 397.33 341.75 397.49 342.6 397.49Z" fill="#94B0ED"/>
<path d="M323.46 314.23L202.25 355.79L187.4 296.13L323.46 314.23Z" fill="#94B0ED"/>
<path d="M151.14 150.49H423.44L467.29 315.49H192.23L151.14 150.49Z" fill="#D2E0FF"/>
<path d="M467.44 315.49H465.16L446.49 244.26L422.5 152.7H154.53L195.12 315.49L192.22 315.51L151.14 150.49L424.39 150.26L424.62 151.17L448.61 243.22L467.44 315.49Z" fill="#94B0ED"/>
<path d="M467.85 317.07L465.65 317.37L446.49 244.26L448.61 243.22L467.85 317.07Z" fill="#AEC3FF"/>
</g>
<path d="M82.8 205.65C82.21 203.86 90.92 207.99 101.31 204.51C110.26 201.51 102.19 195.67 104.47 188.25C106.09 182.97 105.58 168.79 91.75 168.23C91.75 168.23 88.42 166.22 83.62 167.81C72.69 171.44 49.96 208.24 82.8 205.65Z" fill="#163560"/>
<path d="M97.96 236.77C97.96 236.77 99.27 239.37 101.66 242.36C104.53 245.96 119.62 237.42 118.32 236.77C117.02 236.12 109.44 214.29 107.64 211.54C105.83 208.8 99.68 207.37 99.68 207.37L97.96 236.77Z" fill="#F78248"/>
<path d="M47.07 384.04C47.07 384.04 42.91 387.84 43.72 390.54C44.53 393.24 48.29 395.04 48.8 398.34C49.31 401.64 51.34 403.44 53.17 403.44C55 403.44 61.88 403.44 61.88 403.44C61.88 403.44 63.23 401.12 59.98 400.42C56.73 399.72 55.51 395.84 55.71 392.24C55.91 388.64 55.41 383.84 55.41 383.84L48.51 382.24L47.07 384.04Z" fill="#1F447F"/>
<path d="M82.3 385.65C82.3 385.65 80.8 401.74 82.63 402.64L106.02 402.59C106.02 402.59 106.02 399.89 102.26 399.29C98.5 398.69 91.9 396.49 90.79 391.59C89.67 386.7 82.3 385.65 82.3 385.65Z" fill="#1C3154"/>
<path d="M64.31 225.92C64.31 225.92 63.96 230.83 64.31 236.73C64.54 240.64 68.5 245.87 69.06 247.17C70.47 250.42 72.05 250.95 72.05 250.95L84.33 253.96L88.65 255.02L102.27 250.95C102.27 250.95 108.47 233.64 105.98 223.89C103.49 214.14 99.68 207.38 99.68 207.38C99.68 207.38 90.43 205.3 74.1 206.46L64.31 225.92Z" fill="#F78248"/>
<path d="M63.14 236.87C63.37 240.78 68.5 245.88 69.06 247.17C70.47 250.42 72.05 250.95 72.05 250.95L84.33 253.96L86.55 247.61C86.55 247.61 68.61 242.9 71.49 226.29L63.14 236.87Z" fill="#DD6C3A"/>
<path d="M101.4 253.57C101.4 253.57 108.14 274.56 108.58 281.71C109.01 288.86 95.69 383.23 95.15 386.52C94.64 389.62 90.79 391.6 90.79 391.6C90.79 391.6 89.02 392.65 86.49 391.93C82.98 390.94 81.87 389.75 81.87 389.75C81.87 389.75 76.62 322.44 79.87 298.4C83.12 274.36 83.16 253.57 83.16 253.57H101.4Z" fill="#233862"/>
<path d="M72.83 252.95C72.83 252.95 62.54 266.75 61.58 276.08C60.62 285.41 60.08 318.18 58.03 327.28C55.99 336.38 48.48 353.88 48.48 382.25C48.48 382.25 49.26 383.88 51.67 384.74C52.44 385.02 53.47 385.29 54.47 385.52C56.46 385.98 58.5 385 59.4 383.18C64.47 372.96 80.64 340.01 81.47 333.17C82.06 328.33 87.16 296.29 98.29 277.49C100.96 272.98 96.65 255.03 96.65 255.03L72.83 252.95Z" fill="#2A4E96"/>
<path d="M102.48 250.33C102.48 250.33 99.77 252.47 94.39 252.58C87.97 252.71 72.05 250.94 72.05 250.94C72.05 250.94 71.34 252.92 71.37 255C71.37 255 90.81 259.9 102.07 255.72C102.08 255.72 103.53 252.99 102.48 250.33Z" fill="#233862"/>
<path d="M93 254.8C93 252.97 94.31 251.48 95.93 251.48C97.55 251.48 98.86 252.97 98.86 254.8C98.86 256.63 97.54 258.12 95.93 258.12C94.32 258.12 93 256.63 93 254.8ZM93.97 254.8C93.97 256.09 94.85 257.15 95.93 257.15C97.01 257.15 97.89 256.1 97.89 254.8C97.89 253.51 97.01 252.45 95.93 252.45C94.85 252.45 93.97 253.51 93.97 254.8Z" fill="white"/>
<path d="M81.89 264.15L111.11 264.43L125.49 230.64L96.27 230.36L81.89 264.15Z" fill="#6980E2"/>
<path d="M85.71 248.88L87.85 246.25C87.85 246.25 89.3 244.96 90.35 244.74C91.4 244.52 93.62 243.24 93.84 243.6C94.06 243.96 92.13 246.54 92.13 246.54L92.03 246.55C94.24 248.21 99.81 246.74 100.49 247.42C101.32 248.24 99.34 250.01 98.28 251.01C97.22 252.01 94.18 253.67 91.81 252.93C90.08 252.39 87.35 251.84 87.35 251.84L85.71 248.88Z" fill="#FFB27D"/>
<path d="M123.29 236.58C123.29 236.58 121.45 234.49 120.29 235.49C119.12 236.49 120.6 241.42 121.71 240.92C122.81 240.42 123.93 237.19 123.29 236.58Z" fill="#FFB27D"/>
<path d="M74.1 206.45C74.1 206.45 65.74 207.37 59.73 218.28C55 226.88 46.9 242.74 49.96 247.21C51.3 249.18 64.15 256.17 88.93 252.17C88.93 252.17 88.54 249.04 86.54 247.59C86.54 247.59 65.68 240.89 65.72 239.56C65.79 237.04 68.54 234.86 80.19 223.21C83.36 220.05 74.1 206.45 74.1 206.45Z" fill="#F78248"/>
<path d="M80.54 206.9C80.25 206.51 80.62 205.29 81.08 203C81.5 200.93 82.2 197.72 82.19 194.11L82.81 194.21L93.18 195.95C93.18 195.95 92.94 198.72 92.94 201.33C92.94 201.35 92.94 201.37 92.94 201.4C92.93 203.67 93.55 207.1 92.79 207.54C88.85 209.85 81.65 208.38 80.54 206.9Z" fill="#FFB27D"/>
<path d="M93.17 195.95C93.17 195.95 92.96 199.86 92.96 202.47C87.16 202.33 84.06 196.7 82.81 194.21L93.17 195.95Z" fill="#E8945B"/>
<path d="M93.8 200.62C93.8 200.62 80.21 198.68 81.55 190.24C82.89 181.8 82.03 175.86 90.76 176.74C99.49 177.62 100.67 181.11 100.91 184.03C101.14 186.95 97.37 200.9 93.8 200.62Z" fill="#FFB27D"/>
<path d="M96.96 177.51C96.96 177.51 91.67 186.82 85.74 187.38C79.81 187.94 77.58 186.02 77.58 186.02C77.58 186.02 82.5 183.25 84.37 177.33C84.38 177.33 94.92 172.35 96.96 177.51Z" fill="#163560"/>
<path d="M95.92 178.17C95.92 178.17 98.51 179.64 99.32 181.82C100.11 183.96 100.64 186.71 99.92 189.86C99.92 189.86 103.79 183.57 101.25 179.26C98.56 174.7 95.92 178.17 95.92 178.17Z" fill="#163560"/>
<path d="M3.16 322.69L8.79 322.06C9.26 322.01 9.72 322.23 9.97 322.63C10.3 323.14 10.64 323.63 11.02 324.12C11.71 325.02 12.45 325.86 13.25 326.61C13.62 326.96 13.75 327.5 13.56 327.97L11.4 333.48C11.16 334.07 11.42 334.74 12 335.02L16.85 337.42C17.4 337.69 18.06 337.5 18.39 336.99L21.32 332.4C21.6 331.95 22.14 331.74 22.67 331.88C24.9 332.47 27.22 332.7 29.54 332.56C30.1 332.53 30.62 332.89 30.79 333.42L31.78 336.58C31.97 337.18 32.59 337.55 33.21 337.43L38.48 336.36C38.59 336.34 38.69 336.31 38.78 336.26C39.24 336.04 39.52 335.55 39.45 335.03L38.98 330.82L38.86 329.8C39.74 329.31 40.59 328.74 41.41 328.11C42.51 327.26 43.52 326.33 44.41 325.34C44.75 324.96 45.28 324.82 45.76 325.02L50.2 326.76C50.81 326.99 51.5 326.73 51.78 326.15L53.62 322.44L54.14 321.38C54.43 320.8 54.23 320.09 53.69 319.75L49.85 317.3C49.4 317.02 49.18 316.49 49.31 315.99C49.67 314.48 49.87 312.93 49.89 311.38C49.9 311.25 49.9 311.12 49.9 310.99C49.9 310.95 49.9 310.9 49.91 310.86C49.96 310.36 50.3 309.95 50.78 309.8L55.91 308.17C55.97 308.16 56.03 308.13 56.08 308.1C56.58 307.86 56.86 307.3 56.76 306.74L55.71 301.49C55.58 300.86 54.99 300.43 54.35 300.5L48.48 301.16C47.98 301.22 47.51 300.97 47.27 300.52C46.74 299.56 46.13 298.62 45.43 297.71C45.06 297.23 44.68 296.77 44.28 296.33C43.96 295.97 43.86 295.46 44.04 295.01L46.11 289.71C46.34 289.13 46.09 288.46 45.52 288.18L40.72 285.81C40.14 285.52 39.44 285.71 39.08 286.26L36.76 289.89C36.45 290.38 35.85 290.59 35.31 290.4C33.18 289.66 30.94 289.26 28.69 289.21C28.16 289.21 27.68 288.85 27.52 288.34L26.06 283.71C25.86 283.09 25.23 282.72 24.59 282.84L19.36 283.89C18.73 284.01 18.3 284.61 18.38 285.23L18.4 285.48L18.95 290.37C19.01 290.89 18.74 291.39 18.27 291.63C17.15 292.21 16.06 292.9 15.02 293.69C14.47 294.12 13.94 294.56 13.44 295.03C13.09 295.36 12.59 295.46 12.15 295.28L7.64 293.51C7.02 293.27 6.32 293.54 6.03 294.13L3.67 298.91C3.6 299.05 3.57 299.19 3.55 299.33C3.5 299.79 3.71 300.26 4.12 300.52L7.19 302.47C7.56 302.71 7.78 303.14 7.76 303.57C7.75 303.68 7.73 303.8 7.7 303.91C6.77 306.65 6.39 309.55 6.59 312.44C6.63 312.93 6.36 313.39 5.93 313.61C5.87 313.64 5.8 313.67 5.73 313.69L1.57 315C0.97 315.19 0.6 315.8 0.73 316.43L0.75 316.55L1.77 321.67C1.91 322.33 2.51 322.77 3.16 322.69ZM39.17 306.71C39.49 307.51 39.75 308.38 39.93 309.31C40.27 311.08 39.92 313.87 39.12 315.49C39.04 315.66 38.95 315.83 38.86 316C33.35 326.22 18.92 324.19 16.54 312.65C16.23 311.14 16.42 308.95 16.96 307.26C17.09 306.87 17.23 306.51 17.39 306.2C18.13 304.73 19.04 303.5 20.08 302.5C26.01 296.81 35.92 298.68 39.17 306.71Z" fill="#D5DFFC"/>
<path d="M109.83 81.0999L121.23 79.8199C122.18 79.7199 123.1 80.1699 123.62 80.9699C124.28 81.9899 124.99 82.9999 125.74 83.9799C127.14 85.8099 128.64 87.4999 130.26 89.0199C131.01 89.7399 131.26 90.8199 130.88 91.7799L126.51 102.95C126.03 104.14 126.56 105.5 127.72 106.07L137.54 110.94C138.66 111.49 139.99 111.11 140.66 110.07L146.6 100.76C147.16 99.8399 148.27 99.4199 149.34 99.6999C153.85 100.89 158.55 101.36 163.25 101.09C164.38 101.02 165.44 101.76 165.78 102.84L167.79 109.25C168.18 110.46 169.42 111.22 170.69 110.97L181.36 108.81C181.58 108.77 181.79 108.7 181.98 108.6C182.9 108.16 183.47 107.15 183.34 106.1L182.39 97.5799L182.15 95.4999C183.92 94.4999 185.66 93.3599 187.32 92.0799C189.56 90.3699 191.59 88.4699 193.39 86.4599C194.08 85.6899 195.16 85.4199 196.12 85.7999L205.11 89.3299C206.34 89.8099 207.73 89.2699 208.31 88.0899L212.03 80.5799L213.09 78.4299C213.67 77.2599 213.28 75.8199 212.18 75.1199L204.41 70.1499C203.5 69.5799 203.06 68.5099 203.31 67.4899C204.04 64.4199 204.44 61.2899 204.5 58.1499C204.53 57.8799 204.52 57.6299 204.52 57.3599C204.51 57.2699 204.53 57.1799 204.54 57.0899C204.64 56.0799 205.34 55.2499 206.3 54.9499L216.7 51.6599C216.82 51.6299 216.93 51.5699 217.04 51.5299C218.05 51.0399 218.63 49.8999 218.41 48.7699L216.28 38.1299C216.02 36.8499 214.83 35.9699 213.52 36.1099L201.63 37.4599C200.62 37.5899 199.65 37.0699 199.17 36.1699C198.1 34.2199 196.86 32.3099 195.45 30.4699C194.7 29.4999 193.92 28.5599 193.11 27.6699C192.46 26.9399 192.26 25.9099 192.62 24.9999L196.82 14.2699C197.29 13.0899 196.77 11.7399 195.62 11.1699L185.89 6.36991C184.72 5.78991 183.29 6.16991 182.57 7.28991L177.87 14.6499C177.24 15.6399 176.03 16.0599 174.93 15.6899C170.61 14.1899 166.08 13.3899 161.51 13.2799C160.43 13.2699 159.47 12.5599 159.14 11.5099L156.18 2.13991C155.78 0.87991 154.5 0.12991 153.21 0.37991L142.61 2.49991C141.34 2.74991 140.47 3.94991 140.63 5.21991L140.68 5.71991L141.79 15.6199C141.91 16.6799 141.37 17.6799 140.42 18.1699L140.41 18.1799C138.14 19.3499 135.94 20.7399 133.83 22.3599C132.71 23.2199 131.65 24.1299 130.62 25.0699C129.92 25.7399 128.9 25.9299 128 25.5799L118.87 21.9899C117.62 21.4999 116.2 22.0499 115.62 23.2399L110.84 32.9199C110.71 33.1999 110.63 33.4899 110.59 33.7699C110.49 34.6999 110.92 35.6399 111.74 36.1699L117.96 40.1199C118.72 40.6099 119.16 41.4699 119.12 42.3499C119.11 42.5799 119.07 42.8199 118.99 43.0499C117.1 48.5999 116.34 54.4699 116.75 60.3299C116.83 61.3199 116.28 62.2499 115.42 62.7099C115.3 62.7699 115.16 62.8299 115.02 62.8699L106.6 65.5299C105.38 65.9099 104.64 67.1599 104.89 68.4199L104.94 68.6699L107.01 79.0399C107.3 80.3799 108.5 81.2499 109.83 81.0999ZM182.78 48.7199C183.43 50.3499 183.96 52.1099 184.33 53.9899C185.03 57.5699 184.3 63.2299 182.68 66.5099C182.51 66.8599 182.33 67.1999 182.15 67.5499C170.99 88.2599 141.75 84.1399 136.93 60.7699C136.31 57.7099 136.7 53.2699 137.79 49.8599C138.05 49.0699 138.34 48.3299 138.66 47.7099C140.15 44.7399 142 42.2499 144.1 40.2199C156.11 28.6699 176.18 32.4499 182.78 48.7199Z" fill="#D5DFFC"/>
<path d="M420.81 174.1V326.52C420.81 332.09 416.54 336.61 411.27 336.61H141.63C136.36 336.61 132.09 332.09 132.09 326.52V174.1C132.09 168.53 136.36 164.01 141.63 164.01H411.28C416.54 164.01 420.81 168.53 420.81 174.1Z" fill="#8C9DF4"/>
<path d="M420.81 173.55V180.54H132.09V173.55C132.09 168.28 136.36 164.01 141.63 164.01H411.28C416.54 164.01 420.81 168.28 420.81 173.55Z" fill="#6980E2"/>
<path d="M245.51 256.54C250.02 262.31 244.62 271.19 247.73 277.8C248.32 279.06 249.21 280.18 249.71 281.49C250.53 283.64 250.19 286.06 250.7 288.3C251.21 290.55 253.24 292.86 255.5 292.25C257.45 291.73 258.24 289.38 258.19 287.39C258.14 285.4 257.57 283.36 258.16 281.45C258.87 279.13 261.24 277.53 263.69 277.31C266.14 277.09 268.59 278.1 270.47 279.65C272.54 281.35 274.8 283.91 277.34 283.01C279.77 282.14 279.97 278.69 278.78 276.43C277.59 274.17 275.52 272.4 274.63 270.01C273.52 267 274.54 263.58 276.35 260.92C278.15 258.26 280.67 256.16 282.94 253.87C283.72 253.09 284.5 252.2 284.64 251.11C284.77 250.02 283.91 248.77 282.8 248.91C282.06 249.01 281.54 249.65 280.97 250.13C278.49 252.19 274.38 250.98 272.49 248.38C270.6 245.78 270.45 242.34 270.77 239.17C274.65 240.08 278.16 234.73 281.91 236.07C284.26 236.91 284.9 239.79 285.53 242.17C286.64 246.4 288.76 250.39 289.31 254.73C290.36 263 285.72 272.09 289.86 279.37C291.41 282.1 294.02 284.11 296.78 285.66C303.36 289.37 311.74 290.81 318.54 287.52C326.38 283.72 333.83 274.82 333.89 274.29C334.66 267.64 333.66 263.6 334.86 261.54C339.38 253.79 352.83 259.52 359.32 259.9C377.23 260.97 376.2 249.4 376.14 244.05C376 231.12 373.49 228.75 360.45 227.14C353.62 226.3 346.59 227.67 339.87 226.21C333.99 224.93 328.82 221.57 323.2 219.44C312.87 215.52 300.92 215.96 290.91 220.63C288.75 221.64 286.63 222.85 284.28 223.24C281.92 223.63 279.19 222.97 277.93 220.98C276.43 218.6 277.58 215.47 279.19 213.17C280.8 210.87 282.91 208.73 283.44 205.99C284.18 202.18 281.43 198.29 277.8 196.76C274.17 195.23 269.97 195.67 266.24 196.93C259.42 199.24 253.81 204.07 248.76 209.12C242.77 215.11 237.04 222.16 236.2 230.52C235.87 233.81 236.33 237.22 235.17 240.39C234.31 242.76 232.19 244.54 233.02 247.18C234.58 252.22 242.46 252.64 245.51 256.54Z" fill="#C0D4FF"/>
<path d="M350.53 215.83C351.71 216.75 352.9 217.67 354.08 218.6C354.9 219.24 355.74 219.88 356.63 220.05C358.51 220.39 360.23 218.13 360.14 215.44C360.04 212.75 358.14 210.23 356.28 210.31C355.13 210.36 353.97 211.23 352.88 210.47C350.62 208.88 349.09 201.18 347.11 206.38C345.64 210.24 348.15 214.04 350.53 215.83Z" fill="#C0D4FF"/>
<path d="M210.84 226.7C213.32 228.28 215.8 229.85 218.28 231.43C219.66 232.3 221.23 233.71 220.66 235.22C219.94 237.1 217.16 236.53 215.14 236.79C212.36 237.16 210.28 240.17 210.94 242.85C211.43 244.84 213.06 247.17 211.58 248.6C210.23 249.89 207.87 248.68 206.14 249.41C205.12 249.84 204.47 250.9 203.44 251.33C202.56 251.7 201.51 251.55 200.68 252.01C199.65 252.58 199.28 253.87 198.42 254.67C195.8 257.09 191.1 253.58 188.04 255.43C185.71 256.84 186.1 260.5 187.92 262.52C189.74 264.53 192.45 265.5 194.76 266.94C197.08 268.38 199.21 270.83 198.71 273.48C198.19 276.22 194.98 278.61 196.13 281.16C196.48 281.95 197.2 282.5 197.76 283.16C199.21 284.86 199.6 287.32 198.94 289.44C198.27 291.56 196.62 293.32 194.6 294.32C193.32 294.95 191.91 295.3 190.62 295.93C187.14 297.64 185.06 301.18 183.21 304.54C180.92 308.72 178.66 313.04 177.9 317.73C177.65 319.28 177.41 321.11 176.01 321.88C174.37 322.78 172.27 321.46 171.47 319.78C170.68 318.11 170.71 316.18 170.26 314.39C169.41 311.01 166.91 308.22 166.03 304.85C163.93 296.79 171.63 288.79 170.16 280.6C169.85 278.89 169.15 277.27 168.89 275.55C168.36 272.15 169.68 268.52 172.29 266.22C175.1 263.75 179.43 262.49 180.56 258.95C181.8 255.05 178.19 251.02 178.82 246.98C179.02 245.69 179.65 244.48 179.84 243.19C180.05 241.7 179.65 240.19 179.22 238.75C178.01 234.68 176.55 230.14 178.58 226.4C179.8 224.14 182.11 222.65 184.45 221.53C189.9 218.92 195.97 217.91 201.99 218.4C204.51 218.6 206.85 217.89 207.19 220.7C207.54 223.71 208 224.9 210.84 226.7Z" fill="#C0D4FF"/>
<path d="M228.4 205.75C229.73 204.82 231.33 204.34 232.76 203.55C234.19 202.76 235.52 201.5 235.65 199.89C235.75 198.64 235.07 197.42 234.12 196.58C233.18 195.74 231.99 195.21 230.81 194.73C228.49 193.79 226.12 193 223.69 192.37C222.35 192.02 220.92 191.72 219.6 192.16C218.44 192.55 217.54 193.46 216.73 194.37C215.6 195.63 214.52 197 214.06 198.61C213.4 200.93 214.1 203.4 215.06 205.62C215.85 207.44 220.74 217.15 223.25 216.07C224.24 215.64 224.6 211.44 225 210.43C225.73 208.61 226.75 206.9 228.4 205.75Z" fill="#C0D4FF"/>
<path d="M371.25 295C373.32 293.55 375.81 292.8 378.03 291.57C380.25 290.34 382.32 288.37 382.52 285.88C382.67 283.93 381.62 282.04 380.15 280.73C378.68 279.42 376.84 278.59 375 277.85C371.4 276.39 367.7 275.17 363.93 274.18C361.85 273.64 359.61 273.17 357.57 273.85C355.76 274.45 354.37 275.87 353.11 277.29C351.36 279.25 349.67 281.38 348.95 283.89C347.92 287.49 349.02 291.35 350.5 294.79C351.73 297.63 359.33 312.73 363.24 311.04C364.77 310.38 365.33 303.84 365.96 302.27C367.09 299.45 368.68 296.79 371.25 295Z" fill="#C0D4FF"/>
<path d="M143.39 173.18C143.39 172.13 144.24 171.28 145.29 171.28C146.34 171.28 147.19 172.13 147.19 173.18C147.19 174.23 146.34 175.08 145.29 175.08C144.24 175.07 143.39 174.22 143.39 173.18Z" fill="#EBF3FA"/>
<path d="M155.47 175.08C156.519 175.08 157.37 174.229 157.37 173.18C157.37 172.131 156.519 171.28 155.47 171.28C154.421 171.28 153.57 172.131 153.57 173.18C153.57 174.229 154.421 175.08 155.47 175.08Z" fill="#EBF3FA"/>
<path d="M165.66 175.08C166.709 175.08 167.56 174.229 167.56 173.18C167.56 172.131 166.709 171.28 165.66 171.28C164.611 171.28 163.76 172.131 163.76 173.18C163.76 174.229 164.611 175.08 165.66 175.08Z" fill="#EBF3FA"/>
<path d="M229.55 220.66C229.55 227.19 240.55 237.63 240.55 237.63C240.55 237.63 251.55 227.19 251.55 220.66C251.55 214.13 246.63 208.84 240.55 208.84C234.48 208.83 229.55 214.13 229.55 220.66ZM234.07 219.96C234.07 216.39 236.98 213.48 240.55 213.48C244.14 213.48 247.03 216.39 247.03 219.96C247.03 223.55 244.14 226.44 240.55 226.44C236.98 226.44 234.07 223.55 234.07 219.96Z" fill="#F78248"/>
<path d="M234.07 219.96C234.07 216.38 236.97 213.48 240.55 213.48C244.13 213.48 247.03 216.38 247.03 219.96C247.03 223.54 244.13 226.44 240.55 226.44C236.97 226.44 234.07 223.54 234.07 219.96Z" fill="#EBF3FA"/>
<path d="M174.31 281.8C174.31 286.45 182.14 293.89 182.14 293.89C182.14 293.89 189.98 286.45 189.98 281.8C189.98 277.15 186.47 273.37 182.14 273.37C177.81 273.37 174.31 277.15 174.31 281.8ZM177.53 281.31C177.53 278.77 179.6 276.69 182.15 276.69C184.71 276.69 186.77 278.76 186.77 281.31C186.77 283.87 184.71 285.93 182.15 285.93C179.6 285.92 177.53 283.86 177.53 281.31Z" fill="#F78248"/>
<path d="M177.53 281.31C177.53 278.76 179.6 276.69 182.15 276.69C184.7 276.69 186.77 278.76 186.77 281.31C186.77 283.86 184.7 285.93 182.15 285.93C179.59 285.92 177.53 283.85 177.53 281.31Z" fill="#EBF3FA"/>
<path d="M141.29 260.49H140.6C123.43 260.49 109.38 246.44 109.38 229.27V226.99C109.38 209.82 123.43 195.77 140.6 195.77H141.29C158.46 195.77 172.51 209.82 172.51 226.99V229.27C172.51 246.44 158.46 260.49 141.29 260.49Z" fill="#D5DFFC"/>
<path d="M160.01 226.03C160.01 236.56 151.48 245.09 140.95 245.09C130.42 245.09 121.89 236.56 121.89 226.03C121.89 215.5 130.42 206.97 140.95 206.97C142.15 206.97 143.32 207.08 144.46 207.29C142.08 215.96 138.92 227.45 138.71 228.16C139.1 227.54 150.7 222.34 158.61 218.84C159.51 221.06 160.01 223.49 160.01 226.03Z" fill="#2A4E96"/>
<path d="M159.66 216.76C152.67 219.84 141.09 225 140.72 225.59C140.92 224.91 144.12 213.26 146.27 205.46C152.21 207.09 157.1 211.28 159.66 216.76Z" fill="#F78248"/>
<path d="M232.87 173.18H226.54C205.75 173.18 188.74 156.17 188.74 135.38C188.74 114.59 205.75 97.5798 226.54 97.5798H232.87C253.66 97.5798 270.67 114.59 270.67 135.38C270.67 156.17 253.66 173.18 232.87 173.18Z" fill="#D5DFFC"/>
<path d="M261.29 160.68H197.89V140.5H261.29V160.68ZM198.66 159.9H260.5V141.28H198.66V159.9Z" fill="#8C9DF4"/>
<path d="M227 145.92H202.48V147.52H227V145.92Z" fill="#8C9DF4"/>
<path d="M246.99 145.92H229.59V147.52H246.99V145.92Z" fill="#8C9DF4"/>
<path d="M216.01 150.49H202.48V152.09H216.01V150.49Z" fill="#8C9DF4"/>
<path d="M235.7 150.49H218.3V152.09H235.7V150.49Z" fill="#8C9DF4"/>
<path d="M254.91 150.49H237.51V152.09H254.91V150.49Z" fill="#8C9DF4"/>
<path d="M204.88 125.15H198.27V134.34H204.88V125.15Z" fill="#2A4E96"/>
<path d="M216.21 119.06H209.6V134.35H216.21V119.06Z" fill="#2A4E96"/>
<path d="M227.54 114.06H220.93V134.34H227.54V114.06Z" fill="#F78248"/>
<path d="M238.86 118.12H232.25V134.35H238.86V118.12Z" fill="#2A4E96"/>
<path d="M250.19 109.48H243.58V134.34H250.19V109.48Z" fill="#2A4E96"/>
<path d="M261.52 105.04H254.91V134.34H261.52V105.04Z" fill="#F78248"/>
<path d="M453.84 266.05H412.62C396.29 266.05 382.92 252.69 382.92 236.35C382.92 220.02 396.28 206.65 412.62 206.65H453.84C470.17 206.65 483.54 220.01 483.54 236.35C483.54 252.68 470.17 266.05 453.84 266.05Z" fill="#2A4E96"/>
<path d="M428.49 255.55H391.29V243.71H428.49V255.55ZM391.75 255.09H428.04V244.17H391.75V255.09Z" fill="#C0D4FF"/>
<path d="M408.38 246.89H393.99V247.83H408.38V246.89Z" fill="#C0D4FF"/>
<path d="M420.1 246.89H409.89V247.83H420.1V246.89Z" fill="#C0D4FF"/>
<path d="M401.93 249.57H393.99V250.51H401.93V249.57Z" fill="#C0D4FF"/>
<path d="M413.48 249.57H403.27V250.51H413.48V249.57Z" fill="#C0D4FF"/>
<path d="M424.75 249.57H414.54V250.51H424.75V249.57Z" fill="#C0D4FF"/>
<path d="M472.85 255.55H435.65V243.71H472.85V255.55ZM436.11 255.09H472.4V244.17H436.11V255.09Z" fill="#C0D4FF"/>
<path d="M452.74 246.89H438.35V247.83H452.74V246.89Z" fill="#C0D4FF"/>
<path d="M464.46 246.89H454.25V247.83H464.46V246.89Z" fill="#C0D4FF"/>
<path d="M446.29 249.57H438.35V250.51H446.29V249.57Z" fill="#C0D4FF"/>
<path d="M457.84 249.57H447.63V250.51H457.84V249.57Z" fill="#C0D4FF"/>
<path d="M469.11 249.57H458.9V250.51H469.11V249.57Z" fill="#C0D4FF"/>
<path d="M475.17 239.02H391.3V232.22H475.17V239.02ZM392.09 238.22H474.37V233.01H392.09V238.22Z" fill="#C0D4FF"/>
<path d="M456.79 232.61H391.69V238.62H456.79V232.61Z" fill="#C0D4FF"/>
<path d="M475.17 225.49H391.3V218.69H475.17V225.49ZM392.09 224.7H474.37V219.49H392.09V224.7Z" fill="#C0D4FF"/>
<path d="M434.9 218.69H391.29V225.49H434.9V218.69Z" fill="#F99746"/>
<path d="M364.62 208.01C363.94 208.79 363.85 209.66 364.19 210.6C364.19 210.6 364.19 210.61 364.2 210.61C364.82 212.33 366.89 214.26 369.28 216.18C369.59 216.43 369.86 216.65 370.1 216.86C370.16 216.91 370.22 216.97 370.28 217.02C370.33 217.06 370.37 217.11 370.42 217.15C372.65 219.21 371.81 219.68 375.82 223.86C380.39 228.62 383.54 228.71 384.44 228.27C385.2 227.9 383.66 225.38 381.95 222.54C381.87 222.4 381.79 222.26 381.7 222.13C381.47 221.75 381.25 221.37 381.02 220.99C379.02 217.58 379.53 215.97 380.01 210.89C380.4 206.76 386.43 187.82 386.43 187.82L377.66 186.31C377.66 186.31 375.02 201.39 372.11 203.71C370.55 204.95 368.81 204.96 367.32 205.88C367.21 205.94 367.11 206.01 367.01 206.08C366.17 206.64 365.3 207.23 364.62 208.01Z" fill="#FFB27D"/>
<path d="M364.62 208.01C363.94 208.79 363.85 209.66 364.19 210.6C364.19 210.6 364.19 210.61 364.2 210.61C364.96 212.33 366.97 214.25 369.29 216.17C369.59 216.42 369.86 216.65 370.1 216.87C370.16 216.92 370.22 216.98 370.28 217.03C370.33 217.07 370.37 217.12 370.42 217.16C372.65 219.22 371.81 219.69 375.82 223.87C380.39 228.63 383.54 228.72 384.44 228.28C385.2 227.91 383.66 225.39 381.95 222.55C381.06 222.22 376.92 220.54 373.8 216.54C371.15 213.15 369.34 208.84 367.54 206.19C367.34 206.15 367.22 206.13 367.02 206.09C366.17 206.64 365.3 207.23 364.62 208.01Z" fill="#233862"/>
<path d="M435.3 202.53C435.84 205.24 439.7 204.78 444.01 203.73C448.32 202.68 447.3 203.93 453.43 203.25C459.56 202.57 461.42 200.28 461.61 199.37C461.78 198.56 458.75 198.28 455.5 197.9C455.09 197.85 454.68 197.8 454.27 197.75C450.6 197.29 447.91 194.92 444.58 192.98C441.42 191.14 436.71 183.63 436.71 183.63L428.3 184.3C428.3 184.3 432.71 191 434.42 193.92C435.42 195.63 435.37 197.9 435.25 199.65C435.17 200.61 435.11 201.58 435.3 202.53Z" fill="#FFB27D"/>
<path d="M444.01 203.74C448.32 202.69 447.3 203.94 453.43 203.26C459.56 202.58 461.42 200.29 461.61 199.38C461.78 198.57 458.75 198.29 455.5 197.91L455.47 197.97C455.47 197.97 451.79 200.58 446.69 200.7C442.53 200.8 438.12 199.61 435.25 199.66C435.19 200.61 435.12 201.58 435.32 202.54C435.84 205.24 439.7 204.79 444.01 203.74Z" fill="#233862"/>
<path d="M403.07 148.75L395.21 169.91L384.95 197.53C384.95 197.53 382.16 197.8 379.5 197.03C377.04 196.32 374.23 194.46 374.23 194.46C374.23 194.46 377.08 164.8 382.4 147.77C383.76 143.4 385.29 139.86 386.97 137.87C395.2 128.15 403.07 148.75 403.07 148.75Z" fill="#DD6C3A"/>
<path d="M395.07 115.15C390.59 113.71 378.92 115.13 366.25 117.42C362.75 118.05 359.22 116.46 357.38 113.41L325.5 110.92C325.5 110.92 314.98 134.25 320.74 149.11C321.59 151.29 323.44 152.66 326.31 152.7C326.31 152.7 345.57 152.73 351.73 152.73C367.58 152.73 385.28 141.83 387.57 141.37C391.32 140.62 392.82 148.12 396.56 155.98C400.31 163.85 431.78 190.83 431.78 190.83C431.78 190.83 436.62 190.88 438.62 190.13C440.77 189.32 441.56 188.28 441.56 188.28C441.56 188.28 406.69 118.9 395.07 115.15Z" fill="#F78248"/>
<path d="M354 19.81C351.63 18.4 349.33 18.19 347.91 18.23C346.93 18.26 345.94 18.19 344.97 18.05C332.8 16.27 325.48 33.94 325.05 39.28C324.26 49.08 319.08 50.58 311.78 56.72C297.14 69.03 301.44 83.33 309.44 88.65C314.24 91.84 322.71 88.65 322.71 88.65C322.83 88.73 345.86 75.78 357.21 69.53C374.21 67.1 360.83 23.88 354 19.81Z" fill="#152949"/>
<path d="M347.68 64.1999C347.73 64.2299 342.09 66.1599 338.33 64.4899C334.78 62.9199 332.1 57.0899 332.15 57.0899C333.76 57.0199 335.53 55.6099 336.9 46.3599L337.59 46.6099L349.13 50.7599C349.13 50.7599 348.29 54.4599 347.75 57.9899C347.3 60.9399 347.05 63.7799 347.68 64.1999Z" fill="#FFB27D"/>
<path d="M349.13 50.7498C349.13 50.7498 348.67 52.7498 348 56.4798C341.37 55.2898 338.52 50.1798 337.59 46.5898L349.13 50.7498Z" fill="#ED975D"/>
<path d="M350.85 54.4299C350.85 54.4299 335.05 52.3099 336.53 42.4899C338 32.6699 336.95 25.7899 347.1 26.7299C357.25 27.6699 358.64 31.7099 358.95 35.0999C359.25 38.4999 355 54.7299 350.85 54.4299Z" fill="#FFB27D"/>
<path d="M358.37 29.7199C358.37 29.7199 348.26 38.4299 341.38 39.1399C334.5 39.8399 331.9 37.6299 331.9 37.6299C331.9 37.6299 335.95 34.2599 338.39 28.8299C339.11 27.2299 340.63 26.1299 342.38 25.9799C347.29 25.5599 356.6 25.3699 358.37 29.7199Z" fill="#152949"/>
<path d="M352.05 28.94C352.05 28.94 355.43 32.21 356.5 34.64C357.53 36.98 357.84 42.58 357.02 44.8C357.02 44.8 362.29 34.55 359.31 29.57C356.13 24.3 352.05 28.94 352.05 28.94Z" fill="#152949"/>
<path d="M360.98 87.47C360.5 119.44 360.85 112.76 357.35 115.8C356.51 116.53 354.14 116.97 351.02 117.17C341.22 117.82 323.98 116.21 323.33 114.39C321.07 108.12 322.67 106.17 320.78 96.57C320.58 95.55 320.34 94.44 320.05 93.24C318.48 86.65 316.95 84.41 322.53 73.81C327.59 64.22 332.85 56.43 333.32 56.71C346.67 64.64 347.75 57.97 347.75 57.97C347.75 57.97 361.22 71.87 360.98 87.47Z" fill="#8C9DF4"/>
<path d="M395.21 169.91L384.95 197.53C384.95 197.53 382.16 197.8 379.5 197.03C377.04 196.32 374.23 194.46 374.23 194.46C374.23 194.46 377.08 164.8 382.4 147.77L395.21 169.91Z" fill="#F78248"/>
<path d="M347.75 57.98C347.75 57.98 361.49 60.31 363.1 66.23C364.71 72.15 370.02 108.05 370.02 108.05C370.02 108.05 366.15 111.83 362.92 108.61C359.69 105.38 352.76 75.01 352.76 75.01L347.75 57.98Z" fill="#8C9DF4"/>
<path d="M351.02 117.17C341.22 117.82 323.98 116.21 323.33 114.39C321.07 108.12 322.67 106.17 320.78 96.57L325.51 83.25C325.51 83.25 324.73 98.08 329.1 101.98C333.47 105.88 347 109.51 349.13 112.77C350.15 114.34 350.83 115.91 351.02 117.17Z" fill="#707FE5"/>
<path d="M339.79 110.93C339.79 110.93 349.46 108.78 351.02 109.64C352.58 110.5 356.39 113.62 356.87 114.71C357.35 115.8 353.4 113.88 352.11 113.54C351.28 113.32 349.09 114.08 348 114.44C343.44 115.96 340.64 115.18 340.64 115.18L339.79 110.93Z" fill="#FFB27D"/>
<path d="M333.31 56.71C333.31 56.71 320.32 57.51 315.83 63.78C309.5 72.61 296.95 110.23 304.14 115.24C312.24 120.89 341.02 116.72 341.02 116.72C341.02 116.72 341.98 112.24 340.65 110.08C339.32 107.91 317.67 104.42 316.67 103.42C315.67 102.42 329.16 83.93 329.16 80.94C329.15 77.94 333.31 56.71 333.31 56.71Z" fill="#8C9DF4"/>
<path d="M351.49 112.33C351.49 112.33 353.52 114.94 354.18 115.26C354.84 115.57 355.27 115.49 355.27 115.49L353.9 113.03L351.49 112.33Z" fill="#FFB27D"/>
<path d="M351.02 109.63L356.91 112.49C356.91 112.49 356.66 112.9 355.93 112.87C355.2 112.84 353.37 112.17 353.37 112.17L351.02 109.63Z" fill="#FFB27D"/>
<path d="M401.34 116.36H339.79V117.72H400.79L401.34 116.36Z" fill="#152949"/>
<path d="M354.18 117.72H400.79L414.81 82.8499H368.28L354.18 117.72Z" fill="#152949"/>
<path d="M389.03 100.29C389.38 99.0598 388.67 98.0698 387.45 98.0698C386.22 98.0698 384.95 99.0598 384.59 100.29C384.24 101.52 384.95 102.51 386.17 102.51C387.39 102.51 388.68 101.51 389.03 100.29Z" fill="#EBF3FA"/>
<path d="M278.02 208.52C278.02 218.19 294.31 233.65 294.31 233.65C294.31 233.65 310.6 218.19 310.6 208.52C310.6 198.85 303.31 191.01 294.31 191.01C285.31 191.01 278.02 198.85 278.02 208.52ZM284.71 207.5C284.71 202.21 289.02 197.9 294.31 197.9C299.62 197.9 303.91 202.21 303.91 207.5C303.91 212.81 299.63 217.1 294.31 217.1C289.02 217.09 284.71 212.81 284.71 207.5Z" fill="#F78248"/>
<path d="M284.71 207.5C284.71 202.2 289.01 197.9 294.31 197.9C299.61 197.9 303.91 202.2 303.91 207.5C303.91 212.8 299.61 217.1 294.31 217.1C289.01 217.1 284.71 212.8 284.71 207.5Z" fill="#EBF3FA"/>
<path d="M305.07 230.61C305.07 230.61 304.29 223.83 302.65 221.24C301.01 218.65 294.8 216.99 294.41 217.37C293.19 218.55 298 222.71 298.19 224.24C298.38 225.77 295.75 224.71 297.01 227.7C298.08 230.23 301.59 233.5 301.59 233.5L305.07 230.61Z" fill="#FFB27D"/>
<path d="M302.08 229.86C304.34 228.08 304.82 228.12 304.82 228.12C304.82 228.12 325.76 246.26 327.8 247.88C329.84 249.5 361.29 258.62 361.29 258.62L366.29 284.19C366.29 284.19 323.74 263.64 318.65 259.44C310.25 252.51 299.64 233.11 299.64 233.11C299.64 233.11 300.3 231.25 302.08 229.86Z" fill="#DD6C3A"/>
<path d="M361.97 475.56C361.97 475.56 361.61 484.3 359.93 486.42L336.59 486.55C336.75 485.65 336.85 483.56 340.08 483C344.16 482.29 348.95 479.45 351.42 474.05C354.01 468.4 361.97 475.56 361.97 475.56Z" fill="#163560"/>
<path d="M407.77 474.31C407.77 474.31 409.4 485.92 407.19 486.12C406.9 486.15 397.78 486.29 393.84 486.36C389.2 486.44 381.57 486.27 381.57 486.27C380.61 486.31 379.98 485.27 380.47 484.45C381.01 483.54 382.03 482.58 383.98 482.2C388.04 481.42 394.82 478.43 397.19 473C399.69 467.28 407.77 474.31 407.77 474.31Z" fill="#163560"/>
<path d="M349.83 355.35C349.83 355.35 356.32 378.06 374.92 417.5C393.52 456.94 394.33 475.94 394.33 475.94C394.33 475.94 397.15 476.94 400.88 476.54C404.92 476.11 407.77 474.31 407.77 474.31C407.77 474.31 406.57 427.37 397.78 407.47C388.99 387.57 387.2 333.11 387.2 333.11L349.83 355.35Z" fill="#233862"/>
<path d="M339.41 335.81C339.41 335.81 338.89 370.98 344.98 414.15C351.06 457.33 348.22 477.41 348.22 477.41C348.22 477.41 349.83 478.58 354.79 478.56C360.6 478.54 363.57 476.14 363.57 476.14C363.57 476.14 372.28 432.95 369.78 411.33C367.28 389.72 381.71 337.17 381.71 337.17L339.41 335.81Z" fill="#2A4E96"/>
<path d="M368.16 253.52L361.29 258.61L351.36 256.52C351.5 255.61 352.15 251.86 352.75 248.46C352.79 248.26 352.82 248.06 352.86 247.86C353.37 244.97 353.81 242.48 353.81 242.48L363.09 237.86L366.55 236.14C366.54 236.2 366.28 239.35 366.25 239.81C365.59 247.97 368.16 253.52 368.16 253.52Z" fill="#FFB27D"/>
<path d="M387.85 340.15C385.6 350.43 337.51 345.92 338.13 339.64C338.15 339.43 338.28 336.53 338.45 332.61C338.81 324.14 339.37 310.91 339.44 309.88C339.44 309.86 339.45 309.84 339.45 309.83C340.32 301.09 341.15 292.55 341.2 286.97C341.25 282.13 341.92 277.18 342.8 272.69C343.62 268.54 344.62 264.78 345.5 261.84C346.12 259.77 347.26 257.96 348.78 256.53C349.86 255.51 351.13 254.7 352.53 254.14C352.91 253.98 353.3 253.85 353.7 253.73C359.36 252.09 367.19 250.06 369.31 250.68C375.06 252.37 379.33 262.49 382.35 275.4C388.01 299.54 389.32 333.45 387.85 340.15Z" fill="#F78248"/>
<path d="M365.54 239.95C363.5 243.85 355.91 247.22 352.74 248.46C352.78 248.26 352.81 248.06 352.85 247.86C353.36 244.97 353.8 242.48 353.8 242.48L363.08 237.86C365.14 237.82 366.38 238.34 365.54 239.95Z" fill="#FCA56B"/>
<path d="M349.3 241.94C349.3 241.94 366.04 247.16 369.13 236.69C372.22 226.22 376.46 219.84 365.91 216.06C355.35 212.28 352.09 215.66 350.21 218.91C348.32 222.15 345.02 240.31 349.3 241.94Z" fill="#FFB27D"/>
<path d="M350.86 217.89C350.86 217.89 351.93 230.08 354.45 229.55C356.97 229.02 359.26 228.63 358.89 232.3C358.52 235.97 355.03 240.22 362.79 240.87C370.56 241.52 381.72 221.49 379.59 217.69C373.43 206.75 341.96 204.54 350.86 217.89Z" fill="#163560"/>
<path d="M338.46 332.62C338.82 324.15 339.38 310.92 339.45 309.89C339.45 309.87 339.46 309.85 339.46 309.84L367.87 292.85C367.87 292.84 368.97 332.5 338.46 332.62Z" fill="#DD6C3A"/>
<path d="M315.87 297.07C315.87 297.07 310.09 293.16 309 292.82C307.9 292.48 304.31 292.11 304.15 292.39C303.98 292.67 303.49 293.54 304.12 293.83C304.75 294.12 305.53 294.02 305.29 294.23C305.06 294.43 302.69 293.31 302.15 294.51C301.61 295.71 301.13 299.84 303.9 301.09C306.67 302.34 313.51 301.21 314 301.35C318.18 302.57 315.87 297.07 315.87 297.07Z" fill="#FFB27D"/>
<path d="M315.82 296.01C315.82 296.01 344 300.8 346.5 299.59C350.49 297.65 344.95 269.05 344.95 269.05C344.95 269.05 344.71 262.57 352.28 261.04C358.86 259.71 365.2 264.64 365.2 264.64C365.2 264.64 370.97 269.8 370.23 275.53C368.6 288.23 366.05 314.06 357.56 318.01C346.61 323.12 314.91 303.85 314.91 303.85C314.91 303.85 313.85 302.56 314 300.16C314.14 298.05 315.82 296.01 315.82 296.01Z" fill="#F78248"/>
<path d="M296.88 227.37C296.88 227.37 295.08 223.78 294.79 223.11C294.5 222.44 295.2 222.58 295.9 222.96C296.59 223.34 297.54 225.42 298.61 225.17C299.46 224.96 296.88 227.37 296.88 227.37Z" fill="#FFB27D"/>
<path d="M141.88 392.34C141.88 392.67 141.9 393 141.94 393.31C142.06 394.33 142.38 395.29 142.85 396.16C143.22 396.83 143.68 397.45 144.22 397.99C145.67 399.43 147.66 400.33 149.87 400.33H262.14C266.55 400.33 270.12 396.76 270.12 392.35C270.12 390.14 269.23 388.15 267.78 386.7C266.34 385.25 264.34 384.36 262.13 384.36H149.86C145.45 384.35 141.88 387.93 141.88 392.34Z" fill="#2B478B"/>
<path d="M150.44 382.91H188.93C189.6 382.91 190.16 382.36 190.16 381.68C190.16 381.01 189.61 380.45 188.93 380.45H150.44C149.77 380.45 149.22 381 149.22 381.68C149.22 382.36 149.77 382.91 150.44 382.91Z" fill="#2B478B"/>
<path d="M152.569 384.35H156.739V382.9H152.569V384.35Z" fill="#233862"/>
<path d="M142.85 396.15C143.22 396.82 143.68 397.44 144.22 397.98C145.67 399.42 147.66 400.32 149.87 400.32H173.65V396.16H142.85V396.15Z" fill="#233862"/>
<path d="M284.98 390V394.68C284.98 395.19 284.91 395.69 284.78 396.16C284.13 398.56 281.94 400.32 279.33 400.32H162.38C159.77 400.32 157.58 398.56 156.93 396.16C156.8 395.69 156.73 395.19 156.73 394.68V390C156.73 386.88 159.26 384.35 162.37 384.35H279.32C282.45 384.35 284.98 386.88 284.98 390Z" fill="#F99746"/>
<path d="M284.78 396.15C284.13 398.55 281.94 400.31 279.33 400.31H162.38C159.77 400.31 157.58 398.55 156.93 396.15H284.78Z" fill="#EF873A"/>
<path d="M273.36 392.36C273.36 394.84 274.26 397.06 275.68 398.52C275.71 398.55 275.74 398.58 275.78 398.62C276.88 399.71 278.27 400.37 279.79 400.37C282.16 400.37 288.03 396.8 291.66 394.43C293.47 393.25 294.73 392.36 294.73 392.36C294.73 392.36 293.47 391.48 291.66 390.29C288.02 387.92 282.16 384.34 279.79 384.34C279.1 384.34 278.45 384.47 277.82 384.72C276.78 385.14 275.85 385.88 275.11 386.86C274.3 387.93 273.73 389.27 273.48 390.77C273.48 390.79 273.47 390.8 273.47 390.82C273.4 391.32 273.36 391.84 273.36 392.36Z" fill="#8C9DF4"/>
<path d="M273.36 392.36C273.36 394.84 274.26 397.06 275.68 398.52L293.68 392.33L273.48 390.82C273.4 391.32 273.36 391.84 273.36 392.36Z" fill="#6980E2"/>
<path d="M275.11 386.87L293.07 391.77L277.82 384.73C276.78 385.15 275.85 385.9 275.11 386.87Z" fill="#9FB1FF"/>
<path d="M290.49 392.36C290.49 393.31 290.98 394.13 291.66 394.43C293.47 393.25 294.73 392.36 294.73 392.36C294.73 392.36 293.47 391.48 291.66 390.29C290.97 390.6 290.49 391.41 290.49 392.36Z" fill="#182D4C"/>
<path d="M527.54 401.88H7.23C6.82 401.88 6.48 401.54 6.48 401.13C6.48 400.72 6.82 400.38 7.23 400.38H527.54C527.95 400.38 528.29 400.72 528.29 401.13C528.29 401.54 527.95 401.88 527.54 401.88Z" fill="#2E3552"/>
</svg>
