<svg xmlns="http://www.w3.org/2000/svg" xmlns:xlink="http://www.w3.org/1999/xlink" width="500" zoomAndPan="magnify" viewBox="0 0 375 374.999991" height="500" preserveAspectRatio="xMidYMid meet" version="1.0"><defs><g/><clipPath id="ec2ac667a5"><path d="M 88.175781 116.609375 L 144 116.609375 L 144 173 L 88.175781 173 Z M 88.175781 116.609375 " clip-rule="nonzero"/></clipPath><clipPath id="bbb9d2afca"><path d="M 125.417969 116.601562 C 106.386719 116.601562 107.574219 124.898438 107.574219 124.898438 L 107.59375 133.496094 L 125.753906 133.496094 L 125.753906 136.078125 L 100.382812 136.078125 C 100.382812 136.078125 88.203125 134.6875 88.203125 153.996094 C 88.203125 173.304688 98.832031 172.621094 98.832031 172.621094 L 105.175781 172.621094 L 105.175781 163.660156 C 105.175781 163.660156 104.835938 152.972656 115.636719 152.972656 L 133.648438 152.972656 C 133.648438 152.972656 143.769531 153.136719 143.769531 143.136719 L 143.769531 126.605469 C 143.769531 126.605469 145.304688 116.601562 125.417969 116.601562 Z M 115.402344 122.382812 C 117.210938 122.382812 118.667969 123.851562 118.667969 125.667969 C 118.667969 127.484375 117.210938 128.953125 115.402344 128.953125 C 113.59375 128.953125 112.136719 127.484375 112.136719 125.667969 C 112.136719 123.851562 113.59375 122.382812 115.402344 122.382812 Z M 115.402344 122.382812 " clip-rule="nonzero"/></clipPath><linearGradient x1="0.00416829" gradientTransform="matrix(55.592307, 0, 0, 56.023665, 88.202982, 116.600007)" y1="-0.00405736" x2="1.027757" gradientUnits="userSpaceOnUse" y2="1.01158" id="346c4dc9ba"><stop stop-opacity="1" stop-color="rgb(21.998596%, 49.398804%, 72.198486%)" offset="0"/><stop stop-opacity="1" stop-color="rgb(21.99707%, 49.383545%, 72.171021%)" offset="0.125"/><stop stop-opacity="1" stop-color="rgb(21.986389%, 49.269104%, 71.974182%)" offset="0.140625"/><stop stop-opacity="1" stop-color="rgb(21.966553%, 49.072266%, 71.633911%)" offset="0.15625"/><stop stop-opacity="1" stop-color="rgb(21.948242%, 48.875427%, 71.29364%)" offset="0.171875"/><stop stop-opacity="1" stop-color="rgb(21.928406%, 48.678589%, 70.953369%)" offset="0.1875"/><stop stop-opacity="1" stop-color="rgb(21.910095%, 48.48175%, 70.611572%)" offset="0.203125"/><stop stop-opacity="1" stop-color="rgb(21.890259%, 48.286438%, 70.271301%)" offset="0.21875"/><stop stop-opacity="1" stop-color="rgb(21.870422%, 48.0896%, 69.93103%)" offset="0.234375"/><stop stop-opacity="1" stop-color="rgb(21.852112%, 47.892761%, 69.590759%)" offset="0.25"/><stop stop-opacity="1" stop-color="rgb(21.832275%, 47.695923%, 69.250488%)" offset="0.265625"/><stop stop-opacity="1" stop-color="rgb(21.813965%, 47.499084%, 68.908691%)" offset="0.28125"/><stop stop-opacity="1" stop-color="rgb(21.794128%, 47.302246%, 68.56842%)" offset="0.296875"/><stop stop-opacity="1" stop-color="rgb(21.775818%, 47.105408%, 68.228149%)" offset="0.3125"/><stop stop-opacity="1" stop-color="rgb(21.755981%, 46.908569%, 67.887878%)" offset="0.328125"/><stop stop-opacity="1" stop-color="rgb(21.736145%, 46.711731%, 67.546082%)" offset="0.34375"/><stop stop-opacity="1" stop-color="rgb(21.717834%, 46.514893%, 67.205811%)" offset="0.359375"/><stop stop-opacity="1" stop-color="rgb(21.697998%, 46.31958%, 66.86554%)" offset="0.375"/><stop stop-opacity="1" stop-color="rgb(21.679688%, 46.122742%, 66.525269%)" offset="0.390625"/><stop stop-opacity="1" stop-color="rgb(21.659851%, 45.925903%, 66.184998%)" offset="0.40625"/><stop stop-opacity="1" stop-color="rgb(21.641541%, 45.729065%, 65.843201%)" offset="0.421875"/><stop stop-opacity="1" stop-color="rgb(21.621704%, 45.532227%, 65.50293%)" offset="0.4375"/><stop stop-opacity="1" stop-color="rgb(21.601868%, 45.335388%, 65.162659%)" offset="0.453125"/><stop stop-opacity="1" stop-color="rgb(21.583557%, 45.13855%, 64.822388%)" offset="0.46875"/><stop stop-opacity="1" stop-color="rgb(21.563721%, 44.941711%, 64.482117%)" offset="0.484375"/><stop stop-opacity="1" stop-color="rgb(21.54541%, 44.744873%, 64.14032%)" offset="0.494335"/><stop stop-opacity="1" stop-color="rgb(21.536255%, 44.647217%, 63.970947%)" offset="0.5"/><stop stop-opacity="1" stop-color="rgb(21.525574%, 44.548035%, 63.800049%)" offset="0.505665"/><stop stop-opacity="1" stop-color="rgb(21.516418%, 44.450378%, 63.630676%)" offset="0.515625"/><stop stop-opacity="1" stop-color="rgb(21.505737%, 44.352722%, 63.459778%)" offset="0.53125"/><stop stop-opacity="1" stop-color="rgb(21.487427%, 44.155884%, 63.119507%)" offset="0.546875"/><stop stop-opacity="1" stop-color="rgb(21.46759%, 43.959045%, 62.77771%)" offset="0.5625"/><stop stop-opacity="1" stop-color="rgb(21.44928%, 43.762207%, 62.437439%)" offset="0.578125"/><stop stop-opacity="1" stop-color="rgb(21.429443%, 43.565369%, 62.097168%)" offset="0.59375"/><stop stop-opacity="1" stop-color="rgb(21.411133%, 43.36853%, 61.756897%)" offset="0.609375"/><stop stop-opacity="1" stop-color="rgb(21.391296%, 43.171692%, 61.416626%)" offset="0.625"/><stop stop-opacity="1" stop-color="rgb(21.37146%, 42.974854%, 61.074829%)" offset="0.640625"/><stop stop-opacity="1" stop-color="rgb(21.353149%, 42.778015%, 60.734558%)" offset="0.65625"/><stop stop-opacity="1" stop-color="rgb(21.333313%, 42.582703%, 60.394287%)" offset="0.671875"/><stop stop-opacity="1" stop-color="rgb(21.315002%, 42.385864%, 60.054016%)" offset="0.6875"/><stop stop-opacity="1" stop-color="rgb(21.295166%, 42.189026%, 59.713745%)" offset="0.703125"/><stop stop-opacity="1" stop-color="rgb(21.276855%, 41.992188%, 59.371948%)" offset="0.71875"/><stop stop-opacity="1" stop-color="rgb(21.257019%, 41.795349%, 59.031677%)" offset="0.734375"/><stop stop-opacity="1" stop-color="rgb(21.237183%, 41.598511%, 58.691406%)" offset="0.75"/><stop stop-opacity="1" stop-color="rgb(21.218872%, 41.401672%, 58.351135%)" offset="0.765625"/><stop stop-opacity="1" stop-color="rgb(21.203613%, 41.25061%, 58.09021%)" offset="0.78125"/><stop stop-opacity="1" stop-color="rgb(21.199036%, 41.19873%, 57.998657%)" offset="0.8125"/><stop stop-opacity="1" stop-color="rgb(21.199036%, 41.19873%, 57.998657%)" offset="0.875"/><stop stop-opacity="1" stop-color="rgb(21.199036%, 41.19873%, 57.998657%)" offset="1"/></linearGradient><clipPath id="2b2315355d"><path d="M 107 135 L 163.175781 135 L 163.175781 191.609375 L 107 191.609375 Z M 107 135 " clip-rule="nonzero"/></clipPath><clipPath id="c3416807c9"><path d="M 125.957031 191.585938 C 144.988281 191.585938 143.800781 183.289062 143.800781 183.289062 L 143.78125 174.691406 L 125.617188 174.691406 L 125.617188 172.109375 L 150.992188 172.109375 C 150.992188 172.109375 163.171875 173.496094 163.171875 154.191406 C 163.171875 134.882812 152.542969 135.566406 152.542969 135.566406 L 146.199219 135.566406 L 146.199219 144.527344 C 146.199219 144.527344 146.539062 155.214844 135.738281 155.214844 L 117.722656 155.214844 C 117.722656 155.214844 107.605469 155.050781 107.605469 165.050781 L 107.605469 181.582031 C 107.605469 181.582031 106.066406 191.585938 125.957031 191.585938 Z M 135.972656 185.804688 C 134.164062 185.804688 132.703125 184.335938 132.703125 182.519531 C 132.703125 180.703125 134.164062 179.234375 135.972656 179.234375 C 137.777344 179.234375 139.238281 180.703125 139.238281 182.519531 C 139.238281 184.335938 137.777344 185.804688 135.972656 185.804688 Z M 135.972656 185.804688 " clip-rule="nonzero"/></clipPath><linearGradient x1="-0.0326453" gradientTransform="matrix(55.593989, 0, 0, 56.023951, 107.577379, 135.563567)" y1="-0.00636589" x2="1.013978" gradientUnits="userSpaceOnUse" y2="0.985247" id="4db80140ad"><stop stop-opacity="1" stop-color="rgb(100%, 87.799072%, 32.199097%)" offset="0"/><stop stop-opacity="1" stop-color="rgb(100%, 87.799072%, 32.199097%)" offset="0.125"/><stop stop-opacity="1" stop-color="rgb(100%, 87.799072%, 32.199097%)" offset="0.1875"/><stop stop-opacity="1" stop-color="rgb(100%, 87.759399%, 32.15332%)" offset="0.21875"/><stop stop-opacity="1" stop-color="rgb(100%, 87.590027%, 31.959534%)" offset="0.234375"/><stop stop-opacity="1" stop-color="rgb(100%, 87.332153%, 31.661987%)" offset="0.25"/><stop stop-opacity="1" stop-color="rgb(100%, 87.07428%, 31.365967%)" offset="0.265625"/><stop stop-opacity="1" stop-color="rgb(100%, 86.816406%, 31.06842%)" offset="0.28125"/><stop stop-opacity="1" stop-color="rgb(100%, 86.558533%, 30.7724%)" offset="0.296875"/><stop stop-opacity="1" stop-color="rgb(100%, 86.300659%, 30.474854%)" offset="0.3125"/><stop stop-opacity="1" stop-color="rgb(100%, 86.04126%, 30.177307%)" offset="0.328125"/><stop stop-opacity="1" stop-color="rgb(100%, 85.783386%, 29.881287%)" offset="0.34375"/><stop stop-opacity="1" stop-color="rgb(100%, 85.525513%, 29.58374%)" offset="0.359375"/><stop stop-opacity="1" stop-color="rgb(100%, 85.267639%, 29.28772%)" offset="0.375"/><stop stop-opacity="1" stop-color="rgb(100%, 85.009766%, 28.990173%)" offset="0.390625"/><stop stop-opacity="1" stop-color="rgb(100%, 84.751892%, 28.694153%)" offset="0.40625"/><stop stop-opacity="1" stop-color="rgb(100%, 84.494019%, 28.396606%)" offset="0.421875"/><stop stop-opacity="1" stop-color="rgb(100%, 84.236145%, 28.100586%)" offset="0.4375"/><stop stop-opacity="1" stop-color="rgb(100%, 83.978271%, 27.80304%)" offset="0.453125"/><stop stop-opacity="1" stop-color="rgb(100%, 83.720398%, 27.505493%)" offset="0.46875"/><stop stop-opacity="1" stop-color="rgb(100%, 83.460999%, 27.209473%)" offset="0.482837"/><stop stop-opacity="1" stop-color="rgb(100%, 83.332825%, 27.061462%)" offset="0.484375"/><stop stop-opacity="1" stop-color="rgb(100%, 83.203125%, 26.911926%)" offset="0.5"/><stop stop-opacity="1" stop-color="rgb(100%, 82.945251%, 26.615906%)" offset="0.515625"/><stop stop-opacity="1" stop-color="rgb(100%, 82.687378%, 26.318359%)" offset="0.517163"/><stop stop-opacity="1" stop-color="rgb(100%, 82.559204%, 26.170349%)" offset="0.53125"/><stop stop-opacity="1" stop-color="rgb(100%, 82.429504%, 26.022339%)" offset="0.546875"/><stop stop-opacity="1" stop-color="rgb(100%, 82.171631%, 25.724792%)" offset="0.5625"/><stop stop-opacity="1" stop-color="rgb(100%, 81.913757%, 25.428772%)" offset="0.578125"/><stop stop-opacity="1" stop-color="rgb(100%, 81.655884%, 25.131226%)" offset="0.59375"/><stop stop-opacity="1" stop-color="rgb(100%, 81.39801%, 24.835205%)" offset="0.609375"/><stop stop-opacity="1" stop-color="rgb(100%, 81.138611%, 24.537659%)" offset="0.625"/><stop stop-opacity="1" stop-color="rgb(100%, 80.880737%, 24.240112%)" offset="0.640625"/><stop stop-opacity="1" stop-color="rgb(100%, 80.622864%, 23.944092%)" offset="0.65625"/><stop stop-opacity="1" stop-color="rgb(100%, 80.36499%, 23.646545%)" offset="0.671875"/><stop stop-opacity="1" stop-color="rgb(100%, 80.107117%, 23.350525%)" offset="0.6875"/><stop stop-opacity="1" stop-color="rgb(100%, 79.849243%, 23.052979%)" offset="0.703125"/><stop stop-opacity="1" stop-color="rgb(100%, 79.59137%, 22.756958%)" offset="0.71875"/><stop stop-opacity="1" stop-color="rgb(100%, 79.333496%, 22.459412%)" offset="0.734375"/><stop stop-opacity="1" stop-color="rgb(100%, 79.075623%, 22.163391%)" offset="0.75"/><stop stop-opacity="1" stop-color="rgb(100%, 78.816223%, 21.865845%)" offset="0.765625"/><stop stop-opacity="1" stop-color="rgb(100%, 78.55835%, 21.568298%)" offset="0.78125"/><stop stop-opacity="1" stop-color="rgb(100%, 78.300476%, 21.272278%)" offset="0.796875"/><stop stop-opacity="1" stop-color="rgb(100%, 78.042603%, 20.974731%)" offset="0.8125"/><stop stop-opacity="1" stop-color="rgb(100%, 77.784729%, 20.678711%)" offset="0.828125"/><stop stop-opacity="1" stop-color="rgb(100%, 77.526855%, 20.381165%)" offset="0.84375"/><stop stop-opacity="1" stop-color="rgb(100%, 77.268982%, 20.085144%)" offset="0.859375"/><stop stop-opacity="1" stop-color="rgb(100%, 77.011108%, 19.787598%)" offset="0.875"/><stop stop-opacity="1" stop-color="rgb(100%, 76.753235%, 19.491577%)" offset="0.890625"/><stop stop-opacity="1" stop-color="rgb(100%, 76.560974%, 19.270325%)" offset="0.90625"/><stop stop-opacity="1" stop-color="rgb(100%, 76.499939%, 19.198608%)" offset="0.9375"/><stop stop-opacity="1" stop-color="rgb(100%, 76.499939%, 19.198608%)" offset="1"/></linearGradient></defs><g clip-path="url(#ec2ac667a5)"><g clip-path="url(#bbb9d2afca)"><path fill="url(#346c4dc9ba)" d="M 88.203125 116.609375 L 88.203125 173.304688 L 145.304688 173.304688 L 145.304688 116.609375 Z M 88.203125 116.609375 " fill-rule="nonzero"/></g></g><g clip-path="url(#2b2315355d)"><g clip-path="url(#c3416807c9)"><path fill="url(#4db80140ad)" d="M 106.066406 134.882812 L 106.066406 191.585938 L 163.171875 191.585938 L 163.171875 134.882812 Z M 106.066406 134.882812 " fill-rule="nonzero"/></g></g><g fill="#000000" fill-opacity="1"><g transform="translate(172.703958, 166.026243)"><g><path d="M 5.46875 -20.15625 C 5.46875 -21.132812 5.382812 -21.859375 5.21875 -22.328125 C 5.0625 -22.796875 4.835938 -23.117188 4.546875 -23.296875 C 4.253906 -23.484375 3.78125 -23.664062 3.125 -23.84375 C 2.476562 -24.03125 1.882812 -24.234375 1.34375 -24.453125 L 1.390625 -25.453125 L 11.078125 -25.453125 C 13.523438 -25.453125 15.664062 -25.316406 17.5 -25.046875 C 19.34375 -24.773438 20.945312 -24.125 22.3125 -23.09375 C 23.6875 -22.0625 24.375 -20.484375 24.375 -18.359375 C 24.375 -16.660156 23.96875 -15.238281 23.15625 -14.09375 C 22.351562 -12.945312 21.269531 -12.097656 19.90625 -11.546875 C 18.539062 -10.992188 17.023438 -10.71875 15.359375 -10.71875 C 15.054688 -10.71875 14.570312 -10.769531 13.90625 -10.875 C 13.25 -10.976562 12.648438 -11.125 12.109375 -11.3125 C 11.566406 -11.507812 11.296875 -11.738281 11.296875 -12 C 11.296875 -12.238281 11.582031 -12.359375 12.15625 -12.359375 L 12.453125 -12.359375 C 14.023438 -12.359375 15.335938 -12.492188 16.390625 -12.765625 C 17.441406 -13.046875 18.273438 -13.609375 18.890625 -14.453125 C 19.503906 -15.296875 19.8125 -16.503906 19.8125 -18.078125 C 19.8125 -19.523438 19.414062 -20.691406 18.625 -21.578125 C 17.832031 -22.472656 16.816406 -23.113281 15.578125 -23.5 C 14.335938 -23.882812 13.007812 -24.078125 11.59375 -24.078125 C 11.019531 -24.078125 10.382812 -24.046875 9.6875 -23.984375 L 9.6875 -5.375 C 9.6875 -4.269531 9.757812 -3.46875 9.90625 -2.96875 C 10.050781 -2.476562 10.257812 -2.15625 10.53125 -2 C 10.8125 -1.84375 11.265625 -1.710938 11.890625 -1.609375 C 12.734375 -1.460938 13.476562 -1.265625 14.125 -1.015625 L 14.09375 0 L 1.390625 0 L 1.328125 -1.015625 L 1.953125 -1.1875 C 2.722656 -1.394531 3.335938 -1.597656 3.796875 -1.796875 C 4.265625 -2.003906 4.660156 -2.3125 4.984375 -2.71875 C 5.304688 -3.125 5.46875 -3.664062 5.46875 -4.34375 Z M 5.46875 -20.15625 "/></g></g></g><g fill="#000000" fill-opacity="1"><g transform="translate(198.204689, 166.026243)"><g><path d="M 3.09375 -13.921875 C 2.78125 -14.617188 2.476562 -15.144531 2.1875 -15.5 C 1.90625 -15.851562 1.640625 -16.082031 1.390625 -16.1875 C 1.148438 -16.300781 0.867188 -16.382812 0.546875 -16.4375 C 0.347656 -16.46875 0.164062 -16.507812 0 -16.5625 L 0 -17.578125 L 9.171875 -17.578125 C 9.191406 -17.453125 9.222656 -17.238281 9.265625 -16.9375 C 9.316406 -16.632812 9.316406 -16.472656 9.265625 -16.453125 C 8.398438 -16.296875 7.765625 -16.117188 7.359375 -15.921875 C 6.960938 -15.722656 6.765625 -15.410156 6.765625 -14.984375 C 6.765625 -14.710938 6.847656 -14.3125 7.015625 -13.78125 L 10.890625 -4.140625 L 14.234375 -13.1875 C 14.421875 -13.695312 14.515625 -14.140625 14.515625 -14.515625 C 14.515625 -15.078125 14.3125 -15.503906 13.90625 -15.796875 C 13.507812 -16.097656 12.867188 -16.328125 11.984375 -16.484375 C 11.972656 -16.554688 11.96875 -16.703125 11.96875 -16.921875 C 11.96875 -17.078125 11.96875 -17.210938 11.96875 -17.328125 C 11.976562 -17.453125 11.984375 -17.535156 11.984375 -17.578125 L 19.15625 -17.578125 L 19.171875 -16.578125 C 18.960938 -16.410156 18.675781 -16.257812 18.3125 -16.125 C 17.976562 -15.976562 17.695312 -15.835938 17.46875 -15.703125 C 17.238281 -15.566406 17.015625 -15.347656 16.796875 -15.046875 C 16.585938 -14.742188 16.410156 -14.332031 16.265625 -13.8125 L 9.328125 3.265625 C 8.753906 4.703125 8.070312 5.800781 7.28125 6.5625 C 6.488281 7.332031 5.488281 7.71875 4.28125 7.71875 C 3.40625 7.71875 2.679688 7.507812 2.109375 7.09375 C 1.546875 6.6875 1.265625 6.140625 1.265625 5.453125 C 1.265625 4.941406 1.441406 4.507812 1.796875 4.15625 C 2.160156 3.8125 2.597656 3.640625 3.109375 3.640625 C 3.566406 3.640625 3.90625 3.71875 4.125 3.875 C 4.351562 4.03125 4.582031 4.265625 4.8125 4.578125 C 4.976562 4.804688 5.132812 4.984375 5.28125 5.109375 C 5.4375 5.234375 5.644531 5.296875 5.90625 5.296875 C 6.3125 5.296875 6.671875 5.113281 6.984375 4.75 C 7.296875 4.382812 7.585938 3.890625 7.859375 3.265625 C 8.140625 2.648438 8.535156 1.6875 9.046875 0.375 L 9.1875 0 Z M 3.09375 -13.921875 "/></g></g></g><g fill="#000000" fill-opacity="1"><g transform="translate(217.745475, 166.026243)"><g><path d="M 7.171875 -6.140625 C 7.171875 -4.804688 7.21875 -3.851562 7.3125 -3.28125 C 7.40625 -2.71875 7.625 -2.3125 7.96875 -2.0625 C 8.320312 -1.8125 8.914062 -1.6875 9.75 -1.6875 C 10.25 -1.6875 10.742188 -1.726562 11.234375 -1.8125 C 11.734375 -1.90625 12.148438 -2.003906 12.484375 -2.109375 L 12.640625 -0.6875 C 11.984375 -0.363281 11.3125 -0.101562 10.625 0.09375 C 9.945312 0.289062 9.132812 0.390625 8.1875 0.390625 C 6.925781 0.390625 5.960938 0.179688 5.296875 -0.234375 C 4.628906 -0.648438 4.164062 -1.320312 3.90625 -2.25 C 3.644531 -3.1875 3.515625 -4.503906 3.515625 -6.203125 L 3.515625 -16.109375 L 0.609375 -16.109375 L 0.609375 -16.796875 C 1.492188 -17.140625 2.238281 -17.550781 2.84375 -18.03125 C 3.445312 -18.507812 3.941406 -19 4.328125 -19.5 C 4.722656 -20.007812 5.195312 -20.679688 5.75 -21.515625 C 5.976562 -21.898438 6.15625 -22.148438 6.28125 -22.265625 C 6.414062 -22.390625 6.550781 -22.453125 6.6875 -22.453125 C 6.8125 -22.453125 6.914062 -22.390625 7 -22.265625 C 7.09375 -22.148438 7.140625 -21.960938 7.140625 -21.703125 L 7.140625 -17.578125 L 12.046875 -17.578125 L 12.046875 -16.109375 L 7.171875 -16.109375 Z M 7.171875 -6.140625 "/></g></g></g><g fill="#000000" fill-opacity="1"><g transform="translate(231.111372, 166.026243)"><g><path d="M 20.3125 -4.3125 C 20.3125 -3.3125 20.566406 -2.523438 21.078125 -1.953125 C 21.597656 -1.390625 22.332031 -1.066406 23.28125 -0.984375 C 23.28125 -0.785156 23.269531 -0.59375 23.25 -0.40625 C 23.238281 -0.21875 23.234375 -0.0820312 23.234375 0 L 13.625 0 C 13.625 -0.0820312 13.613281 -0.21875 13.59375 -0.40625 C 13.582031 -0.59375 13.578125 -0.785156 13.578125 -0.984375 C 13.804688 -1.085938 14.238281 -1.234375 14.875 -1.421875 C 15.375 -1.578125 15.734375 -1.722656 15.953125 -1.859375 C 16.179688 -2.003906 16.359375 -2.25 16.484375 -2.59375 C 16.609375 -2.945312 16.671875 -3.476562 16.671875 -4.1875 L 16.671875 -11.28125 C 16.671875 -12.707031 16.367188 -13.847656 15.765625 -14.703125 C 15.160156 -15.554688 14.210938 -15.984375 12.921875 -15.984375 C 11.992188 -15.984375 11.097656 -15.738281 10.234375 -15.25 C 9.367188 -14.757812 8.570312 -14.132812 7.84375 -13.375 L 7.84375 -4.546875 C 7.84375 -3.378906 8.109375 -2.519531 8.640625 -1.96875 C 9.171875 -1.425781 10.046875 -1.097656 11.265625 -0.984375 L 11.234375 0 L 0.828125 0 C 0.828125 -0.0820312 0.816406 -0.21875 0.796875 -0.40625 C 0.785156 -0.59375 0.78125 -0.785156 0.78125 -0.984375 C 3.0625 -1.160156 4.203125 -2.347656 4.203125 -4.546875 L 4.203125 -22.75 C 4.066406 -22.945312 3.773438 -23.1875 3.328125 -23.46875 C 2.890625 -23.75 2.425781 -24 1.9375 -24.21875 C 1.457031 -24.4375 1.097656 -24.5625 0.859375 -24.59375 L 0.859375 -25.28125 L 6.453125 -26.765625 L 7.84375 -26.890625 L 7.84375 -15.015625 C 8.863281 -16.046875 9.867188 -16.816406 10.859375 -17.328125 C 11.859375 -17.835938 13.007812 -18.09375 14.3125 -18.09375 C 16.125 -18.09375 17.578125 -17.515625 18.671875 -16.359375 C 19.765625 -15.210938 20.3125 -13.460938 20.3125 -11.109375 Z M 20.3125 -4.3125 "/></g></g></g><g fill="#000000" fill-opacity="1"><g transform="translate(254.892514, 166.026243)"><g><path d="M 10.734375 -18.09375 C 12.460938 -18.09375 14.039062 -17.71875 15.46875 -16.96875 C 16.894531 -16.226562 18.023438 -15.160156 18.859375 -13.765625 C 19.691406 -12.378906 20.109375 -10.769531 20.109375 -8.9375 C 20.109375 -7.09375 19.691406 -5.460938 18.859375 -4.046875 C 18.023438 -2.640625 16.910156 -1.546875 15.515625 -0.765625 C 14.117188 0.00390625 12.597656 0.390625 10.953125 0.390625 C 9.304688 0.390625 7.765625 -0.00390625 6.328125 -0.796875 C 4.898438 -1.597656 3.753906 -2.703125 2.890625 -4.109375 C 2.035156 -5.523438 1.609375 -7.125 1.609375 -8.90625 C 1.609375 -10.695312 2.023438 -12.289062 2.859375 -13.6875 C 3.691406 -15.09375 4.804688 -16.175781 6.203125 -16.9375 C 7.609375 -17.707031 9.117188 -18.09375 10.734375 -18.09375 Z M 11.203125 -1.140625 C 12.859375 -1.140625 14.113281 -1.726562 14.96875 -2.90625 C 15.832031 -4.09375 16.265625 -5.648438 16.265625 -7.578125 C 16.265625 -9.253906 16.03125 -10.789062 15.5625 -12.1875 C 15.101562 -13.582031 14.441406 -14.695312 13.578125 -15.53125 C 12.722656 -16.375 11.734375 -16.796875 10.609375 -16.796875 C 9.617188 -16.796875 8.742188 -16.550781 7.984375 -16.0625 C 7.222656 -15.582031 6.617188 -14.835938 6.171875 -13.828125 C 5.734375 -12.828125 5.515625 -11.570312 5.515625 -10.0625 C 5.515625 -8.582031 5.75 -7.15625 6.21875 -5.78125 C 6.6875 -4.40625 7.347656 -3.285156 8.203125 -2.421875 C 9.066406 -1.566406 10.066406 -1.140625 11.203125 -1.140625 Z M 11.203125 -1.140625 "/></g></g></g><g fill="#000000" fill-opacity="1"><g transform="translate(276.602332, 166.026243)"><g><path d="M 7.53125 -4.34375 C 7.53125 -3.21875 7.8125 -2.40625 8.375 -1.90625 C 8.9375 -1.40625 9.800781 -1.097656 10.96875 -0.984375 C 10.96875 -0.785156 10.957031 -0.585938 10.9375 -0.390625 C 10.925781 -0.191406 10.921875 -0.0625 10.921875 0 L 0.859375 0 L 0.84375 -0.625 C 0.84375 -0.832031 0.847656 -0.976562 0.859375 -1.0625 C 1.617188 -1.238281 2.1875 -1.398438 2.5625 -1.546875 C 2.945312 -1.691406 3.265625 -1.925781 3.515625 -2.25 C 3.765625 -2.570312 3.890625 -3.023438 3.890625 -3.609375 L 3.890625 -14.203125 C 3.734375 -14.503906 3.425781 -14.773438 2.96875 -15.015625 C 2.507812 -15.265625 2.03125 -15.46875 1.53125 -15.625 C 1.03125 -15.789062 0.78125 -15.867188 0.78125 -15.859375 L 0.84375 -16.515625 L 6.171875 -17.84375 L 7.375 -17.921875 L 7.578125 -14.75 C 8.296875 -15.71875 9.210938 -16.515625 10.328125 -17.140625 C 11.441406 -17.773438 12.644531 -18.09375 13.9375 -18.09375 C 15.820312 -18.09375 17.285156 -17.554688 18.328125 -16.484375 C 19.367188 -15.421875 19.9375 -13.828125 20.03125 -11.703125 C 20.070312 -10.867188 20.09375 -10.015625 20.09375 -9.140625 L 20.09375 -4.78125 C 20.09375 -3.832031 20.148438 -3.144531 20.265625 -2.71875 C 20.390625 -2.289062 20.578125 -1.992188 20.828125 -1.828125 C 21.078125 -1.660156 21.503906 -1.488281 22.109375 -1.3125 L 22.921875 -1.0625 C 22.941406 -0.976562 22.953125 -0.832031 22.953125 -0.625 L 22.921875 0 L 13.296875 0 C 13.296875 -0.0820312 13.285156 -0.21875 13.265625 -0.40625 C 13.253906 -0.59375 13.25 -0.785156 13.25 -0.984375 C 13.34375 -1.015625 13.601562 -1.09375 14.03125 -1.21875 C 14.726562 -1.40625 15.265625 -1.609375 15.640625 -1.828125 C 16.023438 -2.054688 16.257812 -2.414062 16.34375 -2.90625 C 16.40625 -3.289062 16.4375 -3.796875 16.4375 -4.421875 L 16.4375 -8.78125 C 16.4375 -10.507812 16.375 -11.84375 16.25 -12.78125 C 16.125 -13.71875 15.796875 -14.484375 15.265625 -15.078125 C 14.742188 -15.679688 13.894531 -15.984375 12.71875 -15.984375 C 11.800781 -15.984375 10.914062 -15.71875 10.0625 -15.1875 C 9.207031 -14.65625 8.363281 -13.945312 7.53125 -13.0625 Z M 7.53125 -4.34375 "/></g></g></g></svg>