<svg xmlns="http://www.w3.org/2000/svg" xmlns:xlink="http://www.w3.org/1999/xlink" width="500" zoomAndPan="magnify" viewBox="0 0 375 374.999991" height="500" preserveAspectRatio="xMidYMid meet" version="1.0"><defs><clipPath id="960cea564b"><path d="M 247 166 L 276 166 L 276 198.484375 L 247 198.484375 Z M 247 166 " clip-rule="nonzero"/></clipPath><clipPath id="3fa3617048"><path d="M 99 148.234375 L 239 148.234375 L 239 198.484375 L 99 198.484375 Z M 99 148.234375 " clip-rule="nonzero"/></clipPath><clipPath id="01afc1aaab"><path d="M 136 166 L 227 166 L 227 198.484375 L 136 198.484375 Z M 136 166 " clip-rule="nonzero"/></clipPath></defs><g clip-path="url(#960cea564b)"><path fill="#83cd29" d="M 261.417969 166.023438 C 260.988281 166.023438 260.570312 166.109375 260.199219 166.320312 L 248.496094 173.117188 C 247.738281 173.554688 247.277344 174.386719 247.277344 175.265625 L 247.277344 188.835938 C 247.277344 189.714844 247.738281 190.542969 248.496094 190.984375 L 251.550781 192.753906 C 253.035156 193.492188 253.582031 193.480469 254.257812 193.480469 C 256.457031 193.480469 257.714844 192.136719 257.714844 189.804688 L 257.714844 176.417969 C 257.714844 176.230469 257.550781 176.09375 257.367188 176.09375 L 255.898438 176.09375 C 255.710938 176.09375 255.550781 176.234375 255.550781 176.417969 L 255.550781 189.8125 C 255.550781 190.84375 254.480469 191.882812 252.742188 191.011719 L 249.566406 189.136719 C 249.453125 189.074219 249.367188 188.964844 249.367188 188.835938 L 249.367188 175.269531 C 249.367188 175.140625 249.453125 175.007812 249.566406 174.945312 L 261.246094 168.171875 C 261.355469 168.109375 261.484375 168.109375 261.59375 168.171875 L 273.273438 174.945312 C 273.386719 175.011719 273.472656 175.136719 273.472656 175.269531 L 273.472656 188.835938 C 273.472656 188.96875 273.40625 189.097656 273.296875 189.160156 L 261.59375 195.933594 C 261.492188 195.992188 261.351562 195.992188 261.246094 195.933594 L 258.238281 194.136719 C 258.148438 194.082031 258.027344 194.085938 257.941406 194.136719 C 257.113281 194.609375 256.957031 194.664062 256.175781 194.933594 C 255.984375 195 255.695312 195.105469 256.277344 195.433594 L 260.203125 197.761719 C 260.578125 197.980469 260.992188 198.085938 261.421875 198.085938 C 261.855469 198.085938 262.265625 197.980469 262.636719 197.761719 L 274.34375 190.988281 C 275.101562 190.546875 275.5625 189.722656 275.5625 188.839844 L 275.5625 175.273438 C 275.5625 174.390625 275.101562 173.5625 274.34375 173.125 L 262.636719 166.328125 C 262.273438 166.117188 261.851562 166.027344 261.421875 166.027344 Z M 264.546875 175.71875 C 261.214844 175.71875 259.230469 177.144531 259.230469 179.515625 C 259.230469 182.085938 261.199219 182.792969 264.398438 183.113281 C 268.226562 183.488281 268.523438 184.054688 268.523438 184.8125 C 268.523438 186.125 267.480469 186.6875 265.019531 186.6875 C 261.925781 186.6875 261.246094 185.910156 261.019531 184.359375 C 260.992188 184.191406 260.863281 184.058594 260.695312 184.058594 L 259.175781 184.058594 C 259.082031 184.0625 259 184.097656 258.933594 184.164062 C 258.867188 184.230469 258.832031 184.3125 258.828125 184.410156 C 258.828125 186.390625 259.898438 188.730469 265.015625 188.730469 C 268.71875 188.730469 270.855469 187.273438 270.855469 184.707031 C 270.855469 182.171875 269.128906 181.488281 265.539062 181.011719 C 261.910156 180.523438 261.5625 180.292969 261.5625 179.4375 C 261.5625 178.730469 261.855469 177.785156 264.542969 177.785156 C 266.945312 177.785156 267.832031 178.308594 268.199219 179.933594 C 268.230469 180.089844 268.363281 180.214844 268.519531 180.214844 L 270.039062 180.214844 C 270.132812 180.214844 270.222656 180.15625 270.289062 180.089844 C 270.351562 180.015625 270.398438 179.933594 270.386719 179.839844 C 270.152344 177.035156 268.292969 175.714844 264.546875 175.714844 Z M 264.546875 175.71875 " fill-opacity="1" fill-rule="nonzero"/></g><g clip-path="url(#3fa3617048)"><path fill="#404137" d="M 192.605469 148.234375 C 192.472656 148.234375 192.347656 148.269531 192.234375 148.335938 C 191.984375 148.480469 191.863281 148.695312 191.859375 148.984375 L 191.859375 168.101562 C 191.859375 168.289062 191.773438 168.457031 191.613281 168.550781 C 191.4375 168.652344 191.265625 168.652344 191.089844 168.550781 L 187.984375 166.75 C 187.753906 166.617188 187.503906 166.550781 187.238281 166.550781 C 186.972656 166.550781 186.722656 166.617188 186.492188 166.75 L 174.09375 173.945312 C 173.628906 174.214844 173.347656 174.734375 173.347656 175.269531 L 173.347656 189.664062 C 173.347656 189.929688 173.414062 190.179688 173.546875 190.414062 C 173.679688 190.644531 173.863281 190.828125 174.09375 190.960938 L 186.492188 198.160156 C 186.722656 198.292969 186.972656 198.359375 187.238281 198.359375 C 187.503906 198.359375 187.753906 198.292969 187.984375 198.160156 L 200.382812 190.960938 C 200.617188 190.828125 200.796875 190.644531 200.929688 190.414062 C 201.0625 190.179688 201.128906 189.929688 201.128906 189.664062 L 201.128906 153.78125 C 201.128906 153.234375 200.835938 152.722656 200.359375 152.457031 L 192.980469 148.308594 C 192.863281 148.242188 192.734375 148.230469 192.605469 148.234375 Z M 112.835938 166.199219 C 112.601562 166.210938 112.378906 166.25 112.164062 166.375 L 99.765625 173.570312 C 99.535156 173.703125 99.351562 173.886719 99.21875 174.121094 C 99.085938 174.351562 99.019531 174.601562 99.019531 174.871094 L 99.046875 194.1875 C 99.046875 194.453125 99.183594 194.703125 99.417969 194.835938 C 99.648438 194.972656 99.933594 194.972656 100.164062 194.835938 L 107.519531 190.585938 C 107.984375 190.308594 108.289062 189.824219 108.289062 189.289062 L 108.289062 180.265625 C 108.289062 179.730469 108.570312 179.234375 109.035156 178.96875 L 112.167969 177.144531 C 112.398438 177.011719 112.644531 176.941406 112.914062 176.945312 C 113.179688 176.941406 113.425781 177.007812 113.65625 177.144531 L 116.789062 178.96875 C 117.25 179.234375 117.535156 179.730469 117.535156 180.265625 L 117.535156 189.285156 C 117.535156 189.824219 117.84375 190.3125 118.304688 190.585938 L 125.660156 194.832031 C 125.890625 194.972656 126.175781 194.972656 126.40625 194.832031 C 126.632812 194.699219 126.777344 194.453125 126.777344 194.183594 L 126.800781 174.871094 C 126.804688 174.601562 126.738281 174.351562 126.605469 174.117188 C 126.472656 173.886719 126.289062 173.703125 126.058594 173.570312 L 113.65625 166.375 C 113.449219 166.253906 113.222656 166.210938 112.984375 166.203125 L 112.835938 166.203125 Z M 224.261719 166.375 C 223.996094 166.375 223.75 166.441406 223.519531 166.574219 L 211.117188 173.773438 C 210.65625 174.039062 210.371094 174.53125 210.371094 175.070312 L 210.371094 189.460938 C 210.371094 190.003906 210.675781 190.496094 211.140625 190.761719 L 223.441406 197.8125 C 223.898438 198.070312 224.453125 198.089844 224.910156 197.835938 L 232.363281 193.664062 C 232.601562 193.53125 232.761719 193.285156 232.761719 193.011719 C 232.761719 192.742188 232.621094 192.5 232.386719 192.363281 L 219.914062 185.167969 C 219.679688 185.035156 219.515625 184.761719 219.515625 184.492188 L 219.515625 179.992188 C 219.515625 179.722656 219.679688 179.476562 219.914062 179.34375 L 223.789062 177.09375 C 224.019531 176.960938 224.304688 176.960938 224.535156 177.09375 L 228.421875 179.34375 C 228.671875 179.488281 228.792969 179.703125 228.792969 179.992188 L 228.792969 183.539062 C 228.792969 183.828125 228.917969 184.046875 229.167969 184.191406 C 229.398438 184.324219 229.679688 184.324219 229.914062 184.191406 L 237.339844 179.84375 C 237.800781 179.574219 238.085938 179.078125 238.085938 178.542969 L 238.085938 175.070312 C 238.085938 174.800781 238.019531 174.550781 237.886719 174.320312 C 237.753906 174.089844 237.574219 173.90625 237.34375 173.769531 L 225.015625 166.574219 C 224.785156 166.441406 224.535156 166.375 224.269531 166.375 Z M 187.1875 177.121094 C 187.257812 177.121094 187.324219 177.136719 187.386719 177.167969 L 191.636719 179.644531 C 191.75 179.710938 191.835938 179.835938 191.835938 179.96875 L 191.835938 184.914062 C 191.835938 185.050781 191.75 185.171875 191.636719 185.238281 L 187.386719 187.714844 C 187.269531 187.78125 187.128906 187.78125 187.011719 187.714844 L 182.765625 185.238281 C 182.648438 185.171875 182.566406 185.050781 182.566406 184.914062 L 182.566406 179.96875 C 182.566406 179.835938 182.648438 179.710938 182.765625 179.644531 L 187.011719 177.171875 C 187.070312 177.136719 187.121094 177.121094 187.1875 177.121094 Z M 187.1875 177.121094 " fill-opacity="1" fill-rule="nonzero"/></g><g clip-path="url(#01afc1aaab)"><path fill="#83cd29" d="M 150.085938 166.300781 C 149.820312 166.300781 149.570312 166.367188 149.339844 166.5 L 136.941406 173.671875 C 136.476562 173.941406 136.195312 174.457031 136.195312 174.996094 L 136.195312 189.386719 C 136.195312 189.65625 136.261719 189.90625 136.394531 190.136719 C 136.527344 190.371094 136.707031 190.554688 136.941406 190.6875 L 149.339844 197.882812 C 149.570312 198.015625 149.820312 198.085938 150.085938 198.085938 C 150.351562 198.085938 150.601562 198.015625 150.832031 197.882812 L 163.230469 190.6875 C 163.460938 190.554688 163.644531 190.371094 163.777344 190.136719 C 163.910156 189.90625 163.976562 189.65625 163.976562 189.386719 L 163.976562 174.996094 C 163.976562 174.457031 163.695312 173.941406 163.230469 173.671875 L 150.832031 166.5 C 150.601562 166.367188 150.351562 166.300781 150.085938 166.300781 Z M 224.238281 179.144531 C 224.191406 179.144531 224.136719 179.144531 224.089844 179.167969 L 221.703125 180.566406 C 221.605469 180.621094 221.558594 180.703125 221.554688 180.816406 L 221.554688 183.566406 C 221.554688 183.667969 221.617188 183.761719 221.703125 183.816406 L 224.089844 185.191406 C 224.179688 185.246094 224.273438 185.246094 224.363281 185.191406 L 226.75 183.816406 C 226.835938 183.765625 226.898438 183.667969 226.898438 183.566406 L 226.898438 180.816406 C 226.898438 180.714844 226.835938 180.617188 226.75 180.566406 L 224.363281 179.167969 C 224.320312 179.140625 224.289062 179.144531 224.238281 179.144531 Z M 224.238281 179.144531 " fill-opacity="1" fill-rule="nonzero"/></g></svg>