<svg xmlns="http://www.w3.org/2000/svg" xmlns:xlink="http://www.w3.org/1999/xlink" width="500" zoomAndPan="magnify" viewBox="0 0 375 374.999991" height="500" preserveAspectRatio="xMidYMid meet" version="1.0"><defs><g/><clipPath id="d597dd7234"><path d="M 77.15625 130.8125 L 151.40625 130.8125 L 151.40625 205.0625 L 77.15625 205.0625 Z M 77.15625 130.8125 " clip-rule="nonzero"/></clipPath></defs><g clip-path="url(#d597dd7234)"><path fill="#001e36" d="M 90.417969 130.8125 L 138.414062 130.8125 C 145.574219 130.8125 151.40625 136.777344 151.40625 144.203125 C 151.40625 144.203125 151.40625 144.203125 151.40625 144.335938 L 151.40625 191.539062 C 151.40625 199.097656 145.441406 205.0625 138.148438 205.0625 L 90.417969 205.0625 C 83.125 205.0625 77.15625 199.097656 77.15625 191.539062 L 77.15625 144.335938 C 77.15625 136.910156 82.859375 130.8125 90.019531 130.8125 C 90.019531 130.8125 90.285156 130.8125 90.285156 130.8125 Z M 90.417969 130.8125 " fill-opacity="1" fill-rule="nonzero"/></g><path fill="#31a8ff" d="M 93.863281 182.921875 L 93.863281 150.171875 C 93.863281 149.90625 93.863281 149.640625 94.128906 149.640625 L 103.808594 149.640625 C 105.929688 149.640625 108.050781 149.90625 110.039062 150.566406 C 111.628906 151.097656 112.957031 151.894531 114.148438 152.953125 C 115.210938 154.015625 116.007812 155.207031 116.402344 156.535156 C 116.800781 157.859375 117.066406 159.1875 117.066406 160.644531 C 117.066406 163.03125 116.535156 165.417969 115.210938 167.40625 C 114.015625 169.128906 112.292969 170.457031 110.304688 171.253906 C 108.050781 172.046875 105.664062 172.445312 103.410156 172.445312 L 100.359375 172.445312 L 100.359375 182.789062 C 100.359375 182.921875 100.359375 183.183594 100.09375 183.316406 L 94.128906 183.316406 C 93.863281 183.582031 93.730469 183.316406 93.730469 183.050781 Z M 100.625 155.871094 L 100.625 166.613281 L 103.410156 166.613281 C 104.601562 166.613281 105.796875 166.347656 106.855469 166.082031 C 107.785156 165.816406 108.714844 165.152344 109.375 164.359375 C 110.039062 163.429688 110.4375 162.234375 110.304688 161.042969 C 110.304688 159.980469 110.039062 159.054688 109.640625 158.125 C 109.109375 157.332031 108.316406 156.667969 107.519531 156.269531 C 106.328125 155.738281 105.132812 155.472656 103.808594 155.605469 L 101.6875 155.605469 C 101.289062 155.605469 100.890625 155.605469 100.492188 155.871094 Z M 100.625 155.871094 " fill-opacity="1" fill-rule="nonzero"/><path fill="#31a8ff" d="M 136.558594 164.488281 C 135.628906 163.960938 134.570312 163.5625 133.507812 163.296875 C 132.3125 163.03125 131.253906 162.898438 130.058594 162.765625 C 129.398438 162.765625 128.867188 162.765625 128.203125 163.03125 C 127.804688 163.03125 127.542969 163.296875 127.277344 163.695312 C 127.011719 163.960938 127.011719 164.226562 127.011719 164.621094 C 127.011719 164.886719 127.011719 165.152344 127.277344 165.285156 C 127.671875 165.683594 128.070312 165.949219 128.46875 166.214844 C 129.132812 166.613281 129.796875 167.007812 130.589844 167.140625 C 132.183594 167.671875 133.773438 168.46875 135.230469 169.527344 C 136.160156 170.324219 137.085938 171.121094 137.75 172.179688 C 138.28125 173.242188 138.414062 174.433594 138.414062 175.496094 C 138.414062 176.953125 138.015625 178.542969 137.21875 179.871094 C 136.292969 181.0625 135.097656 182.125 133.773438 182.789062 C 132.050781 183.449219 130.058594 183.847656 128.203125 183.714844 C 126.746094 183.714844 125.417969 183.449219 124.09375 183.183594 C 123.03125 182.921875 121.839844 182.65625 120.910156 182.257812 C 120.648438 182.257812 120.515625 181.726562 120.515625 181.59375 L 120.515625 176.027344 L 120.777344 175.761719 L 121.042969 175.761719 C 122.238281 176.421875 123.5625 177.085938 125.023438 177.484375 C 126.214844 177.75 127.542969 177.882812 128.734375 178.015625 C 129.664062 178.015625 130.457031 177.882812 131.253906 177.484375 C 131.785156 177.21875 132.183594 176.6875 132.183594 176.027344 C 132.183594 175.496094 131.917969 175.097656 131.519531 174.832031 C 130.589844 174.167969 129.53125 173.640625 128.46875 173.375 C 126.878906 172.84375 125.417969 172.046875 124.09375 170.988281 C 123.164062 170.324219 122.371094 169.394531 121.839844 168.335938 C 121.308594 167.273438 121.175781 166.082031 121.175781 165.019531 C 121.175781 163.695312 121.574219 162.367188 122.371094 161.175781 C 123.164062 159.847656 124.226562 158.789062 125.550781 158.257812 C 127.277344 157.464844 129.265625 157.066406 131.121094 157.066406 C 132.445312 157.066406 133.773438 157.066406 135.097656 157.332031 C 136.027344 157.332031 136.953125 157.726562 137.882812 157.992188 L 138.148438 158.257812 L 138.148438 163.960938 L 137.882812 164.226562 L 136.953125 164.226562 Z M 136.558594 164.488281 " fill-opacity="1" fill-rule="nonzero"/><g fill="#000000" fill-opacity="1"><g transform="translate(158.64395, 180.005028)"><g><path d="M 5.46875 -20.15625 C 5.46875 -21.132812 5.382812 -21.859375 5.21875 -22.328125 C 5.0625 -22.796875 4.835938 -23.117188 4.546875 -23.296875 C 4.253906 -23.484375 3.78125 -23.664062 3.125 -23.84375 C 2.476562 -24.03125 1.882812 -24.234375 1.34375 -24.453125 L 1.390625 -25.453125 L 11.078125 -25.453125 C 13.523438 -25.453125 15.664062 -25.316406 17.5 -25.046875 C 19.34375 -24.773438 20.945312 -24.125 22.3125 -23.09375 C 23.6875 -22.0625 24.375 -20.484375 24.375 -18.359375 C 24.375 -16.660156 23.96875 -15.238281 23.15625 -14.09375 C 22.351562 -12.945312 21.269531 -12.097656 19.90625 -11.546875 C 18.539062 -10.992188 17.023438 -10.71875 15.359375 -10.71875 C 15.054688 -10.71875 14.570312 -10.769531 13.90625 -10.875 C 13.25 -10.976562 12.648438 -11.125 12.109375 -11.3125 C 11.566406 -11.507812 11.296875 -11.738281 11.296875 -12 C 11.296875 -12.238281 11.582031 -12.359375 12.15625 -12.359375 L 12.453125 -12.359375 C 14.023438 -12.359375 15.335938 -12.492188 16.390625 -12.765625 C 17.441406 -13.046875 18.273438 -13.609375 18.890625 -14.453125 C 19.503906 -15.296875 19.8125 -16.503906 19.8125 -18.078125 C 19.8125 -19.523438 19.414062 -20.691406 18.625 -21.578125 C 17.832031 -22.472656 16.816406 -23.113281 15.578125 -23.5 C 14.335938 -23.882812 13.007812 -24.078125 11.59375 -24.078125 C 11.019531 -24.078125 10.382812 -24.046875 9.6875 -23.984375 L 9.6875 -5.375 C 9.6875 -4.269531 9.757812 -3.46875 9.90625 -2.96875 C 10.050781 -2.476562 10.257812 -2.15625 10.53125 -2 C 10.8125 -1.84375 11.265625 -1.710938 11.890625 -1.609375 C 12.734375 -1.460938 13.476562 -1.265625 14.125 -1.015625 L 14.09375 0 L 1.390625 0 L 1.328125 -1.015625 L 1.953125 -1.1875 C 2.722656 -1.394531 3.335938 -1.597656 3.796875 -1.796875 C 4.265625 -2.003906 4.660156 -2.3125 4.984375 -2.71875 C 5.304688 -3.125 5.46875 -3.664062 5.46875 -4.34375 Z M 5.46875 -20.15625 "/></g></g></g><g fill="#000000" fill-opacity="1"><g transform="translate(184.144681, 180.005028)"><g><path d="M 20.3125 -4.3125 C 20.3125 -3.3125 20.566406 -2.523438 21.078125 -1.953125 C 21.597656 -1.390625 22.332031 -1.066406 23.28125 -0.984375 C 23.28125 -0.785156 23.269531 -0.59375 23.25 -0.40625 C 23.238281 -0.21875 23.234375 -0.0820312 23.234375 0 L 13.625 0 C 13.625 -0.0820312 13.613281 -0.21875 13.59375 -0.40625 C 13.582031 -0.59375 13.578125 -0.785156 13.578125 -0.984375 C 13.804688 -1.085938 14.238281 -1.234375 14.875 -1.421875 C 15.375 -1.578125 15.734375 -1.722656 15.953125 -1.859375 C 16.179688 -2.003906 16.359375 -2.25 16.484375 -2.59375 C 16.609375 -2.945312 16.671875 -3.476562 16.671875 -4.1875 L 16.671875 -11.28125 C 16.671875 -12.707031 16.367188 -13.847656 15.765625 -14.703125 C 15.160156 -15.554688 14.210938 -15.984375 12.921875 -15.984375 C 11.992188 -15.984375 11.097656 -15.738281 10.234375 -15.25 C 9.367188 -14.757812 8.570312 -14.132812 7.84375 -13.375 L 7.84375 -4.546875 C 7.84375 -3.378906 8.109375 -2.519531 8.640625 -1.96875 C 9.171875 -1.425781 10.046875 -1.097656 11.265625 -0.984375 L 11.234375 0 L 0.828125 0 C 0.828125 -0.0820312 0.816406 -0.21875 0.796875 -0.40625 C 0.785156 -0.59375 0.78125 -0.785156 0.78125 -0.984375 C 3.0625 -1.160156 4.203125 -2.347656 4.203125 -4.546875 L 4.203125 -22.75 C 4.066406 -22.945312 3.773438 -23.1875 3.328125 -23.46875 C 2.890625 -23.75 2.425781 -24 1.9375 -24.21875 C 1.457031 -24.4375 1.097656 -24.5625 0.859375 -24.59375 L 0.859375 -25.28125 L 6.453125 -26.765625 L 7.84375 -26.890625 L 7.84375 -15.015625 C 8.863281 -16.046875 9.867188 -16.816406 10.859375 -17.328125 C 11.859375 -17.835938 13.007812 -18.09375 14.3125 -18.09375 C 16.125 -18.09375 17.578125 -17.515625 18.671875 -16.359375 C 19.765625 -15.210938 20.3125 -13.460938 20.3125 -11.109375 Z M 20.3125 -4.3125 "/></g></g></g><g fill="#000000" fill-opacity="1"><g transform="translate(207.925823, 180.005028)"><g><path d="M 10.734375 -18.09375 C 12.460938 -18.09375 14.039062 -17.71875 15.46875 -16.96875 C 16.894531 -16.226562 18.023438 -15.160156 18.859375 -13.765625 C 19.691406 -12.378906 20.109375 -10.769531 20.109375 -8.9375 C 20.109375 -7.09375 19.691406 -5.460938 18.859375 -4.046875 C 18.023438 -2.640625 16.910156 -1.546875 15.515625 -0.765625 C 14.117188 0.00390625 12.597656 0.390625 10.953125 0.390625 C 9.304688 0.390625 7.765625 -0.00390625 6.328125 -0.796875 C 4.898438 -1.597656 3.753906 -2.703125 2.890625 -4.109375 C 2.035156 -5.523438 1.609375 -7.125 1.609375 -8.90625 C 1.609375 -10.695312 2.023438 -12.289062 2.859375 -13.6875 C 3.691406 -15.09375 4.804688 -16.175781 6.203125 -16.9375 C 7.609375 -17.707031 9.117188 -18.09375 10.734375 -18.09375 Z M 11.203125 -1.140625 C 12.859375 -1.140625 14.113281 -1.726562 14.96875 -2.90625 C 15.832031 -4.09375 16.265625 -5.648438 16.265625 -7.578125 C 16.265625 -9.253906 16.03125 -10.789062 15.5625 -12.1875 C 15.101562 -13.582031 14.441406 -14.695312 13.578125 -15.53125 C 12.722656 -16.375 11.734375 -16.796875 10.609375 -16.796875 C 9.617188 -16.796875 8.742188 -16.550781 7.984375 -16.0625 C 7.222656 -15.582031 6.617188 -14.835938 6.171875 -13.828125 C 5.734375 -12.828125 5.515625 -11.570312 5.515625 -10.0625 C 5.515625 -8.582031 5.75 -7.15625 6.21875 -5.78125 C 6.6875 -4.40625 7.347656 -3.285156 8.203125 -2.421875 C 9.066406 -1.566406 10.066406 -1.140625 11.203125 -1.140625 Z M 11.203125 -1.140625 "/></g></g></g><g fill="#000000" fill-opacity="1"><g transform="translate(229.635641, 180.005028)"><g><path d="M 7.171875 -6.140625 C 7.171875 -4.804688 7.21875 -3.851562 7.3125 -3.28125 C 7.40625 -2.71875 7.625 -2.3125 7.96875 -2.0625 C 8.320312 -1.8125 8.914062 -1.6875 9.75 -1.6875 C 10.25 -1.6875 10.742188 -1.726562 11.234375 -1.8125 C 11.734375 -1.90625 12.148438 -2.003906 12.484375 -2.109375 L 12.640625 -0.6875 C 11.984375 -0.363281 11.3125 -0.101562 10.625 0.09375 C 9.945312 0.289062 9.132812 0.390625 8.1875 0.390625 C 6.925781 0.390625 5.960938 0.179688 5.296875 -0.234375 C 4.628906 -0.648438 4.164062 -1.320312 3.90625 -2.25 C 3.644531 -3.1875 3.515625 -4.503906 3.515625 -6.203125 L 3.515625 -16.109375 L 0.609375 -16.109375 L 0.609375 -16.796875 C 1.492188 -17.140625 2.238281 -17.550781 2.84375 -18.03125 C 3.445312 -18.507812 3.941406 -19 4.328125 -19.5 C 4.722656 -20.007812 5.195312 -20.679688 5.75 -21.515625 C 5.976562 -21.898438 6.15625 -22.148438 6.28125 -22.265625 C 6.414062 -22.390625 6.550781 -22.453125 6.6875 -22.453125 C 6.8125 -22.453125 6.914062 -22.390625 7 -22.265625 C 7.09375 -22.148438 7.140625 -21.960938 7.140625 -21.703125 L 7.140625 -17.578125 L 12.046875 -17.578125 L 12.046875 -16.109375 L 7.171875 -16.109375 Z M 7.171875 -6.140625 "/></g></g></g><g fill="#000000" fill-opacity="1"><g transform="translate(243.001539, 180.005028)"><g><path d="M 10.734375 -18.09375 C 12.460938 -18.09375 14.039062 -17.71875 15.46875 -16.96875 C 16.894531 -16.226562 18.023438 -15.160156 18.859375 -13.765625 C 19.691406 -12.378906 20.109375 -10.769531 20.109375 -8.9375 C 20.109375 -7.09375 19.691406 -5.460938 18.859375 -4.046875 C 18.023438 -2.640625 16.910156 -1.546875 15.515625 -0.765625 C 14.117188 0.00390625 12.597656 0.390625 10.953125 0.390625 C 9.304688 0.390625 7.765625 -0.00390625 6.328125 -0.796875 C 4.898438 -1.597656 3.753906 -2.703125 2.890625 -4.109375 C 2.035156 -5.523438 1.609375 -7.125 1.609375 -8.90625 C 1.609375 -10.695312 2.023438 -12.289062 2.859375 -13.6875 C 3.691406 -15.09375 4.804688 -16.175781 6.203125 -16.9375 C 7.609375 -17.707031 9.117188 -18.09375 10.734375 -18.09375 Z M 11.203125 -1.140625 C 12.859375 -1.140625 14.113281 -1.726562 14.96875 -2.90625 C 15.832031 -4.09375 16.265625 -5.648438 16.265625 -7.578125 C 16.265625 -9.253906 16.03125 -10.789062 15.5625 -12.1875 C 15.101562 -13.582031 14.441406 -14.695312 13.578125 -15.53125 C 12.722656 -16.375 11.734375 -16.796875 10.609375 -16.796875 C 9.617188 -16.796875 8.742188 -16.550781 7.984375 -16.0625 C 7.222656 -15.582031 6.617188 -14.835938 6.171875 -13.828125 C 5.734375 -12.828125 5.515625 -11.570312 5.515625 -10.0625 C 5.515625 -8.582031 5.75 -7.15625 6.21875 -5.78125 C 6.6875 -4.40625 7.347656 -3.285156 8.203125 -2.421875 C 9.066406 -1.566406 10.066406 -1.140625 11.203125 -1.140625 Z M 11.203125 -1.140625 "/></g></g></g><g fill="#000000" fill-opacity="1"><g transform="translate(264.711357, 180.005028)"><g><path d="M 13.5 -12.328125 C 13.320312 -12.316406 13.019531 -12.3125 12.59375 -12.3125 C 12.207031 -13.625 11.632812 -14.695312 10.875 -15.53125 C 10.113281 -16.375 9.140625 -16.796875 7.953125 -16.796875 C 7.128906 -16.796875 6.476562 -16.59375 6 -16.1875 C 5.53125 -15.78125 5.296875 -15.191406 5.296875 -14.421875 C 5.296875 -13.890625 5.488281 -13.394531 5.875 -12.9375 C 6.269531 -12.476562 6.75 -12.078125 7.3125 -11.734375 C 7.882812 -11.390625 8.632812 -10.984375 9.5625 -10.515625 C 9.78125 -10.410156 10.113281 -10.242188 10.5625 -10.015625 C 12.019531 -9.222656 13.082031 -8.421875 13.75 -7.609375 C 14.414062 -6.796875 14.75 -5.800781 14.75 -4.625 C 14.75 -3.550781 14.484375 -2.640625 13.953125 -1.890625 C 13.421875 -1.140625 12.6875 -0.570312 11.75 -0.1875 C 10.8125 0.195312 9.734375 0.390625 8.515625 0.390625 C 7.453125 0.390625 6.375 0.257812 5.28125 0 C 4.1875 -0.25 3.285156 -0.585938 2.578125 -1.015625 L 2.578125 -5.78125 C 3.085938 -5.851562 3.429688 -5.890625 3.609375 -5.890625 C 3.910156 -4.441406 4.441406 -3.257812 5.203125 -2.34375 C 5.972656 -1.4375 7.019531 -0.984375 8.34375 -0.984375 C 9.289062 -0.984375 10.082031 -1.21875 10.71875 -1.6875 C 11.351562 -2.164062 11.671875 -2.796875 11.671875 -3.578125 C 11.671875 -4.066406 11.523438 -4.5 11.234375 -4.875 C 10.953125 -5.257812 10.582031 -5.59375 10.125 -5.875 C 9.664062 -6.164062 8.984375 -6.550781 8.078125 -7.03125 C 6.847656 -7.6875 5.914062 -8.21875 5.28125 -8.625 C 4.289062 -9.226562 3.539062 -9.910156 3.03125 -10.671875 C 2.53125 -11.429688 2.28125 -12.332031 2.28125 -13.375 C 2.28125 -14.375 2.535156 -15.226562 3.046875 -15.9375 C 3.554688 -16.644531 4.25 -17.179688 5.125 -17.546875 C 6 -17.910156 6.984375 -18.09375 8.078125 -18.09375 C 9.078125 -18.09375 10.03125 -17.96875 10.9375 -17.71875 C 11.84375 -17.476562 12.660156 -17.128906 13.390625 -16.671875 Z M 13.5 -12.328125 "/></g></g></g><g fill="#000000" fill-opacity="1"><g transform="translate(281.399188, 180.005028)"><g><path d="M 20.3125 -4.3125 C 20.3125 -3.3125 20.566406 -2.523438 21.078125 -1.953125 C 21.597656 -1.390625 22.332031 -1.066406 23.28125 -0.984375 C 23.28125 -0.785156 23.269531 -0.59375 23.25 -0.40625 C 23.238281 -0.21875 23.234375 -0.0820312 23.234375 0 L 13.625 0 C 13.625 -0.0820312 13.613281 -0.21875 13.59375 -0.40625 C 13.582031 -0.59375 13.578125 -0.785156 13.578125 -0.984375 C 13.804688 -1.085938 14.238281 -1.234375 14.875 -1.421875 C 15.375 -1.578125 15.734375 -1.722656 15.953125 -1.859375 C 16.179688 -2.003906 16.359375 -2.25 16.484375 -2.59375 C 16.609375 -2.945312 16.671875 -3.476562 16.671875 -4.1875 L 16.671875 -11.28125 C 16.671875 -12.707031 16.367188 -13.847656 15.765625 -14.703125 C 15.160156 -15.554688 14.210938 -15.984375 12.921875 -15.984375 C 11.992188 -15.984375 11.097656 -15.738281 10.234375 -15.25 C 9.367188 -14.757812 8.570312 -14.132812 7.84375 -13.375 L 7.84375 -4.546875 C 7.84375 -3.378906 8.109375 -2.519531 8.640625 -1.96875 C 9.171875 -1.425781 10.046875 -1.097656 11.265625 -0.984375 L 11.234375 0 L 0.828125 0 C 0.828125 -0.0820312 0.816406 -0.21875 0.796875 -0.40625 C 0.785156 -0.59375 0.78125 -0.785156 0.78125 -0.984375 C 3.0625 -1.160156 4.203125 -2.347656 4.203125 -4.546875 L 4.203125 -22.75 C 4.066406 -22.945312 3.773438 -23.1875 3.328125 -23.46875 C 2.890625 -23.75 2.425781 -24 1.9375 -24.21875 C 1.457031 -24.4375 1.097656 -24.5625 0.859375 -24.59375 L 0.859375 -25.28125 L 6.453125 -26.765625 L 7.84375 -26.890625 L 7.84375 -15.015625 C 8.863281 -16.046875 9.867188 -16.816406 10.859375 -17.328125 C 11.859375 -17.835938 13.007812 -18.09375 14.3125 -18.09375 C 16.125 -18.09375 17.578125 -17.515625 18.671875 -16.359375 C 19.765625 -15.210938 20.3125 -13.460938 20.3125 -11.109375 Z M 20.3125 -4.3125 "/></g></g></g><g fill="#000000" fill-opacity="1"><g transform="translate(305.18033, 180.005028)"><g><path d="M 10.734375 -18.09375 C 12.460938 -18.09375 14.039062 -17.71875 15.46875 -16.96875 C 16.894531 -16.226562 18.023438 -15.160156 18.859375 -13.765625 C 19.691406 -12.378906 20.109375 -10.769531 20.109375 -8.9375 C 20.109375 -7.09375 19.691406 -5.460938 18.859375 -4.046875 C 18.023438 -2.640625 16.910156 -1.546875 15.515625 -0.765625 C 14.117188 0.00390625 12.597656 0.390625 10.953125 0.390625 C 9.304688 0.390625 7.765625 -0.00390625 6.328125 -0.796875 C 4.898438 -1.597656 3.753906 -2.703125 2.890625 -4.109375 C 2.035156 -5.523438 1.609375 -7.125 1.609375 -8.90625 C 1.609375 -10.695312 2.023438 -12.289062 2.859375 -13.6875 C 3.691406 -15.09375 4.804688 -16.175781 6.203125 -16.9375 C 7.609375 -17.707031 9.117188 -18.09375 10.734375 -18.09375 Z M 11.203125 -1.140625 C 12.859375 -1.140625 14.113281 -1.726562 14.96875 -2.90625 C 15.832031 -4.09375 16.265625 -5.648438 16.265625 -7.578125 C 16.265625 -9.253906 16.03125 -10.789062 15.5625 -12.1875 C 15.101562 -13.582031 14.441406 -14.695312 13.578125 -15.53125 C 12.722656 -16.375 11.734375 -16.796875 10.609375 -16.796875 C 9.617188 -16.796875 8.742188 -16.550781 7.984375 -16.0625 C 7.222656 -15.582031 6.617188 -14.835938 6.171875 -13.828125 C 5.734375 -12.828125 5.515625 -11.570312 5.515625 -10.0625 C 5.515625 -8.582031 5.75 -7.15625 6.21875 -5.78125 C 6.6875 -4.40625 7.347656 -3.285156 8.203125 -2.421875 C 9.066406 -1.566406 10.066406 -1.140625 11.203125 -1.140625 Z M 11.203125 -1.140625 "/></g></g></g><g fill="#000000" fill-opacity="1"><g transform="translate(326.890148, 180.005028)"><g><path d="M 7.65625 2.8125 C 7.65625 4.007812 7.9375 4.875 8.5 5.40625 C 9.070312 5.9375 9.992188 6.269531 11.265625 6.40625 C 11.265625 6.601562 11.253906 6.796875 11.234375 6.984375 C 11.222656 7.171875 11.21875 7.304688 11.21875 7.390625 L 0.921875 7.390625 C 0.921875 7.304688 0.910156 7.171875 0.890625 6.984375 C 0.878906 6.796875 0.875 6.601562 0.875 6.40625 C 1.90625 6.269531 2.6875 5.921875 3.21875 5.359375 C 3.757812 4.804688 4.03125 4.015625 4.03125 2.984375 L 4.03125 -13.953125 C 3.800781 -14.347656 3.378906 -14.707031 2.765625 -15.03125 C 2.148438 -15.351562 1.539062 -15.628906 0.9375 -15.859375 L 0.78125 -15.90625 L 0.78125 -16.578125 L 6.0625 -17.9375 L 7.390625 -17.9375 L 7.546875 -14.734375 C 8.503906 -15.804688 9.472656 -16.632812 10.453125 -17.21875 C 11.429688 -17.800781 12.546875 -18.09375 13.796875 -18.09375 C 15.273438 -18.09375 16.585938 -17.738281 17.734375 -17.03125 C 18.878906 -16.320312 19.769531 -15.304688 20.40625 -13.984375 C 21.039062 -12.660156 21.359375 -11.109375 21.359375 -9.328125 C 21.359375 -7.421875 20.96875 -5.734375 20.1875 -4.265625 C 19.414062 -2.804688 18.351562 -1.664062 17 -0.84375 C 15.644531 -0.03125 14.128906 0.375 12.453125 0.375 C 11.578125 0.375 10.734375 0.21875 9.921875 -0.09375 C 9.117188 -0.40625 8.363281 -0.863281 7.65625 -1.46875 Z M 7.65625 -6.78125 C 7.65625 -5.71875 7.851562 -4.769531 8.25 -3.9375 C 8.65625 -3.113281 9.238281 -2.460938 10 -1.984375 C 10.769531 -1.503906 11.6875 -1.265625 12.75 -1.265625 C 14.375 -1.265625 15.609375 -1.894531 16.453125 -3.15625 C 17.304688 -4.425781 17.734375 -6.160156 17.734375 -8.359375 C 17.734375 -9.941406 17.484375 -11.269531 16.984375 -12.34375 C 16.492188 -13.425781 15.84375 -14.234375 15.03125 -14.765625 C 14.21875 -15.296875 13.332031 -15.5625 12.375 -15.5625 C 10.832031 -15.5625 9.257812 -14.785156 7.65625 -13.234375 Z M 7.65625 -6.78125 "/></g></g></g></svg>