<svg xmlns="http://www.w3.org/2000/svg" xmlns:xlink="http://www.w3.org/1999/xlink" width="500" zoomAndPan="magnify" viewBox="0 0 375 374.999991" height="500" preserveAspectRatio="xMidYMid meet" version="1.0"><defs><clipPath id="e910257d4a"><path d="M 69.984375 135 L 194 135 L 194 221 L 69.984375 221 Z M 69.984375 135 " clip-rule="nonzero"/></clipPath><clipPath id="0f0be5d19e"><path d="M 69.984375 131.035156 L 175 131.035156 L 175 224.785156 L 69.984375 224.785156 Z M 69.984375 131.035156 " clip-rule="nonzero"/></clipPath></defs><path fill="#00d8ff" d="M 130.441406 177.824219 C 130.441406 178.417969 130.382812 179.003906 130.269531 179.582031 C 130.152344 180.160156 129.984375 180.722656 129.757812 181.269531 C 129.53125 181.816406 129.253906 182.335938 128.929688 182.828125 C 128.601562 183.316406 128.230469 183.773438 127.8125 184.191406 C 127.394531 184.609375 126.941406 184.980469 126.453125 185.308594 C 125.960938 185.636719 125.445312 185.914062 124.902344 186.140625 C 124.355469 186.367188 123.796875 186.539062 123.21875 186.652344 C 122.640625 186.769531 122.054688 186.828125 121.464844 186.828125 C 120.878906 186.828125 120.292969 186.769531 119.714844 186.652344 C 119.136719 186.539062 118.578125 186.367188 118.03125 186.140625 C 117.488281 185.914062 116.96875 185.636719 116.480469 185.308594 C 115.992188 184.980469 115.535156 184.609375 115.121094 184.191406 C 114.703125 183.773438 114.332031 183.316406 114.003906 182.828125 C 113.675781 182.335938 113.402344 181.816406 113.175781 181.269531 C 112.949219 180.722656 112.78125 180.160156 112.664062 179.582031 C 112.550781 179.003906 112.492188 178.417969 112.492188 177.824219 C 112.492188 177.234375 112.550781 176.648438 112.664062 176.070312 C 112.78125 175.492188 112.949219 174.925781 113.175781 174.382812 C 113.402344 173.835938 113.675781 173.316406 114.003906 172.824219 C 114.332031 172.332031 114.703125 171.878906 115.121094 171.460938 C 115.535156 171.042969 115.992188 170.671875 116.480469 170.34375 C 116.96875 170.015625 117.488281 169.738281 118.03125 169.511719 C 118.578125 169.285156 119.136719 169.113281 119.714844 168.996094 C 120.292969 168.882812 120.878906 168.824219 121.464844 168.824219 C 122.054688 168.824219 122.640625 168.882812 123.21875 168.996094 C 123.796875 169.113281 124.355469 169.285156 124.902344 169.511719 C 125.445312 169.738281 125.960938 170.011719 126.453125 170.34375 C 126.941406 170.671875 127.394531 171.042969 127.8125 171.460938 C 128.230469 171.878906 128.601562 172.332031 128.929688 172.824219 C 129.253906 173.316406 129.53125 173.835938 129.757812 174.382812 C 129.984375 174.925781 130.152344 175.492188 130.269531 176.070312 C 130.382812 176.648438 130.441406 177.234375 130.441406 177.824219 Z M 130.441406 177.824219 " fill-opacity="1" fill-rule="nonzero"/><g clip-path="url(#e910257d4a)"><path stroke-linecap="butt" transform="matrix(0.178889, 0, 0, 0.17942, 73.250265, 135.190494)" fill="none" stroke-linejoin="miter" d="M 269.522242 135.620095 C 336.886796 135.620095 399.469231 145.286665 446.635337 161.528244 C 503.474862 181.10087 538.434555 210.775498 538.434555 237.619824 C 538.434555 265.618042 501.400427 297.143251 440.346523 317.347253 C 394.206717 332.652655 333.480355 340.621044 269.522242 340.621044 C 203.970089 340.621044 141.911722 333.131629 95.226012 317.194852 C 36.181034 297.012622 0.631766 265.095524 0.631766 237.619824 C 0.631766 210.993213 33.997418 181.558073 90.029005 162.007218 C 137.391637 145.50438 201.502603 135.620095 269.522242 135.620095 Z M 269.522242 135.620095 " stroke="#00d8ff" stroke-width="24" stroke-opacity="1" stroke-miterlimit="4"/></g><g clip-path="url(#0f0be5d19e)"><path stroke-linecap="butt" transform="matrix(0.178889, 0, 0, 0.17942, 73.250265, 135.190494)" fill="none" stroke-linejoin="miter" d="M 180.736415 186.913875 C 214.385938 128.566111 254.018568 79.209999 291.664109 46.443811 C 337.017813 6.971984 380.166066 -8.485819 403.421576 4.94723 C 427.68155 18.924567 436.481523 66.756671 423.489008 129.741775 C 413.706408 177.356163 390.254372 233.940431 358.329906 289.327263 C 325.575665 346.129247 288.061142 396.160277 250.93967 428.599892 C 203.970089 469.682814 158.550876 484.531013 134.771298 470.814935 C 111.690476 457.512515 102.846831 413.904093 113.917765 355.599873 C 123.285477 306.330847 146.75935 245.849471 180.736415 186.935647 Z M 180.736415 186.913875 " stroke="#00d8ff" stroke-width="24" stroke-opacity="1" stroke-miterlimit="4"/><path stroke-linecap="butt" transform="matrix(0.178889, 0, 0, 0.17942, 73.250265, 135.190494)" fill="none" stroke-linejoin="miter" d="M 180.823759 289.479664 C 147.086892 231.197215 124.093415 172.196305 114.507341 123.232081 C 102.956012 64.23117 111.122736 19.120511 134.378247 5.665691 C 158.594548 -8.355189 204.428649 7.908161 252.511873 50.602178 C 288.86908 82.889392 326.208914 131.439956 358.242561 186.761474 C 391.084146 243.498143 415.693498 300.975045 425.279573 349.351437 C 437.376805 410.573046 427.57237 457.338343 403.814627 471.097965 C 380.755642 484.443927 338.568181 470.314189 293.585691 431.582595 C 255.568936 398.881721 214.888169 348.328174 180.823759 289.479664 Z M 180.823759 289.479664 " stroke="#00d8ff" stroke-width="24" stroke-opacity="1" stroke-miterlimit="4"/></g><path fill="#00d8ff" d="M 221.082031 200.824219 L 210.082031 184.15625 C 215.644531 183.664062 220.652344 179.625 220.652344 172.242188 C 220.652344 164.730469 215.339844 159.925781 207.882812 159.925781 L 191.511719 159.925781 L 191.511719 200.792969 L 196.585938 200.792969 L 196.585938 184.554688 L 204.710938 184.554688 L 215.09375 200.792969 Z M 207.277344 180.113281 L 196.585938 180.113281 L 196.585938 164.488281 L 207.277344 164.488281 C 212.105469 164.488281 215.402344 167.675781 215.402344 172.269531 C 215.402344 176.867188 212.101562 180.117188 207.277344 180.117188 Z M 239.960938 201.554688 C 244.789062 201.554688 248.757812 199.964844 251.691406 197.023438 L 249.492188 194.019531 C 247.167969 196.410156 243.75 197.757812 240.390625 197.757812 C 234.039062 197.757812 230.125 193.101562 229.757812 187.527344 L 253.644531 187.527344 L 253.644531 186.363281 C 253.644531 177.480469 248.390625 170.492188 239.46875 170.492188 C 231.039062 170.492188 224.929688 177.417969 224.929688 185.996094 C 224.929688 195.246094 231.222656 201.53125 239.957031 201.53125 Z M 249.128906 184.152344 L 229.761719 184.152344 C 230.007812 179.621094 233.117188 174.285156 239.414062 174.285156 C 246.136719 174.285156 249.066406 179.738281 249.128906 184.152344 Z M 284.074219 200.820312 L 284.074219 180.476562 C 284.074219 173.308594 278.882812 170.488281 272.652344 170.488281 C 267.820312 170.488281 264.035156 172.082031 260.859375 175.390625 L 263 178.578125 C 265.625 175.757812 268.5 174.472656 272.042969 174.472656 C 276.316406 174.472656 279.496094 176.738281 279.496094 180.722656 L 279.496094 186.050781 C 277.113281 183.292969 273.753906 182.007812 269.71875 182.007812 C 264.710938 182.007812 259.390625 185.132812 259.390625 191.75 C 259.390625 198.183594 264.707031 201.554688 269.71875 201.554688 C 273.691406 201.554688 277.054688 200.144531 279.496094 197.449219 L 279.496094 200.816406 Z M 271.371094 198.246094 C 267.09375 198.246094 264.097656 195.554688 264.097656 191.8125 C 264.097656 188.015625 267.09375 185.316406 271.371094 185.316406 C 274.609375 185.316406 277.722656 186.542969 279.496094 188.996094 L 279.496094 194.570312 C 277.722656 197.019531 274.609375 198.25 271.371094 198.25 Z M 306.226562 201.554688 C 311.605469 201.554688 314.78125 199.351562 317.042969 196.410156 L 313.988281 193.59375 C 312.03125 196.226562 309.527344 197.453125 306.5 197.453125 C 300.207031 197.453125 296.300781 192.550781 296.300781 185.996094 C 296.300781 179.441406 300.210938 174.597656 306.5 174.597656 C 309.554688 174.597656 312.058594 175.765625 313.988281 178.457031 L 317.042969 175.640625 C 314.78125 172.699219 311.605469 170.496094 306.226562 170.496094 C 297.429688 170.496094 291.503906 177.234375 291.503906 185.996094 C 291.503906 194.820312 297.429688 201.535156 306.226562 201.535156 Z M 330.914062 201.554688 C 333.597656 201.554688 335.25 200.757812 336.414062 199.65625 L 335.070312 196.226562 C 334.457031 196.898438 333.261719 197.453125 331.953125 197.453125 C 329.941406 197.453125 328.957031 195.859375 328.957031 193.652344 L 328.957031 175.269531 L 334.949219 175.269531 L 334.949219 171.226562 L 328.957031 171.226562 L 328.957031 163.140625 L 324.375 163.140625 L 324.375 171.226562 L 319.488281 171.226562 L 319.488281 175.273438 L 324.375 175.273438 L 324.375 194.636719 C 324.375 199.050781 326.574219 201.5625 330.914062 201.5625 Z M 330.914062 201.554688 " fill-opacity="1" fill-rule="evenodd"/></svg>