<svg xmlns="http://www.w3.org/2000/svg" xmlns:xlink="http://www.w3.org/1999/xlink" width="500" zoomAndPan="magnify" viewBox="0 0 375 374.999991" height="500" preserveAspectRatio="xMidYMid meet" version="1.0"><defs><clipPath id="977dc22546"><path d="M 77.214844 148.398438 L 297.714844 148.398438 L 297.714844 226 L 77.214844 226 Z M 77.214844 148.398438 " clip-rule="nonzero"/></clipPath></defs><g clip-path="url(#977dc22546)"><path fill="#092e20" d="M 103.285156 148.953125 L 115.347656 148.953125 L 115.347656 204.660156 C 109.160156 205.835938 104.617188 206.304688 99.679688 206.304688 C 84.953125 206.304688 77.277344 199.660156 77.277344 186.921875 C 77.277344 174.652344 85.421875 166.683594 98.03125 166.683594 C 99.992188 166.683594 101.480469 166.835938 103.28125 167.304688 Z M 103.285156 176.996094 C 101.875 176.527344 100.699219 176.375 99.210938 176.375 C 93.101562 176.375 89.578125 180.125 89.578125 186.6875 C 89.578125 193.097656 92.945312 196.613281 99.132812 196.613281 C 100.523438 196.613281 101.90625 196.507812 103.285156 196.304688 Z M 134.539062 167.542969 L 134.539062 195.441406 C 134.539062 205.058594 133.832031 209.664062 131.738281 213.652344 C 129.78125 217.484375 127.195312 219.90625 121.871094 222.5625 L 110.667969 217.246094 C 115.996094 214.746094 118.578125 212.558594 120.222656 209.199219 C 121.949219 205.757812 122.496094 201.773438 122.496094 191.300781 L 122.496094 167.566406 Z M 122.476562 149.023438 L 134.539062 149.023438 L 134.539062 161.390625 L 122.476562 161.390625 Z M 141.824219 170.277344 C 147.148438 167.777344 152.21875 166.683594 157.804688 166.683594 C 163.992188 166.683594 168.066406 168.324219 169.867188 171.53125 C 170.867188 173.324219 171.199219 175.671875 171.199219 180.675781 L 171.199219 205.152344 C 165.792969 205.933594 158.976562 206.480469 153.964844 206.480469 C 143.863281 206.480469 139.316406 202.960938 139.316406 195.144531 C 139.316406 186.707031 145.347656 182.78125 160.15625 181.546875 L 160.15625 178.890625 C 160.15625 176.703125 159.054688 175.898438 156.003906 175.898438 C 151.539062 175.898438 146.527344 177.148438 141.824219 179.574219 L 141.824219 170.273438 Z M 160.699219 189.425781 C 152.710938 190.207031 150.105469 191.460938 150.105469 194.582031 C 150.105469 196.925781 151.59375 198.023438 154.902344 198.023438 C 156.703125 198.023438 158.347656 197.867188 160.699219 197.476562 Z M 177.09375 169.421875 C 184.21875 167.546875 190.09375 166.6875 196.046875 166.6875 C 202.234375 166.6875 206.703125 168.09375 209.367188 170.832031 C 211.871094 173.410156 212.65625 176.222656 212.65625 182.238281 L 212.65625 205.839844 L 200.59375 205.839844 L 200.59375 182.703125 C 200.59375 178.09375 199.023438 176.375 194.714844 176.375 C 193.070312 176.375 191.582031 176.527344 189.152344 177.230469 L 189.152344 205.832031 L 177.070312 205.832031 Z M 217.324219 212.402344 C 221.554688 214.589844 225.785156 215.605469 230.25 215.605469 C 238.160156 215.605469 241.527344 212.402344 241.527344 204.742188 L 241.527344 204.507812 C 239.179688 205.679688 236.828125 206.148438 233.695312 206.148438 C 223.101562 206.148438 216.382812 199.195312 216.382812 188.175781 C 216.382812 174.496094 226.332031 166.761719 243.953125 166.761719 C 249.125 166.761719 253.902344 167.308594 259.699219 168.480469 L 255.570312 177.164062 C 252.355469 176.539062 255.308594 177.078125 252.882812 176.84375 L 252.882812 178.09375 L 253.039062 183.171875 L 253.121094 189.738281 C 253.199219 191.378906 253.199219 193.023438 253.28125 194.660156 L 253.28125 197.945312 C 253.28125 208.261719 252.421875 213.101562 249.832031 217.09375 C 246.074219 222.957031 239.570312 225.867188 230.328125 225.867188 C 225.628906 225.867188 221.554688 225.164062 217.328125 223.523438 L 217.328125 212.425781 Z M 241.3125 176.453125 L 240.058594 176.453125 C 237.710938 176.375 234.96875 177 233.089844 178.171875 C 230.191406 179.8125 228.703125 182.785156 228.703125 187.003906 C 228.703125 193.023438 231.703125 196.457031 237.007812 196.457031 C 238.652344 196.457031 240.007812 196.144531 241.550781 195.675781 L 241.550781 191.535156 C 241.550781 190.128906 241.46875 188.542969 241.46875 186.921875 L 241.390625 181.375 L 241.308594 177.390625 L 241.308594 176.453125 Z M 278.425781 166.527344 C 290.488281 166.527344 297.851562 174.109375 297.851562 186.378906 C 297.851562 198.945312 290.171875 206.855469 277.953125 206.855469 C 265.890625 206.855469 258.449219 199.277344 258.449219 187.085938 C 258.449219 174.421875 266.125 166.53125 278.421875 166.53125 Z M 278.1875 197.164062 C 282.8125 197.164062 285.554688 193.335938 285.554688 186.691406 C 285.554688 180.109375 282.890625 176.222656 278.269531 176.222656 C 273.472656 176.222656 270.75 180.050781 270.75 186.691406 C 270.75 193.335938 273.492188 197.164062 278.1875 197.164062 Z M 278.1875 197.164062 " fill-opacity="1" fill-rule="nonzero"/></g></svg>