<svg xmlns="http://www.w3.org/2000/svg" xmlns:xlink="http://www.w3.org/1999/xlink" width="500" zoomAndPan="magnify" viewBox="0 0 375 374.999991" height="500" preserveAspectRatio="xMidYMid meet" version="1.0"><defs><g/><clipPath id="94c2b57d50"><path d="M 72 137.40625 L 149.984375 137.40625 L 149.984375 187.65625 L 72 187.65625 Z M 72 137.40625 " clip-rule="nonzero"/></clipPath><clipPath id="e6a3efd18d"><path d="M 104 138 L 111 138 L 111 146 L 104 146 Z M 104 138 " clip-rule="nonzero"/></clipPath><clipPath id="c778c91a65"><path d="M 87.550781 138.183594 L 87.550781 154.117188 L 79.945312 154.117188 L 79.945312 162.085938 L 73.582031 162.085938 L 73.507812 162.777344 C 73.113281 167.117188 73.867188 171.121094 75.605469 174.546875 L 76.1875 175.59375 C 76.535156 176.222656 76.949219 176.816406 77.375 177.390625 C 77.804688 177.96875 77.960938 178.285156 78.230469 178.667969 C 82.824219 183.835938 89.667969 186.332031 97.574219 186.332031 C 115.078125 186.332031 129.9375 178.558594 136.511719 161.097656 C 141.175781 161.578125 145.652344 160.378906 147.691406 156.390625 C 144.441406 154.511719 140.265625 155.113281 137.863281 156.324219 L 144.234375 138.183594 L 119.351562 154.117188 L 111.402344 154.117188 L 111.402344 138.183594 Z M 87.550781 138.183594 " clip-rule="nonzero"/></clipPath><clipPath id="2ce9d1c997"><path d="M 104 139 L 111 139 L 111 146 L 104 146 Z M 104 139 " clip-rule="nonzero"/></clipPath><clipPath id="3c457977df"><path d="M 87.550781 138.183594 L 87.550781 154.117188 L 79.945312 154.117188 L 79.945312 162.085938 L 73.582031 162.085938 L 73.507812 162.777344 C 73.113281 167.117188 73.867188 171.121094 75.605469 174.546875 L 76.1875 175.59375 C 76.535156 176.222656 76.949219 176.816406 77.375 177.390625 C 77.804688 177.96875 77.960938 178.285156 78.230469 178.667969 C 82.824219 183.835938 89.667969 186.332031 97.574219 186.332031 C 115.078125 186.332031 129.9375 178.558594 136.511719 161.097656 C 141.175781 161.578125 145.652344 160.378906 147.691406 156.390625 C 144.441406 154.511719 140.265625 155.113281 137.863281 156.324219 L 144.234375 138.183594 L 119.351562 154.117188 L 111.402344 154.117188 L 111.402344 138.183594 Z M 87.550781 138.183594 " clip-rule="nonzero"/></clipPath><clipPath id="e2fa2aef65"><path d="M 111 138 L 119 138 L 119 146 L 111 146 Z M 111 138 " clip-rule="nonzero"/></clipPath><clipPath id="eb8f38056a"><path d="M 87.550781 138.183594 L 87.550781 154.117188 L 79.945312 154.117188 L 79.945312 162.085938 L 73.582031 162.085938 L 73.507812 162.777344 C 73.113281 167.117188 73.867188 171.121094 75.605469 174.546875 L 76.1875 175.59375 C 76.535156 176.222656 76.949219 176.816406 77.375 177.390625 C 77.804688 177.96875 77.960938 178.285156 78.230469 178.667969 C 82.824219 183.835938 89.667969 186.332031 97.574219 186.332031 C 115.078125 186.332031 129.9375 178.558594 136.511719 161.097656 C 141.175781 161.578125 145.652344 160.378906 147.691406 156.390625 C 144.441406 154.511719 140.265625 155.113281 137.863281 156.324219 L 144.234375 138.183594 L 119.351562 154.117188 L 111.402344 154.117188 L 111.402344 138.183594 Z M 87.550781 138.183594 " clip-rule="nonzero"/></clipPath><clipPath id="77f0100d75"><path d="M 112 139 L 119 139 L 119 146 L 112 146 Z M 112 139 " clip-rule="nonzero"/></clipPath><clipPath id="0b6094275c"><path d="M 87.550781 138.183594 L 87.550781 154.117188 L 79.945312 154.117188 L 79.945312 162.085938 L 73.582031 162.085938 L 73.507812 162.777344 C 73.113281 167.117188 73.867188 171.121094 75.605469 174.546875 L 76.1875 175.59375 C 76.535156 176.222656 76.949219 176.816406 77.375 177.390625 C 77.804688 177.96875 77.960938 178.285156 78.230469 178.667969 C 82.824219 183.835938 89.667969 186.332031 97.574219 186.332031 C 115.078125 186.332031 129.9375 178.558594 136.511719 161.097656 C 141.175781 161.578125 145.652344 160.378906 147.691406 156.390625 C 144.441406 154.511719 140.265625 155.113281 137.863281 156.324219 L 144.234375 138.183594 L 119.351562 154.117188 L 111.402344 154.117188 L 111.402344 138.183594 Z M 87.550781 138.183594 " clip-rule="nonzero"/></clipPath><clipPath id="e92bde63f0"><path d="M 73.378906 146 L 80 146 L 80 154 L 73.378906 154 Z M 73.378906 146 " clip-rule="nonzero"/></clipPath><clipPath id="c4e3751d4c"><path d="M 87.550781 138.183594 L 87.550781 154.117188 L 79.945312 154.117188 L 79.945312 162.085938 L 73.582031 162.085938 L 73.507812 162.777344 C 73.113281 167.117188 73.867188 171.121094 75.605469 174.546875 L 76.1875 175.59375 C 76.535156 176.222656 76.949219 176.816406 77.375 177.390625 C 77.804688 177.96875 77.960938 178.285156 78.230469 178.667969 C 82.824219 183.835938 89.667969 186.332031 97.574219 186.332031 C 115.078125 186.332031 129.9375 178.558594 136.511719 161.097656 C 141.175781 161.578125 145.652344 160.378906 147.691406 156.390625 C 144.441406 154.511719 140.265625 155.113281 137.863281 156.324219 L 144.234375 138.183594 L 119.351562 154.117188 L 111.402344 154.117188 L 111.402344 138.183594 Z M 87.550781 138.183594 " clip-rule="nonzero"/></clipPath><clipPath id="7e3eb2c735"><path d="M 73.378906 154 L 80 154 L 80 162 L 73.378906 162 Z M 73.378906 154 " clip-rule="nonzero"/></clipPath><clipPath id="b93f5f3ebe"><path d="M 87.550781 138.183594 L 87.550781 154.117188 L 79.945312 154.117188 L 79.945312 162.085938 L 73.582031 162.085938 L 73.507812 162.777344 C 73.113281 167.117188 73.867188 171.121094 75.605469 174.546875 L 76.1875 175.59375 C 76.535156 176.222656 76.949219 176.816406 77.375 177.390625 C 77.804688 177.96875 77.960938 178.285156 78.230469 178.667969 C 82.824219 183.835938 89.667969 186.332031 97.574219 186.332031 C 115.078125 186.332031 129.9375 178.558594 136.511719 161.097656 C 141.175781 161.578125 145.652344 160.378906 147.691406 156.390625 C 144.441406 154.511719 140.265625 155.113281 137.863281 156.324219 L 144.234375 138.183594 L 119.351562 154.117188 L 111.402344 154.117188 L 111.402344 138.183594 Z M 87.550781 138.183594 " clip-rule="nonzero"/></clipPath><clipPath id="5ff3787dc4"><path d="M 73.378906 147 L 79 147 L 79 154 L 73.378906 154 Z M 73.378906 147 " clip-rule="nonzero"/></clipPath><clipPath id="47e92b9bdc"><path d="M 87.550781 138.183594 L 87.550781 154.117188 L 79.945312 154.117188 L 79.945312 162.085938 L 73.582031 162.085938 L 73.507812 162.777344 C 73.113281 167.117188 73.867188 171.121094 75.605469 174.546875 L 76.1875 175.59375 C 76.535156 176.222656 76.949219 176.816406 77.375 177.390625 C 77.804688 177.96875 77.960938 178.285156 78.230469 178.667969 C 82.824219 183.835938 89.667969 186.332031 97.574219 186.332031 C 115.078125 186.332031 129.9375 178.558594 136.511719 161.097656 C 141.175781 161.578125 145.652344 160.378906 147.691406 156.390625 C 144.441406 154.511719 140.265625 155.113281 137.863281 156.324219 L 144.234375 138.183594 L 119.351562 154.117188 L 111.402344 154.117188 L 111.402344 138.183594 Z M 87.550781 138.183594 " clip-rule="nonzero"/></clipPath><clipPath id="b44fff596c"><path d="M 73.378906 155 L 79 155 L 79 161 L 73.378906 161 Z M 73.378906 155 " clip-rule="nonzero"/></clipPath><clipPath id="50546b57e0"><path d="M 87.550781 138.183594 L 87.550781 154.117188 L 79.945312 154.117188 L 79.945312 162.085938 L 73.582031 162.085938 L 73.507812 162.777344 C 73.113281 167.117188 73.867188 171.121094 75.605469 174.546875 L 76.1875 175.59375 C 76.535156 176.222656 76.949219 176.816406 77.375 177.390625 C 77.804688 177.96875 77.960938 178.285156 78.230469 178.667969 C 82.824219 183.835938 89.667969 186.332031 97.574219 186.332031 C 115.078125 186.332031 129.9375 178.558594 136.511719 161.097656 C 141.175781 161.578125 145.652344 160.378906 147.691406 156.390625 C 144.441406 154.511719 140.265625 155.113281 137.863281 156.324219 L 144.234375 138.183594 L 119.351562 154.117188 L 111.402344 154.117188 L 111.402344 138.183594 Z M 87.550781 138.183594 " clip-rule="nonzero"/></clipPath><clipPath id="6c5fd2de52"><path d="M 73.378906 154 L 79 154 L 79 162 L 73.378906 162 Z M 73.378906 154 " clip-rule="nonzero"/></clipPath><clipPath id="edac58f0c5"><path d="M 87.550781 138.183594 L 87.550781 154.117188 L 79.945312 154.117188 L 79.945312 162.085938 L 73.582031 162.085938 L 73.507812 162.777344 C 73.113281 167.117188 73.867188 171.121094 75.605469 174.546875 L 76.1875 175.59375 C 76.535156 176.222656 76.949219 176.816406 77.375 177.390625 C 77.804688 177.96875 77.960938 178.285156 78.230469 178.667969 C 82.824219 183.835938 89.667969 186.332031 97.574219 186.332031 C 115.078125 186.332031 129.9375 178.558594 136.511719 161.097656 C 141.175781 161.578125 145.652344 160.378906 147.691406 156.390625 C 144.441406 154.511719 140.265625 155.113281 137.863281 156.324219 L 144.234375 138.183594 L 119.351562 154.117188 L 111.402344 154.117188 L 111.402344 138.183594 Z M 87.550781 138.183594 " clip-rule="nonzero"/></clipPath><clipPath id="dce579a192"><path d="M 80 154 L 88 154 L 88 162 L 80 162 Z M 80 154 " clip-rule="nonzero"/></clipPath><clipPath id="6cc25ac2c9"><path d="M 87.550781 138.183594 L 87.550781 154.117188 L 79.945312 154.117188 L 79.945312 162.085938 L 73.582031 162.085938 L 73.507812 162.777344 C 73.113281 167.117188 73.867188 171.121094 75.605469 174.546875 L 76.1875 175.59375 C 76.535156 176.222656 76.949219 176.816406 77.375 177.390625 C 77.804688 177.96875 77.960938 178.285156 78.230469 178.667969 C 82.824219 183.835938 89.667969 186.332031 97.574219 186.332031 C 115.078125 186.332031 129.9375 178.558594 136.511719 161.097656 C 141.175781 161.578125 145.652344 160.378906 147.691406 156.390625 C 144.441406 154.511719 140.265625 155.113281 137.863281 156.324219 L 144.234375 138.183594 L 119.351562 154.117188 L 111.402344 154.117188 L 111.402344 138.183594 Z M 87.550781 138.183594 " clip-rule="nonzero"/></clipPath><clipPath id="30a5370829"><path d="M 80 146 L 88 146 L 88 154 L 80 154 Z M 80 146 " clip-rule="nonzero"/></clipPath><clipPath id="facda9cfad"><path d="M 87.550781 138.183594 L 87.550781 154.117188 L 79.945312 154.117188 L 79.945312 162.085938 L 73.582031 162.085938 L 73.507812 162.777344 C 73.113281 167.117188 73.867188 171.121094 75.605469 174.546875 L 76.1875 175.59375 C 76.535156 176.222656 76.949219 176.816406 77.375 177.390625 C 77.804688 177.96875 77.960938 178.285156 78.230469 178.667969 C 82.824219 183.835938 89.667969 186.332031 97.574219 186.332031 C 115.078125 186.332031 129.9375 178.558594 136.511719 161.097656 C 141.175781 161.578125 145.652344 160.378906 147.691406 156.390625 C 144.441406 154.511719 140.265625 155.113281 137.863281 156.324219 L 144.234375 138.183594 L 119.351562 154.117188 L 111.402344 154.117188 L 111.402344 138.183594 Z M 87.550781 138.183594 " clip-rule="nonzero"/></clipPath><clipPath id="fa1021d6ea"><path d="M 81 155 L 87 155 L 87 161 L 81 161 Z M 81 155 " clip-rule="nonzero"/></clipPath><clipPath id="a5af8b54b7"><path d="M 87.550781 138.183594 L 87.550781 154.117188 L 79.945312 154.117188 L 79.945312 162.085938 L 73.582031 162.085938 L 73.507812 162.777344 C 73.113281 167.117188 73.867188 171.121094 75.605469 174.546875 L 76.1875 175.59375 C 76.535156 176.222656 76.949219 176.816406 77.375 177.390625 C 77.804688 177.96875 77.960938 178.285156 78.230469 178.667969 C 82.824219 183.835938 89.667969 186.332031 97.574219 186.332031 C 115.078125 186.332031 129.9375 178.558594 136.511719 161.097656 C 141.175781 161.578125 145.652344 160.378906 147.691406 156.390625 C 144.441406 154.511719 140.265625 155.113281 137.863281 156.324219 L 144.234375 138.183594 L 119.351562 154.117188 L 111.402344 154.117188 L 111.402344 138.183594 Z M 87.550781 138.183594 " clip-rule="nonzero"/></clipPath><clipPath id="1c3f3f70c6"><path d="M 80 154 L 87 154 L 87 162 L 80 162 Z M 80 154 " clip-rule="nonzero"/></clipPath><clipPath id="b6d61997d3"><path d="M 87.550781 138.183594 L 87.550781 154.117188 L 79.945312 154.117188 L 79.945312 162.085938 L 73.582031 162.085938 L 73.507812 162.777344 C 73.113281 167.117188 73.867188 171.121094 75.605469 174.546875 L 76.1875 175.59375 C 76.535156 176.222656 76.949219 176.816406 77.375 177.390625 C 77.804688 177.96875 77.960938 178.285156 78.230469 178.667969 C 82.824219 183.835938 89.667969 186.332031 97.574219 186.332031 C 115.078125 186.332031 129.9375 178.558594 136.511719 161.097656 C 141.175781 161.578125 145.652344 160.378906 147.691406 156.390625 C 144.441406 154.511719 140.265625 155.113281 137.863281 156.324219 L 144.234375 138.183594 L 119.351562 154.117188 L 111.402344 154.117188 L 111.402344 138.183594 Z M 87.550781 138.183594 " clip-rule="nonzero"/></clipPath><clipPath id="bad34beeef"><path d="M 81 147 L 87 147 L 87 154 L 81 154 Z M 81 147 " clip-rule="nonzero"/></clipPath><clipPath id="287d62b245"><path d="M 87.550781 138.183594 L 87.550781 154.117188 L 79.945312 154.117188 L 79.945312 162.085938 L 73.582031 162.085938 L 73.507812 162.777344 C 73.113281 167.117188 73.867188 171.121094 75.605469 174.546875 L 76.1875 175.59375 C 76.535156 176.222656 76.949219 176.816406 77.375 177.390625 C 77.804688 177.96875 77.960938 178.285156 78.230469 178.667969 C 82.824219 183.835938 89.667969 186.332031 97.574219 186.332031 C 115.078125 186.332031 129.9375 178.558594 136.511719 161.097656 C 141.175781 161.578125 145.652344 160.378906 147.691406 156.390625 C 144.441406 154.511719 140.265625 155.113281 137.863281 156.324219 L 144.234375 138.183594 L 119.351562 154.117188 L 111.402344 154.117188 L 111.402344 138.183594 Z M 87.550781 138.183594 " clip-rule="nonzero"/></clipPath><clipPath id="560a330392"><path d="M 80 147 L 87 147 L 87 154 L 80 154 Z M 80 147 " clip-rule="nonzero"/></clipPath><clipPath id="64a574b626"><path d="M 87.550781 138.183594 L 87.550781 154.117188 L 79.945312 154.117188 L 79.945312 162.085938 L 73.582031 162.085938 L 73.507812 162.777344 C 73.113281 167.117188 73.867188 171.121094 75.605469 174.546875 L 76.1875 175.59375 C 76.535156 176.222656 76.949219 176.816406 77.375 177.390625 C 77.804688 177.96875 77.960938 178.285156 78.230469 178.667969 C 82.824219 183.835938 89.667969 186.332031 97.574219 186.332031 C 115.078125 186.332031 129.9375 178.558594 136.511719 161.097656 C 141.175781 161.578125 145.652344 160.378906 147.691406 156.390625 C 144.441406 154.511719 140.265625 155.113281 137.863281 156.324219 L 144.234375 138.183594 L 119.351562 154.117188 L 111.402344 154.117188 L 111.402344 138.183594 Z M 87.550781 138.183594 " clip-rule="nonzero"/></clipPath><clipPath id="742050888f"><path d="M 88 146 L 96 146 L 96 154 L 88 154 Z M 88 146 " clip-rule="nonzero"/></clipPath><clipPath id="eda1a51e22"><path d="M 87.550781 138.183594 L 87.550781 154.117188 L 79.945312 154.117188 L 79.945312 162.085938 L 73.582031 162.085938 L 73.507812 162.777344 C 73.113281 167.117188 73.867188 171.121094 75.605469 174.546875 L 76.1875 175.59375 C 76.535156 176.222656 76.949219 176.816406 77.375 177.390625 C 77.804688 177.96875 77.960938 178.285156 78.230469 178.667969 C 82.824219 183.835938 89.667969 186.332031 97.574219 186.332031 C 115.078125 186.332031 129.9375 178.558594 136.511719 161.097656 C 141.175781 161.578125 145.652344 160.378906 147.691406 156.390625 C 144.441406 154.511719 140.265625 155.113281 137.863281 156.324219 L 144.234375 138.183594 L 119.351562 154.117188 L 111.402344 154.117188 L 111.402344 138.183594 Z M 87.550781 138.183594 " clip-rule="nonzero"/></clipPath><clipPath id="ebd4aa9522"><path d="M 88 154 L 96 154 L 96 162 L 88 162 Z M 88 154 " clip-rule="nonzero"/></clipPath><clipPath id="6525af1c22"><path d="M 87.550781 138.183594 L 87.550781 154.117188 L 79.945312 154.117188 L 79.945312 162.085938 L 73.582031 162.085938 L 73.507812 162.777344 C 73.113281 167.117188 73.867188 171.121094 75.605469 174.546875 L 76.1875 175.59375 C 76.535156 176.222656 76.949219 176.816406 77.375 177.390625 C 77.804688 177.96875 77.960938 178.285156 78.230469 178.667969 C 82.824219 183.835938 89.667969 186.332031 97.574219 186.332031 C 115.078125 186.332031 129.9375 178.558594 136.511719 161.097656 C 141.175781 161.578125 145.652344 160.378906 147.691406 156.390625 C 144.441406 154.511719 140.265625 155.113281 137.863281 156.324219 L 144.234375 138.183594 L 119.351562 154.117188 L 111.402344 154.117188 L 111.402344 138.183594 Z M 87.550781 138.183594 " clip-rule="nonzero"/></clipPath><clipPath id="0d3bec1199"><path d="M 89 147 L 95 147 L 95 154 L 89 154 Z M 89 147 " clip-rule="nonzero"/></clipPath><clipPath id="8311e3d8ca"><path d="M 87.550781 138.183594 L 87.550781 154.117188 L 79.945312 154.117188 L 79.945312 162.085938 L 73.582031 162.085938 L 73.507812 162.777344 C 73.113281 167.117188 73.867188 171.121094 75.605469 174.546875 L 76.1875 175.59375 C 76.535156 176.222656 76.949219 176.816406 77.375 177.390625 C 77.804688 177.96875 77.960938 178.285156 78.230469 178.667969 C 82.824219 183.835938 89.667969 186.332031 97.574219 186.332031 C 115.078125 186.332031 129.9375 178.558594 136.511719 161.097656 C 141.175781 161.578125 145.652344 160.378906 147.691406 156.390625 C 144.441406 154.511719 140.265625 155.113281 137.863281 156.324219 L 144.234375 138.183594 L 119.351562 154.117188 L 111.402344 154.117188 L 111.402344 138.183594 Z M 87.550781 138.183594 " clip-rule="nonzero"/></clipPath><clipPath id="b3f6ae53cb"><path d="M 88 147 L 95 147 L 95 154 L 88 154 Z M 88 147 " clip-rule="nonzero"/></clipPath><clipPath id="f7d5421b68"><path d="M 87.550781 138.183594 L 87.550781 154.117188 L 79.945312 154.117188 L 79.945312 162.085938 L 73.582031 162.085938 L 73.507812 162.777344 C 73.113281 167.117188 73.867188 171.121094 75.605469 174.546875 L 76.1875 175.59375 C 76.535156 176.222656 76.949219 176.816406 77.375 177.390625 C 77.804688 177.96875 77.960938 178.285156 78.230469 178.667969 C 82.824219 183.835938 89.667969 186.332031 97.574219 186.332031 C 115.078125 186.332031 129.9375 178.558594 136.511719 161.097656 C 141.175781 161.578125 145.652344 160.378906 147.691406 156.390625 C 144.441406 154.511719 140.265625 155.113281 137.863281 156.324219 L 144.234375 138.183594 L 119.351562 154.117188 L 111.402344 154.117188 L 111.402344 138.183594 Z M 87.550781 138.183594 " clip-rule="nonzero"/></clipPath><clipPath id="ff8ea68dad"><path d="M 89 155 L 95 155 L 95 161 L 89 161 Z M 89 155 " clip-rule="nonzero"/></clipPath><clipPath id="18c2e03af8"><path d="M 87.550781 138.183594 L 87.550781 154.117188 L 79.945312 154.117188 L 79.945312 162.085938 L 73.582031 162.085938 L 73.507812 162.777344 C 73.113281 167.117188 73.867188 171.121094 75.605469 174.546875 L 76.1875 175.59375 C 76.535156 176.222656 76.949219 176.816406 77.375 177.390625 C 77.804688 177.96875 77.960938 178.285156 78.230469 178.667969 C 82.824219 183.835938 89.667969 186.332031 97.574219 186.332031 C 115.078125 186.332031 129.9375 178.558594 136.511719 161.097656 C 141.175781 161.578125 145.652344 160.378906 147.691406 156.390625 C 144.441406 154.511719 140.265625 155.113281 137.863281 156.324219 L 144.234375 138.183594 L 119.351562 154.117188 L 111.402344 154.117188 L 111.402344 138.183594 Z M 87.550781 138.183594 " clip-rule="nonzero"/></clipPath><clipPath id="316e478c65"><path d="M 88 154 L 95 154 L 95 162 L 88 162 Z M 88 154 " clip-rule="nonzero"/></clipPath><clipPath id="e6e6378788"><path d="M 87.550781 138.183594 L 87.550781 154.117188 L 79.945312 154.117188 L 79.945312 162.085938 L 73.582031 162.085938 L 73.507812 162.777344 C 73.113281 167.117188 73.867188 171.121094 75.605469 174.546875 L 76.1875 175.59375 C 76.535156 176.222656 76.949219 176.816406 77.375 177.390625 C 77.804688 177.96875 77.960938 178.285156 78.230469 178.667969 C 82.824219 183.835938 89.667969 186.332031 97.574219 186.332031 C 115.078125 186.332031 129.9375 178.558594 136.511719 161.097656 C 141.175781 161.578125 145.652344 160.378906 147.691406 156.390625 C 144.441406 154.511719 140.265625 155.113281 137.863281 156.324219 L 144.234375 138.183594 L 119.351562 154.117188 L 111.402344 154.117188 L 111.402344 138.183594 Z M 87.550781 138.183594 " clip-rule="nonzero"/></clipPath><clipPath id="596d3f52e3"><path d="M 96 154 L 104 154 L 104 162 L 96 162 Z M 96 154 " clip-rule="nonzero"/></clipPath><clipPath id="6ea62eef0d"><path d="M 87.550781 138.183594 L 87.550781 154.117188 L 79.945312 154.117188 L 79.945312 162.085938 L 73.582031 162.085938 L 73.507812 162.777344 C 73.113281 167.117188 73.867188 171.121094 75.605469 174.546875 L 76.1875 175.59375 C 76.535156 176.222656 76.949219 176.816406 77.375 177.390625 C 77.804688 177.96875 77.960938 178.285156 78.230469 178.667969 C 82.824219 183.835938 89.667969 186.332031 97.574219 186.332031 C 115.078125 186.332031 129.9375 178.558594 136.511719 161.097656 C 141.175781 161.578125 145.652344 160.378906 147.691406 156.390625 C 144.441406 154.511719 140.265625 155.113281 137.863281 156.324219 L 144.234375 138.183594 L 119.351562 154.117188 L 111.402344 154.117188 L 111.402344 138.183594 Z M 87.550781 138.183594 " clip-rule="nonzero"/></clipPath><clipPath id="a17182eea4"><path d="M 96 146 L 104 146 L 104 154 L 96 154 Z M 96 146 " clip-rule="nonzero"/></clipPath><clipPath id="9f7fbbb8b2"><path d="M 87.550781 138.183594 L 87.550781 154.117188 L 79.945312 154.117188 L 79.945312 162.085938 L 73.582031 162.085938 L 73.507812 162.777344 C 73.113281 167.117188 73.867188 171.121094 75.605469 174.546875 L 76.1875 175.59375 C 76.535156 176.222656 76.949219 176.816406 77.375 177.390625 C 77.804688 177.96875 77.960938 178.285156 78.230469 178.667969 C 82.824219 183.835938 89.667969 186.332031 97.574219 186.332031 C 115.078125 186.332031 129.9375 178.558594 136.511719 161.097656 C 141.175781 161.578125 145.652344 160.378906 147.691406 156.390625 C 144.441406 154.511719 140.265625 155.113281 137.863281 156.324219 L 144.234375 138.183594 L 119.351562 154.117188 L 111.402344 154.117188 L 111.402344 138.183594 Z M 87.550781 138.183594 " clip-rule="nonzero"/></clipPath><clipPath id="0475c43b8e"><path d="M 97 155 L 103 155 L 103 161 L 97 161 Z M 97 155 " clip-rule="nonzero"/></clipPath><clipPath id="91edff9f30"><path d="M 87.550781 138.183594 L 87.550781 154.117188 L 79.945312 154.117188 L 79.945312 162.085938 L 73.582031 162.085938 L 73.507812 162.777344 C 73.113281 167.117188 73.867188 171.121094 75.605469 174.546875 L 76.1875 175.59375 C 76.535156 176.222656 76.949219 176.816406 77.375 177.390625 C 77.804688 177.96875 77.960938 178.285156 78.230469 178.667969 C 82.824219 183.835938 89.667969 186.332031 97.574219 186.332031 C 115.078125 186.332031 129.9375 178.558594 136.511719 161.097656 C 141.175781 161.578125 145.652344 160.378906 147.691406 156.390625 C 144.441406 154.511719 140.265625 155.113281 137.863281 156.324219 L 144.234375 138.183594 L 119.351562 154.117188 L 111.402344 154.117188 L 111.402344 138.183594 Z M 87.550781 138.183594 " clip-rule="nonzero"/></clipPath><clipPath id="d2f0650364"><path d="M 96 154 L 103 154 L 103 162 L 96 162 Z M 96 154 " clip-rule="nonzero"/></clipPath><clipPath id="816de1c3d1"><path d="M 87.550781 138.183594 L 87.550781 154.117188 L 79.945312 154.117188 L 79.945312 162.085938 L 73.582031 162.085938 L 73.507812 162.777344 C 73.113281 167.117188 73.867188 171.121094 75.605469 174.546875 L 76.1875 175.59375 C 76.535156 176.222656 76.949219 176.816406 77.375 177.390625 C 77.804688 177.96875 77.960938 178.285156 78.230469 178.667969 C 82.824219 183.835938 89.667969 186.332031 97.574219 186.332031 C 115.078125 186.332031 129.9375 178.558594 136.511719 161.097656 C 141.175781 161.578125 145.652344 160.378906 147.691406 156.390625 C 144.441406 154.511719 140.265625 155.113281 137.863281 156.324219 L 144.234375 138.183594 L 119.351562 154.117188 L 111.402344 154.117188 L 111.402344 138.183594 Z M 87.550781 138.183594 " clip-rule="nonzero"/></clipPath><clipPath id="9d7d484344"><path d="M 97 147 L 103 147 L 103 154 L 97 154 Z M 97 147 " clip-rule="nonzero"/></clipPath><clipPath id="a7dc499088"><path d="M 87.550781 138.183594 L 87.550781 154.117188 L 79.945312 154.117188 L 79.945312 162.085938 L 73.582031 162.085938 L 73.507812 162.777344 C 73.113281 167.117188 73.867188 171.121094 75.605469 174.546875 L 76.1875 175.59375 C 76.535156 176.222656 76.949219 176.816406 77.375 177.390625 C 77.804688 177.96875 77.960938 178.285156 78.230469 178.667969 C 82.824219 183.835938 89.667969 186.332031 97.574219 186.332031 C 115.078125 186.332031 129.9375 178.558594 136.511719 161.097656 C 141.175781 161.578125 145.652344 160.378906 147.691406 156.390625 C 144.441406 154.511719 140.265625 155.113281 137.863281 156.324219 L 144.234375 138.183594 L 119.351562 154.117188 L 111.402344 154.117188 L 111.402344 138.183594 Z M 87.550781 138.183594 " clip-rule="nonzero"/></clipPath><clipPath id="a4e247f1e7"><path d="M 96 147 L 103 147 L 103 154 L 96 154 Z M 96 147 " clip-rule="nonzero"/></clipPath><clipPath id="98ec233476"><path d="M 87.550781 138.183594 L 87.550781 154.117188 L 79.945312 154.117188 L 79.945312 162.085938 L 73.582031 162.085938 L 73.507812 162.777344 C 73.113281 167.117188 73.867188 171.121094 75.605469 174.546875 L 76.1875 175.59375 C 76.535156 176.222656 76.949219 176.816406 77.375 177.390625 C 77.804688 177.96875 77.960938 178.285156 78.230469 178.667969 C 82.824219 183.835938 89.667969 186.332031 97.574219 186.332031 C 115.078125 186.332031 129.9375 178.558594 136.511719 161.097656 C 141.175781 161.578125 145.652344 160.378906 147.691406 156.390625 C 144.441406 154.511719 140.265625 155.113281 137.863281 156.324219 L 144.234375 138.183594 L 119.351562 154.117188 L 111.402344 154.117188 L 111.402344 138.183594 Z M 87.550781 138.183594 " clip-rule="nonzero"/></clipPath><clipPath id="c1927f7033"><path d="M 104 146 L 111 146 L 111 154 L 104 154 Z M 104 146 " clip-rule="nonzero"/></clipPath><clipPath id="e28ebb670e"><path d="M 87.550781 138.183594 L 87.550781 154.117188 L 79.945312 154.117188 L 79.945312 162.085938 L 73.582031 162.085938 L 73.507812 162.777344 C 73.113281 167.117188 73.867188 171.121094 75.605469 174.546875 L 76.1875 175.59375 C 76.535156 176.222656 76.949219 176.816406 77.375 177.390625 C 77.804688 177.96875 77.960938 178.285156 78.230469 178.667969 C 82.824219 183.835938 89.667969 186.332031 97.574219 186.332031 C 115.078125 186.332031 129.9375 178.558594 136.511719 161.097656 C 141.175781 161.578125 145.652344 160.378906 147.691406 156.390625 C 144.441406 154.511719 140.265625 155.113281 137.863281 156.324219 L 144.234375 138.183594 L 119.351562 154.117188 L 111.402344 154.117188 L 111.402344 138.183594 Z M 87.550781 138.183594 " clip-rule="nonzero"/></clipPath><clipPath id="f5bf9ccaa9"><path d="M 104 154 L 111 154 L 111 162 L 104 162 Z M 104 154 " clip-rule="nonzero"/></clipPath><clipPath id="0cf188f18b"><path d="M 87.550781 138.183594 L 87.550781 154.117188 L 79.945312 154.117188 L 79.945312 162.085938 L 73.582031 162.085938 L 73.507812 162.777344 C 73.113281 167.117188 73.867188 171.121094 75.605469 174.546875 L 76.1875 175.59375 C 76.535156 176.222656 76.949219 176.816406 77.375 177.390625 C 77.804688 177.96875 77.960938 178.285156 78.230469 178.667969 C 82.824219 183.835938 89.667969 186.332031 97.574219 186.332031 C 115.078125 186.332031 129.9375 178.558594 136.511719 161.097656 C 141.175781 161.578125 145.652344 160.378906 147.691406 156.390625 C 144.441406 154.511719 140.265625 155.113281 137.863281 156.324219 L 144.234375 138.183594 L 119.351562 154.117188 L 111.402344 154.117188 L 111.402344 138.183594 Z M 87.550781 138.183594 " clip-rule="nonzero"/></clipPath><clipPath id="e5074ce12e"><path d="M 104 147 L 111 147 L 111 154 L 104 154 Z M 104 147 " clip-rule="nonzero"/></clipPath><clipPath id="27bbf13865"><path d="M 87.550781 138.183594 L 87.550781 154.117188 L 79.945312 154.117188 L 79.945312 162.085938 L 73.582031 162.085938 L 73.507812 162.777344 C 73.113281 167.117188 73.867188 171.121094 75.605469 174.546875 L 76.1875 175.59375 C 76.535156 176.222656 76.949219 176.816406 77.375 177.390625 C 77.804688 177.96875 77.960938 178.285156 78.230469 178.667969 C 82.824219 183.835938 89.667969 186.332031 97.574219 186.332031 C 115.078125 186.332031 129.9375 178.558594 136.511719 161.097656 C 141.175781 161.578125 145.652344 160.378906 147.691406 156.390625 C 144.441406 154.511719 140.265625 155.113281 137.863281 156.324219 L 144.234375 138.183594 L 119.351562 154.117188 L 111.402344 154.117188 L 111.402344 138.183594 Z M 87.550781 138.183594 " clip-rule="nonzero"/></clipPath><clipPath id="7c216fab62"><path d="M 104 155 L 111 155 L 111 161 L 104 161 Z M 104 155 " clip-rule="nonzero"/></clipPath><clipPath id="f2246dfaf7"><path d="M 87.550781 138.183594 L 87.550781 154.117188 L 79.945312 154.117188 L 79.945312 162.085938 L 73.582031 162.085938 L 73.507812 162.777344 C 73.113281 167.117188 73.867188 171.121094 75.605469 174.546875 L 76.1875 175.59375 C 76.535156 176.222656 76.949219 176.816406 77.375 177.390625 C 77.804688 177.96875 77.960938 178.285156 78.230469 178.667969 C 82.824219 183.835938 89.667969 186.332031 97.574219 186.332031 C 115.078125 186.332031 129.9375 178.558594 136.511719 161.097656 C 141.175781 161.578125 145.652344 160.378906 147.691406 156.390625 C 144.441406 154.511719 140.265625 155.113281 137.863281 156.324219 L 144.234375 138.183594 L 119.351562 154.117188 L 111.402344 154.117188 L 111.402344 138.183594 Z M 87.550781 138.183594 " clip-rule="nonzero"/></clipPath><clipPath id="e16d80fff8"><path d="M 104 154 L 111 154 L 111 162 L 104 162 Z M 104 154 " clip-rule="nonzero"/></clipPath><clipPath id="87e9f15be1"><path d="M 87.550781 138.183594 L 87.550781 154.117188 L 79.945312 154.117188 L 79.945312 162.085938 L 73.582031 162.085938 L 73.507812 162.777344 C 73.113281 167.117188 73.867188 171.121094 75.605469 174.546875 L 76.1875 175.59375 C 76.535156 176.222656 76.949219 176.816406 77.375 177.390625 C 77.804688 177.96875 77.960938 178.285156 78.230469 178.667969 C 82.824219 183.835938 89.667969 186.332031 97.574219 186.332031 C 115.078125 186.332031 129.9375 178.558594 136.511719 161.097656 C 141.175781 161.578125 145.652344 160.378906 147.691406 156.390625 C 144.441406 154.511719 140.265625 155.113281 137.863281 156.324219 L 144.234375 138.183594 L 119.351562 154.117188 L 111.402344 154.117188 L 111.402344 138.183594 Z M 87.550781 138.183594 " clip-rule="nonzero"/></clipPath><clipPath id="62010fe2ae"><path d="M 111 154 L 119 154 L 119 162 L 111 162 Z M 111 154 " clip-rule="nonzero"/></clipPath><clipPath id="7d7698f442"><path d="M 87.550781 138.183594 L 87.550781 154.117188 L 79.945312 154.117188 L 79.945312 162.085938 L 73.582031 162.085938 L 73.507812 162.777344 C 73.113281 167.117188 73.867188 171.121094 75.605469 174.546875 L 76.1875 175.59375 C 76.535156 176.222656 76.949219 176.816406 77.375 177.390625 C 77.804688 177.96875 77.960938 178.285156 78.230469 178.667969 C 82.824219 183.835938 89.667969 186.332031 97.574219 186.332031 C 115.078125 186.332031 129.9375 178.558594 136.511719 161.097656 C 141.175781 161.578125 145.652344 160.378906 147.691406 156.390625 C 144.441406 154.511719 140.265625 155.113281 137.863281 156.324219 L 144.234375 138.183594 L 119.351562 154.117188 L 111.402344 154.117188 L 111.402344 138.183594 Z M 87.550781 138.183594 " clip-rule="nonzero"/></clipPath><clipPath id="6e0a892dfa"><path d="M 111 146 L 119 146 L 119 154 L 111 154 Z M 111 146 " clip-rule="nonzero"/></clipPath><clipPath id="a7b0b89d7b"><path d="M 87.550781 138.183594 L 87.550781 154.117188 L 79.945312 154.117188 L 79.945312 162.085938 L 73.582031 162.085938 L 73.507812 162.777344 C 73.113281 167.117188 73.867188 171.121094 75.605469 174.546875 L 76.1875 175.59375 C 76.535156 176.222656 76.949219 176.816406 77.375 177.390625 C 77.804688 177.96875 77.960938 178.285156 78.230469 178.667969 C 82.824219 183.835938 89.667969 186.332031 97.574219 186.332031 C 115.078125 186.332031 129.9375 178.558594 136.511719 161.097656 C 141.175781 161.578125 145.652344 160.378906 147.691406 156.390625 C 144.441406 154.511719 140.265625 155.113281 137.863281 156.324219 L 144.234375 138.183594 L 119.351562 154.117188 L 111.402344 154.117188 L 111.402344 138.183594 Z M 87.550781 138.183594 " clip-rule="nonzero"/></clipPath><clipPath id="ca2c5ab04f"><path d="M 112 155 L 119 155 L 119 161 L 112 161 Z M 112 155 " clip-rule="nonzero"/></clipPath><clipPath id="5a386ff785"><path d="M 87.550781 138.183594 L 87.550781 154.117188 L 79.945312 154.117188 L 79.945312 162.085938 L 73.582031 162.085938 L 73.507812 162.777344 C 73.113281 167.117188 73.867188 171.121094 75.605469 174.546875 L 76.1875 175.59375 C 76.535156 176.222656 76.949219 176.816406 77.375 177.390625 C 77.804688 177.96875 77.960938 178.285156 78.230469 178.667969 C 82.824219 183.835938 89.667969 186.332031 97.574219 186.332031 C 115.078125 186.332031 129.9375 178.558594 136.511719 161.097656 C 141.175781 161.578125 145.652344 160.378906 147.691406 156.390625 C 144.441406 154.511719 140.265625 155.113281 137.863281 156.324219 L 144.234375 138.183594 L 119.351562 154.117188 L 111.402344 154.117188 L 111.402344 138.183594 Z M 87.550781 138.183594 " clip-rule="nonzero"/></clipPath><clipPath id="e009326771"><path d="M 112 154 L 119 154 L 119 162 L 112 162 Z M 112 154 " clip-rule="nonzero"/></clipPath><clipPath id="b08eae9530"><path d="M 87.550781 138.183594 L 87.550781 154.117188 L 79.945312 154.117188 L 79.945312 162.085938 L 73.582031 162.085938 L 73.507812 162.777344 C 73.113281 167.117188 73.867188 171.121094 75.605469 174.546875 L 76.1875 175.59375 C 76.535156 176.222656 76.949219 176.816406 77.375 177.390625 C 77.804688 177.96875 77.960938 178.285156 78.230469 178.667969 C 82.824219 183.835938 89.667969 186.332031 97.574219 186.332031 C 115.078125 186.332031 129.9375 178.558594 136.511719 161.097656 C 141.175781 161.578125 145.652344 160.378906 147.691406 156.390625 C 144.441406 154.511719 140.265625 155.113281 137.863281 156.324219 L 144.234375 138.183594 L 119.351562 154.117188 L 111.402344 154.117188 L 111.402344 138.183594 Z M 87.550781 138.183594 " clip-rule="nonzero"/></clipPath><clipPath id="d359b8e061"><path d="M 112 147 L 119 147 L 119 154 L 112 154 Z M 112 147 " clip-rule="nonzero"/></clipPath><clipPath id="f24f164c15"><path d="M 87.550781 138.183594 L 87.550781 154.117188 L 79.945312 154.117188 L 79.945312 162.085938 L 73.582031 162.085938 L 73.507812 162.777344 C 73.113281 167.117188 73.867188 171.121094 75.605469 174.546875 L 76.1875 175.59375 C 76.535156 176.222656 76.949219 176.816406 77.375 177.390625 C 77.804688 177.96875 77.960938 178.285156 78.230469 178.667969 C 82.824219 183.835938 89.667969 186.332031 97.574219 186.332031 C 115.078125 186.332031 129.9375 178.558594 136.511719 161.097656 C 141.175781 161.578125 145.652344 160.378906 147.691406 156.390625 C 144.441406 154.511719 140.265625 155.113281 137.863281 156.324219 L 144.234375 138.183594 L 119.351562 154.117188 L 111.402344 154.117188 L 111.402344 138.183594 Z M 87.550781 138.183594 " clip-rule="nonzero"/></clipPath><clipPath id="cd524241e3"><path d="M 73.378906 147 L 147.691406 147 L 147.691406 186.332031 L 73.378906 186.332031 Z M 73.378906 147 " clip-rule="nonzero"/></clipPath><clipPath id="ffa0ad06e1"><path d="M 87.550781 138.183594 L 87.550781 154.117188 L 79.945312 154.117188 L 79.945312 162.085938 L 73.582031 162.085938 L 73.507812 162.777344 C 73.113281 167.117188 73.867188 171.121094 75.605469 174.546875 L 76.1875 175.59375 C 76.535156 176.222656 76.949219 176.816406 77.375 177.390625 C 77.804688 177.96875 77.960938 178.285156 78.230469 178.667969 C 82.824219 183.835938 89.667969 186.332031 97.574219 186.332031 C 115.078125 186.332031 129.9375 178.558594 136.511719 161.097656 C 141.175781 161.578125 145.652344 160.378906 147.691406 156.390625 C 144.441406 154.511719 140.265625 155.113281 137.863281 156.324219 L 144.234375 138.183594 L 119.351562 154.117188 L 111.402344 154.117188 L 111.402344 138.183594 Z M 87.550781 138.183594 " clip-rule="nonzero"/></clipPath><clipPath id="df7f3ef8e9"><path d="M 73.378906 168 L 147.691406 168 L 147.691406 186.332031 L 73.378906 186.332031 Z M 73.378906 168 " clip-rule="nonzero"/></clipPath><clipPath id="f2e7782cc4"><path d="M 87.550781 138.183594 L 87.550781 154.117188 L 79.945312 154.117188 L 79.945312 162.085938 L 73.582031 162.085938 L 73.507812 162.777344 C 73.113281 167.117188 73.867188 171.121094 75.605469 174.546875 L 76.1875 175.59375 C 76.535156 176.222656 76.949219 176.816406 77.375 177.390625 C 77.804688 177.96875 77.960938 178.285156 78.230469 178.667969 C 82.824219 183.835938 89.667969 186.332031 97.574219 186.332031 C 115.078125 186.332031 129.9375 178.558594 136.511719 161.097656 C 141.175781 161.578125 145.652344 160.378906 147.691406 156.390625 C 144.441406 154.511719 140.265625 155.113281 137.863281 156.324219 L 144.234375 138.183594 L 119.351562 154.117188 L 111.402344 154.117188 L 111.402344 138.183594 Z M 87.550781 138.183594 " clip-rule="nonzero"/></clipPath><clipPath id="e9160b9de5"><path d="M 76 177 L 100 177 L 100 186.332031 L 76 186.332031 Z M 76 177 " clip-rule="nonzero"/></clipPath><clipPath id="c51acaac76"><path d="M 87.550781 138.183594 L 87.550781 154.117188 L 79.945312 154.117188 L 79.945312 162.085938 L 73.582031 162.085938 L 73.507812 162.777344 C 73.113281 167.117188 73.867188 171.121094 75.605469 174.546875 L 76.1875 175.59375 C 76.535156 176.222656 76.949219 176.816406 77.375 177.390625 C 77.804688 177.96875 77.960938 178.285156 78.230469 178.667969 C 82.824219 183.835938 89.667969 186.332031 97.574219 186.332031 C 115.078125 186.332031 129.9375 178.558594 136.511719 161.097656 C 141.175781 161.578125 145.652344 160.378906 147.691406 156.390625 C 144.441406 154.511719 140.265625 155.113281 137.863281 156.324219 L 144.234375 138.183594 L 119.351562 154.117188 L 111.402344 154.117188 L 111.402344 138.183594 Z M 87.550781 138.183594 " clip-rule="nonzero"/></clipPath><clipPath id="ff73b2c57a"><path d="M 73.378906 154 L 147.691406 154 L 147.691406 186.332031 L 73.378906 186.332031 Z M 73.378906 154 " clip-rule="nonzero"/></clipPath><clipPath id="c5b053a162"><path d="M 87.550781 138.183594 L 87.550781 154.117188 L 79.945312 154.117188 L 79.945312 162.085938 L 73.582031 162.085938 L 73.507812 162.777344 C 73.113281 167.117188 73.867188 171.121094 75.605469 174.546875 L 76.1875 175.59375 C 76.535156 176.222656 76.949219 176.816406 77.375 177.390625 C 77.804688 177.96875 77.960938 178.285156 78.230469 178.667969 C 82.824219 183.835938 89.667969 186.332031 97.574219 186.332031 C 115.078125 186.332031 129.9375 178.558594 136.511719 161.097656 C 141.175781 161.578125 145.652344 160.378906 147.691406 156.390625 C 144.441406 154.511719 140.265625 155.113281 137.863281 156.324219 L 144.234375 138.183594 L 119.351562 154.117188 L 111.402344 154.117188 L 111.402344 138.183594 Z M 87.550781 138.183594 " clip-rule="nonzero"/></clipPath><clipPath id="1ecec70f31"><path d="M 61 165 L 149.984375 165 L 149.984375 176 L 61 176 Z M 61 165 " clip-rule="nonzero"/></clipPath></defs><g clip-path="url(#94c2b57d50)"><path fill="#394d54" d="M 112.257812 153.332031 L 120.160156 153.332031 L 120.160156 161.429688 L 124.15625 161.429688 C 126.039062 161.417969 127.867188 161.113281 129.648438 160.507812 C 130.507812 160.214844 131.472656 159.808594 132.316406 159.296875 C 131.203125 157.839844 130.632812 155.996094 130.445312 154.175781 C 130.21875 151.707031 130.714844 148.488281 132.386719 146.554688 L 133.214844 145.59375 L 134.207031 146.390625 C 136.699219 148.398438 138.796875 151.203125 139.167969 154.398438 C 142.167969 153.515625 145.691406 153.726562 148.339844 155.253906 L 149.425781 155.882812 L 148.855469 157 C 146.632812 161.371094 141.953125 162.730469 137.378906 162.488281 C 130.539062 179.570312 115.640625 187.65625 97.578125 187.65625 C 88.246094 187.65625 79.683594 184.160156 74.8125 175.863281 C 74.523438 175.347656 74.28125 174.808594 74.019531 174.277344 C 72.375 170.625 71.824219 166.625 72.195312 162.648438 L 72.308594 161.453125 L 79.046875 161.453125 L 79.046875 153.339844 L 86.949219 153.339844 L 86.949219 145.417969 L 102.753906 145.417969 L 102.753906 137.5 L 112.238281 137.5 L 112.238281 153.339844 " fill-opacity="1" fill-rule="nonzero"/></g><g clip-path="url(#e6a3efd18d)"><g clip-path="url(#c778c91a65)"><path fill="#20c2ef" d="M 104.09375 138.8125 L 110.941406 138.8125 L 110.941406 145.675781 L 104.09375 145.675781 Z M 104.09375 138.8125 " fill-opacity="1" fill-rule="nonzero"/></g></g><g clip-path="url(#2ce9d1c997)"><g clip-path="url(#3c457977df)"><path stroke-linecap="butt" transform="matrix(0.34563, 0, 0, 0.346398, 61.2831, 137.490826)" fill-opacity="1" fill="#000000" fill-rule="nonzero" stroke-linejoin="miter" d="M 126.292379 21.982327 L 126.292379 5.46188 M 129.264755 21.97105 L 129.264755 5.46188 M 132.259735 21.97105 L 132.259735 5.46188 M 135.266016 21.97105 L 135.266016 5.46188 M 138.272298 21.97105 L 138.272298 5.46188 M 141.244674 21.97105 L 141.244674 5.46188 " stroke="#394d54" stroke-width="1.56" stroke-opacity="1" stroke-miterlimit="4"/></g></g><g clip-path="url(#e2fa2aef65)"><g clip-path="url(#eb8f38056a)"><path fill="#00acd3" d="M 111.996094 145.679688 L 118.847656 145.679688 L 118.847656 138.816406 L 111.996094 138.816406 Z M 111.996094 145.679688 " fill-opacity="1" fill-rule="nonzero"/></g></g><g clip-path="url(#77f0100d75)"><g clip-path="url(#0b6094275c)"><path stroke-linecap="butt" transform="matrix(0.34563, 0, 0, -0.346398, 69.186283, 146.995553)" fill-opacity="1" fill="#000000" fill-rule="nonzero" stroke-linejoin="miter" d="M 126.289952 21.976835 L 126.289952 5.456388 M 129.262328 21.976835 L 129.262328 5.456388 M 132.268609 21.976835 L 132.268609 5.456388 M 135.263589 21.976835 L 135.263589 5.456388 M 138.269871 21.976835 L 138.269871 5.456388 M 141.242247 21.976835 L 141.242247 5.456388 " stroke="#394d54" stroke-width="1.56" stroke-opacity="1" stroke-miterlimit="4"/></g></g><g clip-path="url(#e92bde63f0)"><g clip-path="url(#c4e3751d4c)"><path fill="#00acd3" d="M 72.480469 146.726562 L 79.328125 146.726562 L 79.328125 153.59375 L 72.480469 153.59375 Z M 72.480469 146.726562 " fill-opacity="1" fill-rule="nonzero"/></g></g><g clip-path="url(#7e3eb2c735)"><g clip-path="url(#b93f5f3ebe)"><path fill="#20c2ef" d="M 72.480469 154.652344 L 79.328125 154.652344 L 79.328125 161.515625 L 72.480469 161.515625 Z M 72.480469 154.652344 " fill-opacity="1" fill-rule="nonzero"/></g></g><g clip-path="url(#5ff3787dc4)"><g clip-path="url(#47e92b9bdc)"><path stroke-linecap="butt" transform="matrix(0.34563, 0, 0, 0.346398, 29.670358, 145.411572)" fill-opacity="1" fill="#000000" fill-rule="nonzero" stroke-linejoin="miter" d="M 126.290821 21.97431 L 126.290821 5.465139 M 129.263197 21.97431 L 129.263197 5.465139 M 132.269479 21.97431 L 132.269479 5.465139 M 135.264458 21.97431 L 135.264458 5.465139 M 138.27074 21.97431 L 138.27074 5.465139 M 141.243116 21.97431 L 141.243116 5.465139 " stroke="#394d54" stroke-width="1.56" stroke-opacity="1" stroke-miterlimit="4"/></g></g><g clip-path="url(#b44fff596c)"><g clip-path="url(#50546b57e0)"><path fill="#000000" d="M 73.320312 160.945312 L 73.320312 155.222656 M 74.347656 160.945312 L 74.347656 155.222656 M 75.386719 160.945312 L 75.386719 155.222656 M 76.421875 160.945312 L 76.421875 155.222656 M 77.460938 160.945312 L 77.460938 155.222656 M 78.488281 160.945312 L 78.488281 155.222656 " fill-opacity="1" fill-rule="nonzero"/></g></g><g clip-path="url(#6c5fd2de52)"><g clip-path="url(#edac58f0c5)"><path stroke-linecap="butt" transform="matrix(0.34563, 0, 0, 0.346398, 29.670358, 153.332318)" fill="none" stroke-linejoin="miter" d="M 126.290821 21.977569 L 126.290821 5.457122 M 129.263197 21.977569 L 129.263197 5.457122 M 132.269479 21.977569 L 132.269479 5.457122 M 135.264458 21.977569 L 135.264458 5.457122 M 138.27074 21.977569 L 138.27074 5.457122 M 141.243116 21.977569 L 141.243116 5.457122 " stroke="#394d54" stroke-width="1.56" stroke-opacity="1" stroke-miterlimit="4"/></g></g><g clip-path="url(#dce579a192)"><g clip-path="url(#6cc25ac2c9)"><path fill="#00acd3" d="M 80.382812 161.519531 L 87.234375 161.519531 L 87.234375 154.65625 L 80.382812 154.65625 Z M 80.382812 161.519531 " fill-opacity="1" fill-rule="nonzero"/></g></g><g clip-path="url(#30a5370829)"><g clip-path="url(#facda9cfad)"><path fill="#20c2ef" d="M 80.382812 153.597656 L 87.234375 153.597656 L 87.234375 146.730469 L 80.382812 146.730469 Z M 80.382812 153.597656 " fill-opacity="1" fill-rule="nonzero"/></g></g><g clip-path="url(#fa1021d6ea)"><g clip-path="url(#a5af8b54b7)"><path fill="#000000" d="M 81.222656 155.222656 L 81.222656 160.945312 M 82.25 155.222656 L 82.25 160.945312 M 83.289062 155.222656 L 83.289062 160.945312 M 84.324219 155.222656 L 84.324219 160.945312 M 85.363281 155.222656 L 85.363281 160.945312 M 86.390625 155.222656 L 86.390625 160.945312 " fill-opacity="1" fill-rule="nonzero"/></g></g><g clip-path="url(#1c3f3f70c6)"><g clip-path="url(#b6d61997d3)"><path stroke-linecap="butt" transform="matrix(0.34563, 0, 0, -0.346398, 37.573545, 162.83703)" fill="none" stroke-linejoin="miter" d="M 126.288382 21.981551 L 126.288382 5.461104 M 129.260758 21.981551 L 129.260758 5.461104 M 132.26704 21.981551 L 132.26704 5.461104 M 135.262019 21.981551 L 135.262019 5.461104 M 138.268301 21.981551 L 138.268301 5.461104 M 141.240677 21.981551 L 141.240677 5.461104 " stroke="#394d54" stroke-width="1.56" stroke-opacity="1" stroke-miterlimit="4"/></g></g><g clip-path="url(#bad34beeef)"><g clip-path="url(#287d62b245)"><path fill="#000000" d="M 81.222656 147.304688 L 81.222656 153.023438 M 82.25 147.304688 L 82.25 153.023438 M 83.289062 147.304688 L 83.289062 153.023438 M 84.324219 147.304688 L 84.324219 153.023438 M 85.363281 147.304688 L 85.363281 153.023438 M 86.390625 147.304688 L 86.390625 153.023438 " fill-opacity="1" fill-rule="nonzero"/></g></g><g clip-path="url(#560a330392)"><g clip-path="url(#64a574b626)"><path stroke-linecap="butt" transform="matrix(0.34563, 0, 0, -0.346398, 37.573545, 154.916299)" fill="none" stroke-linejoin="miter" d="M 126.288382 21.973576 L 126.288382 5.464405 M 129.260758 21.973576 L 129.260758 5.464405 M 132.26704 21.973576 L 132.26704 5.464405 M 135.262019 21.973576 L 135.262019 5.464405 M 138.268301 21.973576 L 138.268301 5.464405 M 141.240677 21.973576 L 141.240677 5.464405 " stroke="#394d54" stroke-width="1.56" stroke-opacity="1" stroke-miterlimit="4"/></g></g><g clip-path="url(#742050888f)"><g clip-path="url(#eda1a51e22)"><path fill="#00acd3" d="M 88.285156 146.726562 L 95.136719 146.726562 L 95.136719 153.59375 L 88.285156 153.59375 Z M 88.285156 146.726562 " fill-opacity="1" fill-rule="nonzero"/></g></g><g clip-path="url(#ebd4aa9522)"><g clip-path="url(#6525af1c22)"><path fill="#20c2ef" d="M 88.285156 154.652344 L 95.136719 154.652344 L 95.136719 161.515625 L 88.285156 161.515625 Z M 88.285156 154.652344 " fill-opacity="1" fill-rule="nonzero"/></g></g><g clip-path="url(#0d3bec1199)"><g clip-path="url(#8311e3d8ca)"><path fill="#000000" d="M 89.125 153.023438 L 89.125 147.304688 M 90.152344 153.023438 L 90.152344 147.304688 M 91.191406 153.023438 L 91.191406 147.304688 M 92.230469 153.023438 L 92.230469 147.304688 M 93.265625 153.023438 L 93.265625 147.304688 M 94.292969 153.023438 L 94.292969 147.304688 " fill-opacity="1" fill-rule="nonzero"/></g></g><g clip-path="url(#b3f6ae53cb)"><g clip-path="url(#f7d5421b68)"><path stroke-linecap="butt" transform="matrix(0.34563, 0, 0, 0.346398, 45.476728, 145.411572)" fill="none" stroke-linejoin="miter" d="M 126.285952 21.97431 L 126.285952 5.465139 M 129.258329 21.97431 L 129.258329 5.465139 M 132.26461 21.97431 L 132.26461 5.465139 M 135.270892 21.97431 L 135.270892 5.465139 M 138.265872 21.97431 L 138.265872 5.465139 M 141.238248 21.97431 L 141.238248 5.465139 " stroke="#394d54" stroke-width="1.56" stroke-opacity="1" stroke-miterlimit="4"/></g></g><g clip-path="url(#ff8ea68dad)"><g clip-path="url(#18c2e03af8)"><path fill="#000000" d="M 89.125 160.945312 L 89.125 155.222656 M 90.152344 160.945312 L 90.152344 155.222656 M 91.191406 160.945312 L 91.191406 155.222656 M 92.230469 160.945312 L 92.230469 155.222656 M 93.265625 160.945312 L 93.265625 155.222656 M 94.292969 160.945312 L 94.292969 155.222656 " fill-opacity="1" fill-rule="nonzero"/></g></g><g clip-path="url(#316e478c65)"><g clip-path="url(#e6e6378788)"><path stroke-linecap="butt" transform="matrix(0.34563, 0, 0, 0.346398, 45.476728, 153.332318)" fill="none" stroke-linejoin="miter" d="M 126.285952 21.977569 L 126.285952 5.457122 M 129.258329 21.977569 L 129.258329 5.457122 M 132.26461 21.977569 L 132.26461 5.457122 M 135.270892 21.977569 L 135.270892 5.457122 M 138.265872 21.977569 L 138.265872 5.457122 M 141.238248 21.977569 L 141.238248 5.457122 " stroke="#394d54" stroke-width="1.56" stroke-opacity="1" stroke-miterlimit="4"/></g></g><g clip-path="url(#596d3f52e3)"><g clip-path="url(#6ea62eef0d)"><path fill="#00acd3" d="M 96.191406 161.519531 L 103.039062 161.519531 L 103.039062 154.65625 L 96.1875 154.65625 Z M 96.191406 161.519531 " fill-opacity="1" fill-rule="nonzero"/></g></g><g clip-path="url(#a17182eea4)"><g clip-path="url(#9f7fbbb8b2)"><path fill="#20c2ef" d="M 96.191406 153.597656 L 103.039062 153.597656 L 103.039062 146.730469 L 96.1875 146.730469 Z M 96.191406 153.597656 " fill-opacity="1" fill-rule="nonzero"/></g></g><g clip-path="url(#0475c43b8e)"><g clip-path="url(#91edff9f30)"><path fill="#000000" d="M 97.03125 155.222656 L 97.03125 160.945312 M 98.058594 155.222656 L 98.058594 160.945312 M 99.09375 155.222656 L 99.09375 160.945312 M 100.132812 155.222656 L 100.132812 160.945312 M 101.171875 155.222656 L 101.171875 160.945312 M 102.195312 155.222656 L 102.195312 160.945312 " fill-opacity="1" fill-rule="nonzero"/></g></g><g clip-path="url(#d2f0650364)"><g clip-path="url(#816de1c3d1)"><path stroke-linecap="butt" transform="matrix(0.34563, 0, 0, -0.346398, 53.379915, 162.83703)" fill="none" stroke-linejoin="miter" d="M 126.294813 21.981551 L 126.294813 5.461104 M 129.267189 21.981551 L 129.267189 5.461104 M 132.262169 21.981551 L 132.262169 5.461104 M 135.268451 21.981551 L 135.268451 5.461104 M 138.274732 21.981551 L 138.274732 5.461104 M 141.235807 21.981551 L 141.235807 5.461104 " stroke="#394d54" stroke-width="1.56" stroke-opacity="1" stroke-miterlimit="4"/></g></g><g clip-path="url(#9d7d484344)"><g clip-path="url(#a7dc499088)"><path fill="#000000" d="M 97.03125 147.304688 L 97.03125 153.023438 M 98.058594 147.304688 L 98.058594 153.023438 M 99.09375 147.304688 L 99.09375 153.023438 M 100.132812 147.304688 L 100.132812 153.023438 M 101.171875 147.304688 L 101.171875 153.023438 M 102.195312 147.304688 L 102.195312 153.023438 " fill-opacity="1" fill-rule="nonzero"/></g></g><g clip-path="url(#a4e247f1e7)"><g clip-path="url(#98ec233476)"><path stroke-linecap="butt" transform="matrix(0.34563, 0, 0, -0.346398, 53.379915, 154.916299)" fill="none" stroke-linejoin="miter" d="M 126.294813 21.973576 L 126.294813 5.464405 M 129.267189 21.973576 L 129.267189 5.464405 M 132.262169 21.973576 L 132.262169 5.464405 M 135.268451 21.973576 L 135.268451 5.464405 M 138.274732 21.973576 L 138.274732 5.464405 M 141.235807 21.973576 L 141.235807 5.464405 " stroke="#394d54" stroke-width="1.56" stroke-opacity="1" stroke-miterlimit="4"/></g></g><g clip-path="url(#c1927f7033)"><g clip-path="url(#e28ebb670e)"><path fill="#00acd3" d="M 104.09375 146.726562 L 110.941406 146.726562 L 110.941406 153.59375 L 104.09375 153.59375 Z M 104.09375 146.726562 " fill-opacity="1" fill-rule="nonzero"/></g></g><g clip-path="url(#f5bf9ccaa9)"><g clip-path="url(#0cf188f18b)"><path fill="#20c2ef" d="M 104.09375 154.652344 L 110.941406 154.652344 L 110.941406 161.515625 L 104.09375 161.515625 Z M 104.09375 154.652344 " fill-opacity="1" fill-rule="nonzero"/></g></g><g clip-path="url(#e5074ce12e)"><g clip-path="url(#27bbf13865)"><path stroke-linecap="butt" transform="matrix(0.34563, 0, 0, 0.346398, 61.2831, 145.411572)" fill-opacity="1" fill="#000000" fill-rule="nonzero" stroke-linejoin="miter" d="M 126.292379 21.97431 L 126.292379 5.465139 M 129.264755 21.97431 L 129.264755 5.465139 M 132.259735 21.97431 L 132.259735 5.465139 M 135.266016 21.97431 L 135.266016 5.465139 M 138.272298 21.97431 L 138.272298 5.465139 M 141.244674 21.97431 L 141.244674 5.465139 " stroke="#394d54" stroke-width="1.56" stroke-opacity="1" stroke-miterlimit="4"/></g></g><g clip-path="url(#7c216fab62)"><g clip-path="url(#f2246dfaf7)"><path fill="#000000" d="M 104.933594 160.945312 L 104.933594 155.222656 M 105.960938 160.945312 L 105.960938 155.222656 M 106.996094 160.945312 L 106.996094 155.222656 M 108.035156 160.945312 L 108.035156 155.222656 M 109.074219 160.945312 L 109.074219 155.222656 M 110.101562 160.945312 L 110.101562 155.222656 " fill-opacity="1" fill-rule="nonzero"/></g></g><g clip-path="url(#e16d80fff8)"><g clip-path="url(#87e9f15be1)"><path stroke-linecap="butt" transform="matrix(0.34563, 0, 0, 0.346398, 61.2831, 153.332318)" fill="none" stroke-linejoin="miter" d="M 126.292379 21.977569 L 126.292379 5.457122 M 129.264755 21.977569 L 129.264755 5.457122 M 132.259735 21.977569 L 132.259735 5.457122 M 135.266016 21.977569 L 135.266016 5.457122 M 138.272298 21.977569 L 138.272298 5.457122 M 141.244674 21.977569 L 141.244674 5.457122 " stroke="#394d54" stroke-width="1.56" stroke-opacity="1" stroke-miterlimit="4"/></g></g><g clip-path="url(#62010fe2ae)"><g clip-path="url(#7d7698f442)"><path fill="#00acd3" d="M 111.996094 161.519531 L 118.847656 161.519531 L 118.847656 154.65625 L 111.996094 154.65625 Z M 111.996094 161.519531 " fill-opacity="1" fill-rule="nonzero"/></g></g><g clip-path="url(#6e0a892dfa)"><g clip-path="url(#a7b0b89d7b)"><path fill="#20c2ef" d="M 111.996094 153.597656 L 118.847656 153.597656 L 118.847656 146.730469 L 111.996094 146.730469 Z M 111.996094 153.597656 " fill-opacity="1" fill-rule="nonzero"/></g></g><g clip-path="url(#ca2c5ab04f)"><g clip-path="url(#5a386ff785)"><path fill="#000000" d="M 112.835938 155.222656 L 112.835938 160.945312 M 113.863281 155.222656 L 113.863281 160.945312 M 114.902344 155.222656 L 114.902344 160.945312 M 115.9375 155.222656 L 115.9375 160.945312 M 116.976562 155.222656 L 116.976562 160.945312 M 118.003906 155.222656 L 118.003906 160.945312 " fill-opacity="1" fill-rule="nonzero"/></g></g><g clip-path="url(#e009326771)"><g clip-path="url(#b08eae9530)"><path stroke-linecap="butt" transform="matrix(0.34563, 0, 0, -0.346398, 69.186283, 162.83703)" fill="none" stroke-linejoin="miter" d="M 126.289952 21.981551 L 126.289952 5.461104 M 129.262328 21.981551 L 129.262328 5.461104 M 132.268609 21.981551 L 132.268609 5.461104 M 135.263589 21.981551 L 135.263589 5.461104 M 138.269871 21.981551 L 138.269871 5.461104 M 141.242247 21.981551 L 141.242247 5.461104 " stroke="#394d54" stroke-width="1.56" stroke-opacity="1" stroke-miterlimit="4"/></g></g><g clip-path="url(#d359b8e061)"><g clip-path="url(#f24f164c15)"><path stroke-linecap="butt" transform="matrix(0.34563, 0, 0, -0.346398, 69.186283, 154.916299)" fill-opacity="1" fill="#000000" fill-rule="nonzero" stroke-linejoin="miter" d="M 126.289952 21.973576 L 126.289952 5.464405 M 129.262328 21.973576 L 129.262328 5.464405 M 132.268609 21.973576 L 132.268609 5.464405 M 135.263589 21.973576 L 135.263589 5.464405 M 138.269871 21.973576 L 138.269871 5.464405 M 141.242247 21.973576 L 141.242247 5.464405 " stroke="#394d54" stroke-width="1.56" stroke-opacity="1" stroke-miterlimit="4"/></g></g><g clip-path="url(#cd524241e3)"><g clip-path="url(#ffa0ad06e1)"><path fill="#17b5eb" d="M 137.863281 156.328125 C 138.394531 152.199219 135.3125 148.957031 133.402344 147.417969 C 131.199219 149.972656 130.855469 156.660156 134.3125 159.476562 C 132.382812 161.191406 128.320312 162.75 124.160156 162.75 L 73.03125 162.75 C 72.628906 167.101562 73.03125 188.066406 73.03125 188.066406 L 148.035156 188.066406 L 147.695312 156.394531 C 144.445312 154.515625 140.269531 155.117188 137.863281 156.328125 " fill-opacity="1" fill-rule="nonzero"/></g></g><g clip-path="url(#df7f3ef8e9)"><g clip-path="url(#f2e7782cc4)"><path fill="#000000" d="M 73.035156 168.320312 L 73.035156 188.066406 L 148.035156 188.066406 L 148.035156 168.320312 " fill-opacity="0.17" fill-rule="nonzero"/></g></g><g clip-path="url(#e9160b9de5)"><g clip-path="url(#c51acaac76)"><path fill="#d4edf1" d="M 99.730469 186.296875 C 95.050781 184.074219 92.484375 181.046875 91.054688 177.746094 L 76.835938 178.363281 L 84.09375 188.0625 L 99.730469 186.296875 " fill-opacity="1" fill-rule="nonzero"/></g></g><g clip-path="url(#ff73b2c57a)"><g clip-path="url(#c5b053a162)"><path fill="#000000" d="M 138.1875 156.175781 L 138.1875 156.183594 C 130.976562 165.503906 120.632812 173.636719 109.53125 177.910156 C 99.628906 181.722656 90.992188 181.742188 85.035156 178.679688 C 84.394531 178.316406 83.765625 177.914062 83.132812 177.53125 C 78.765625 174.472656 76.304688 169.414062 76.511719 162.746094 L 73.035156 162.746094 L 73.035156 188.066406 L 148.039062 188.066406 L 148.039062 154.8125 L 139.398438 154.8125 Z M 138.1875 156.175781 " fill-opacity="0.085" fill-rule="nonzero"/></g></g><path stroke-linecap="round" transform="matrix(1.871713, 0, 0, 1.875871, 55.53601, 159.997533)" fill="none" stroke-linejoin="miter" d="M 11.496785 9.613517 C 14.111787 9.755118 16.902095 9.782188 19.337616 9.01796 " stroke="#394d54" stroke-width="0.628" stroke-opacity="1" stroke-miterlimit="4"/><path fill="#d4edf1" d="M 96.597656 174.542969 C 96.59375 174.792969 96.546875 175.035156 96.453125 175.265625 C 96.355469 175.496094 96.21875 175.703125 96.042969 175.878906 C 95.863281 176.054688 95.660156 176.191406 95.429688 176.289062 C 95.199219 176.386719 94.957031 176.433594 94.707031 176.433594 C 94.457031 176.433594 94.214844 176.386719 93.984375 176.289062 C 93.753906 176.195312 93.546875 176.058594 93.371094 175.878906 C 93.195312 175.703125 93.058594 175.496094 92.960938 175.265625 C 92.863281 175.035156 92.816406 174.792969 92.816406 174.542969 C 92.816406 174.289062 92.863281 174.046875 92.960938 173.816406 C 93.054688 173.585938 93.191406 173.378906 93.371094 173.203125 C 93.546875 173.023438 93.753906 172.886719 93.984375 172.789062 C 94.214844 172.695312 94.457031 172.648438 94.707031 172.648438 C 94.957031 172.648438 95.199219 172.695312 95.429688 172.792969 C 95.660156 172.886719 95.867188 173.023438 96.042969 173.203125 C 96.21875 173.378906 96.355469 173.585938 96.453125 173.816406 C 96.546875 174.046875 96.597656 174.289062 96.597656 174.542969 Z M 96.597656 174.542969 " fill-opacity="1" fill-rule="nonzero"/><g clip-path="url(#1ecec70f31)"><path fill="#394d54" d="M 95.214844 173.277344 C 95.050781 173.371094 94.9375 173.550781 94.9375 173.757812 C 94.9375 174.066406 95.1875 174.3125 95.492188 174.3125 C 95.699219 174.3125 95.867188 174.195312 95.976562 174.023438 C 96.046875 174.191406 96.082031 174.363281 96.082031 174.542969 C 96.082031 175.292969 95.476562 175.898438 94.726562 175.898438 C 93.980469 175.898438 93.375 175.292969 93.375 174.542969 C 93.375 173.792969 93.980469 173.1875 94.726562 173.1875 C 94.898438 173.1875 95.058594 173.21875 95.21875 173.277344 Z M 61.28125 168.71875 L 149.183594 168.71875 C 147.269531 168.234375 143.128906 167.59375 143.8125 165.0625 C 140.332031 169.097656 131.9375 167.875 129.824219 165.902344 C 127.464844 169.332031 113.730469 168.027344 112.773438 165.339844 C 109.816406 168.816406 100.65625 168.816406 97.699219 165.339844 C 96.738281 168.011719 83.007812 169.316406 80.664062 165.902344 C 78.527344 167.875 70.136719 169.101562 66.652344 165.0625 C 67.335938 167.574219 63.195312 168.25 61.28125 168.71875 " fill-opacity="1" fill-rule="nonzero"/></g><g fill="#000000" fill-opacity="1"><g transform="translate(155.627685, 174.101599)"><g><path d="M 5.375 -18.59375 C 5.375 -19.320312 5.3125 -20.066406 5.1875 -20.828125 C 5.113281 -21.191406 4.929688 -21.492188 4.640625 -21.734375 C 4.347656 -21.972656 4.015625 -22.164062 3.640625 -22.3125 C 3.265625 -22.457031 2.78125 -22.609375 2.1875 -22.765625 C 1.75 -22.890625 1.4375 -22.984375 1.25 -23.046875 L 1.296875 -23.984375 L 12.1875 -23.984375 C 15.257812 -23.984375 17.960938 -23.582031 20.296875 -22.78125 C 22.628906 -21.976562 24.46875 -20.695312 25.8125 -18.9375 C 27.164062 -17.175781 27.84375 -14.90625 27.84375 -12.125 C 27.84375 -9.976562 27.328125 -7.984375 26.296875 -6.140625 C 25.273438 -4.296875 23.757812 -2.8125 21.75 -1.6875 C 19.75 -0.5625 17.34375 0 14.53125 0 L 1.296875 0 L 1.25 -0.953125 L 2.234375 -1.21875 C 2.921875 -1.375 3.472656 -1.53125 3.890625 -1.6875 C 4.304688 -1.851562 4.65625 -2.125 4.9375 -2.5 C 5.226562 -2.875 5.375 -3.382812 5.375 -4.03125 Z M 9.34375 -4.984375 C 9.34375 -3.921875 9.546875 -3.082031 9.953125 -2.46875 C 10.367188 -1.851562 11.070312 -1.519531 12.0625 -1.46875 C 12.75 -1.4375 13.457031 -1.421875 14.1875 -1.421875 C 16.195312 -1.421875 17.898438 -1.890625 19.296875 -2.828125 C 20.703125 -3.765625 21.75 -4.984375 22.4375 -6.484375 C 23.125 -7.984375 23.46875 -9.5625 23.46875 -11.21875 C 23.46875 -13.414062 23.070312 -15.363281 22.28125 -17.0625 C 21.5 -18.757812 20.28125 -20.097656 18.625 -21.078125 C 16.976562 -22.066406 14.914062 -22.5625 12.4375 -22.5625 L 9.34375 -22.5625 Z M 9.34375 -4.984375 "/></g></g></g><g fill="#000000" fill-opacity="1"><g transform="translate(185.157145, 174.101599)"><g><path d="M 10.109375 -17.046875 C 11.742188 -17.046875 13.234375 -16.691406 14.578125 -15.984375 C 15.921875 -15.285156 16.984375 -14.28125 17.765625 -12.96875 C 18.554688 -11.664062 18.953125 -10.148438 18.953125 -8.421875 C 18.953125 -6.679688 18.554688 -5.144531 17.765625 -3.8125 C 16.984375 -2.488281 15.9375 -1.457031 14.625 -0.71875 C 13.3125 0.0078125 11.875 0.375 10.3125 0.375 C 8.769531 0.375 7.320312 0 5.96875 -0.75 C 4.613281 -1.5 3.53125 -2.539062 2.71875 -3.875 C 1.914062 -5.207031 1.515625 -6.710938 1.515625 -8.390625 C 1.515625 -10.078125 1.90625 -11.578125 2.6875 -12.890625 C 3.476562 -14.210938 4.53125 -15.234375 5.84375 -15.953125 C 7.164062 -16.679688 8.585938 -17.046875 10.109375 -17.046875 Z M 10.546875 -1.0625 C 12.109375 -1.0625 13.296875 -1.617188 14.109375 -2.734375 C 14.921875 -3.859375 15.328125 -5.328125 15.328125 -7.140625 C 15.328125 -8.710938 15.109375 -10.160156 14.671875 -11.484375 C 14.234375 -12.804688 13.609375 -13.859375 12.796875 -14.640625 C 11.984375 -15.429688 11.050781 -15.828125 10 -15.828125 C 9.0625 -15.828125 8.234375 -15.597656 7.515625 -15.140625 C 6.804688 -14.679688 6.238281 -13.976562 5.8125 -13.03125 C 5.394531 -12.09375 5.1875 -10.910156 5.1875 -9.484375 C 5.1875 -8.085938 5.40625 -6.738281 5.84375 -5.4375 C 6.289062 -4.144531 6.921875 -3.09375 7.734375 -2.28125 C 8.546875 -1.46875 9.484375 -1.0625 10.546875 -1.0625 Z M 10.546875 -1.0625 "/></g></g></g><g fill="#000000" fill-opacity="1"><g transform="translate(205.610536, 174.101599)"><g><path d="M 16.1875 -3.46875 C 15.925781 -2.644531 15.460938 -1.941406 14.796875 -1.359375 C 14.140625 -0.785156 13.363281 -0.351562 12.46875 -0.0625 C 11.570312 0.226562 10.640625 0.375 9.671875 0.375 C 7.972656 0.375 6.503906 -0.0195312 5.265625 -0.8125 C 4.035156 -1.601562 3.101562 -2.65625 2.46875 -3.96875 C 1.832031 -5.289062 1.515625 -6.71875 1.515625 -8.25 C 1.515625 -9.875 1.898438 -11.359375 2.671875 -12.703125 C 3.441406 -14.046875 4.523438 -15.101562 5.921875 -15.875 C 7.328125 -16.65625 8.921875 -17.046875 10.703125 -17.046875 C 11.734375 -17.046875 12.675781 -16.894531 13.53125 -16.59375 C 14.394531 -16.300781 15.070312 -15.878906 15.5625 -15.328125 C 16.0625 -14.773438 16.3125 -14.132812 16.3125 -13.40625 C 16.3125 -12.851562 16.132812 -12.453125 15.78125 -12.203125 C 15.425781 -11.953125 15.046875 -11.828125 14.640625 -11.828125 C 14.265625 -11.828125 13.96875 -11.894531 13.75 -12.03125 C 13.539062 -12.175781 13.390625 -12.347656 13.296875 -12.546875 C 13.210938 -12.753906 13.128906 -13.039062 13.046875 -13.40625 C 12.941406 -13.875 12.816406 -14.253906 12.671875 -14.546875 C 12.535156 -14.835938 12.273438 -15.09375 11.890625 -15.3125 C 11.515625 -15.539062 10.972656 -15.664062 10.265625 -15.6875 C 9.316406 -15.726562 8.429688 -15.5 7.609375 -15 C 6.785156 -14.5 6.125 -13.757812 5.625 -12.78125 C 5.125 -11.800781 4.875 -10.625 4.875 -9.25 C 4.875 -7.96875 5.101562 -6.789062 5.5625 -5.71875 C 6.019531 -4.65625 6.6875 -3.800781 7.5625 -3.15625 C 8.4375 -2.519531 9.488281 -2.203125 10.71875 -2.203125 C 11.789062 -2.203125 12.679688 -2.332031 13.390625 -2.59375 C 14.097656 -2.851562 14.832031 -3.285156 15.59375 -3.890625 Z M 16.1875 -3.46875 "/></g></g></g><g fill="#000000" fill-opacity="1"><g transform="translate(223.652226, 174.101599)"><g><path d="M 1.484375 0 L 1.46875 -0.59375 C 1.46875 -0.789062 1.472656 -0.925781 1.484375 -1 C 2.203125 -1.164062 2.738281 -1.316406 3.09375 -1.453125 C 3.457031 -1.585938 3.753906 -1.804688 3.984375 -2.109375 C 4.222656 -2.421875 4.34375 -2.851562 4.34375 -3.40625 L 4.34375 -21.4375 C 4.21875 -21.625 3.945312 -21.847656 3.53125 -22.109375 C 3.113281 -22.367188 2.675781 -22.601562 2.21875 -22.8125 C 1.757812 -23.019531 1.421875 -23.140625 1.203125 -23.171875 L 1.203125 -23.8125 L 6.46875 -25.21875 L 7.765625 -25.34375 L 7.765625 -8.75 L 9.28125 -8.75 L 15.171875 -14.53125 C 15.203125 -14.59375 15.21875 -14.660156 15.21875 -14.734375 C 15.21875 -15.015625 15.101562 -15.203125 14.875 -15.296875 C 14.644531 -15.390625 14.300781 -15.457031 13.84375 -15.5 C 13.488281 -15.539062 13.234375 -15.582031 13.078125 -15.625 C 12.921875 -15.675781 12.84375 -15.785156 12.84375 -15.953125 C 12.84375 -16.117188 12.859375 -16.320312 12.890625 -16.5625 L 20.703125 -16.5625 L 20.75 -15.953125 C 20.75 -15.691406 20.242188 -15.457031 19.234375 -15.25 C 18.390625 -15.070312 17.757812 -14.804688 17.34375 -14.453125 L 12.265625 -9.25 L 17.125 -2.953125 C 17.507812 -2.441406 17.992188 -2.039062 18.578125 -1.75 C 19.171875 -1.457031 19.722656 -1.253906 20.234375 -1.140625 C 20.742188 -1.023438 21.097656 -0.96875 21.296875 -0.96875 L 21.234375 0 L 12.125 0 C 12.101562 -0.09375 12.078125 -0.273438 12.046875 -0.546875 C 12.023438 -0.816406 12.019531 -0.953125 12.03125 -0.953125 C 12.738281 -0.953125 13.222656 -1.035156 13.484375 -1.203125 C 13.742188 -1.367188 13.875 -1.554688 13.875 -1.765625 C 13.875 -1.878906 13.789062 -2.019531 13.625 -2.1875 L 9.34375 -7.734375 L 7.765625 -7.734375 L 7.765625 -4.09375 C 7.765625 -3.03125 8.03125 -2.265625 8.5625 -1.796875 C 9.101562 -1.328125 9.921875 -1.035156 11.015625 -0.921875 C 11.015625 -0.734375 11.007812 -0.546875 11 -0.359375 C 10.988281 -0.179688 10.984375 -0.0625 10.984375 0 Z M 1.484375 0 "/></g></g></g><g fill="#000000" fill-opacity="1"><g transform="translate(245.173391, 174.101599)"><g><path d="M 4.765625 -9.6875 C 4.753906 -9.5625 4.75 -9.382812 4.75 -9.15625 C 4.75 -7.601562 5.023438 -6.304688 5.578125 -5.265625 C 6.140625 -4.234375 6.890625 -3.46875 7.828125 -2.96875 C 8.773438 -2.476562 9.832031 -2.234375 11 -2.234375 C 12.539062 -2.234375 14.03125 -2.671875 15.46875 -3.546875 L 16 -3.03125 C 15.707031 -2.320312 15.210938 -1.707031 14.515625 -1.1875 C 13.828125 -0.675781 13.039062 -0.285156 12.15625 -0.015625 C 11.28125 0.242188 10.429688 0.375 9.609375 0.375 C 8.066406 0.375 6.675781 0.0078125 5.4375 -0.71875 C 4.207031 -1.445312 3.242188 -2.457031 2.546875 -3.75 C 1.859375 -5.050781 1.515625 -6.546875 1.515625 -8.234375 C 1.515625 -9.941406 1.882812 -11.46875 2.625 -12.8125 C 3.375 -14.15625 4.375 -15.195312 5.625 -15.9375 C 6.875 -16.675781 8.207031 -17.046875 9.625 -17.046875 C 10.789062 -17.046875 11.84375 -16.8125 12.78125 -16.34375 C 13.726562 -15.875 14.492188 -15.210938 15.078125 -14.359375 C 15.671875 -13.503906 16.046875 -12.523438 16.203125 -11.421875 C 16.335938 -10.859375 16.40625 -10.335938 16.40625 -9.859375 L 16.40625 -9.6875 Z M 11.40625 -10.859375 C 11.9375 -10.890625 12.390625 -10.988281 12.765625 -11.15625 C 12.679688 -12.625 12.335938 -13.769531 11.734375 -14.59375 C 11.140625 -15.414062 10.296875 -15.828125 9.203125 -15.828125 C 8.410156 -15.828125 7.703125 -15.585938 7.078125 -15.109375 C 6.460938 -14.628906 5.960938 -13.992188 5.578125 -13.203125 C 5.203125 -12.410156 4.957031 -11.539062 4.84375 -10.59375 Z M 11.40625 -10.859375 "/></g></g></g><g fill="#000000" fill-opacity="1"><g transform="translate(262.902119, 174.101599)"><g><path d="M 7.078125 -4.25 C 7.078125 -3.675781 7.140625 -3.164062 7.265625 -2.71875 C 7.390625 -2.269531 7.695312 -1.875 8.1875 -1.53125 C 8.6875 -1.1875 9.425781 -0.984375 10.40625 -0.921875 L 10.390625 0 L 0.796875 0 C 0.796875 -0.09375 0.789062 -0.25 0.78125 -0.46875 C 0.78125 -0.695312 0.785156 -0.875 0.796875 -1 L 1.40625 -1.15625 C 2.050781 -1.332031 2.515625 -1.492188 2.796875 -1.640625 C 3.078125 -1.785156 3.285156 -2.046875 3.421875 -2.421875 C 3.566406 -2.796875 3.640625 -3.367188 3.640625 -4.140625 L 3.640625 -13.40625 C 3.484375 -13.675781 3.191406 -13.925781 2.765625 -14.15625 C 2.335938 -14.382812 1.890625 -14.570312 1.421875 -14.71875 C 0.960938 -14.863281 0.734375 -14.929688 0.734375 -14.921875 L 0.78125 -15.5625 L 5.671875 -16.875 L 6.71875 -16.875 L 7.015625 -13.484375 C 7.703125 -14.742188 8.414062 -15.640625 9.15625 -16.171875 C 9.90625 -16.703125 10.757812 -16.96875 11.71875 -16.96875 C 12.207031 -16.96875 12.648438 -16.863281 13.046875 -16.65625 C 13.441406 -16.457031 13.753906 -16.203125 13.984375 -15.890625 C 14.210938 -15.578125 14.328125 -15.257812 14.328125 -14.9375 C 14.328125 -14.726562 14.269531 -14.445312 14.15625 -14.09375 C 14.039062 -13.738281 13.863281 -13.425781 13.625 -13.15625 C 13.382812 -12.882812 13.09375 -12.75 12.75 -12.75 C 12.351562 -12.75 12.046875 -12.835938 11.828125 -13.015625 C 11.609375 -13.191406 11.378906 -13.457031 11.140625 -13.8125 C 10.972656 -14.082031 10.8125 -14.285156 10.65625 -14.421875 C 10.5 -14.554688 10.304688 -14.625 10.078125 -14.625 C 9.679688 -14.625 9.328125 -14.507812 9.015625 -14.28125 C 8.703125 -14.050781 8.425781 -13.769531 8.1875 -13.4375 C 7.957031 -13.113281 7.675781 -12.675781 7.34375 -12.125 L 7.078125 -11.65625 Z M 7.078125 -4.25 "/></g></g></g></svg>