<svg xmlns="http://www.w3.org/2000/svg" xmlns:xlink="http://www.w3.org/1999/xlink" width="500" zoomAndPan="magnify" viewBox="0 0 375 374.999991" height="500" preserveAspectRatio="xMidYMid meet" version="1.0"><defs><clipPath id="d5f4c8cc75"><path d="M 220 239 L 233 239 L 233 261.8125 L 220 261.8125 Z M 220 239 " clip-rule="nonzero"/></clipPath><clipPath id="5298bba9ea"><path d="M 112.5 122.3125 L 253.5 122.3125 L 253.5 167 L 112.5 167 Z M 112.5 122.3125 " clip-rule="nonzero"/></clipPath><clipPath id="ac3d9fff5e"><path d="M 112.5 174 L 146 174 L 146 223 L 112.5 223 Z M 112.5 174 " clip-rule="nonzero"/></clipPath></defs><g clip-path="url(#d5f4c8cc75)"><path fill="#000000" d="M 220.253906 241.066406 L 220.253906 258.136719 C 220.253906 258.621094 220.347656 259.089844 220.535156 259.539062 C 220.71875 259.984375 220.984375 260.378906 221.328125 260.722656 C 221.671875 261.066406 222.070312 261.332031 222.519531 261.515625 C 222.96875 261.703125 223.4375 261.796875 223.921875 261.796875 L 228.816406 261.796875 C 229.304688 261.796875 229.773438 261.703125 230.222656 261.515625 C 230.671875 261.332031 231.066406 261.066406 231.410156 260.722656 C 231.753906 260.378906 232.019531 259.984375 232.207031 259.539062 C 232.394531 259.089844 232.488281 258.621094 232.488281 258.136719 L 232.488281 241.066406 C 232.488281 240.90625 232.457031 240.75 232.394531 240.601562 C 232.332031 240.449219 232.242188 240.320312 232.128906 240.203125 C 232.015625 240.089844 231.882812 240.003906 231.730469 239.941406 C 231.582031 239.878906 231.425781 239.847656 231.265625 239.847656 L 221.476562 239.847656 C 221.316406 239.847656 221.160156 239.878906 221.007812 239.941406 C 220.859375 240.003906 220.726562 240.089844 220.613281 240.203125 C 220.496094 240.320312 220.410156 240.449219 220.347656 240.601562 C 220.285156 240.75 220.253906 240.90625 220.253906 241.066406 Z M 220.253906 241.066406 " fill-opacity="1" fill-rule="nonzero"/></g><path fill="#000000" d="M 226.371094 225.214844 C 225.140625 225.207031 223.917969 225.113281 222.699219 224.9375 L 222.699219 237.410156 L 230.039062 237.410156 L 230.039062 224.9375 C 228.824219 225.113281 227.601562 225.207031 226.371094 225.214844 Z M 226.371094 225.214844 " fill-opacity="1" fill-rule="nonzero"/><path fill="#000000" d="M 241.050781 198.390625 C 241.050781 199.351562 240.957031 200.300781 240.769531 201.246094 C 240.582031 202.1875 240.304688 203.101562 239.933594 203.988281 C 239.566406 204.875 239.113281 205.71875 238.578125 206.519531 C 238.042969 207.316406 237.433594 208.058594 236.75 208.734375 C 236.070312 209.414062 235.328125 210.023438 234.527344 210.554688 C 233.726562 211.089844 232.878906 211.539062 231.988281 211.90625 C 231.097656 212.277344 230.179688 212.554688 229.234375 212.742188 C 228.289062 212.929688 227.335938 213.023438 226.371094 213.023438 C 225.40625 213.023438 224.453125 212.929688 223.507812 212.742188 C 222.5625 212.554688 221.644531 212.277344 220.753906 211.90625 C 219.863281 211.539062 219.015625 211.089844 218.214844 210.554688 C 217.414062 210.023438 216.671875 209.414062 215.988281 208.734375 C 215.308594 208.058594 214.699219 207.316406 214.164062 206.519531 C 213.628906 205.71875 213.175781 204.875 212.808594 203.988281 C 212.4375 203.101562 212.160156 202.1875 211.972656 201.246094 C 211.785156 200.300781 211.6875 199.351562 211.6875 198.390625 C 211.6875 197.429688 211.785156 196.476562 211.972656 195.535156 C 212.160156 194.59375 212.4375 193.679688 212.808594 192.789062 C 213.175781 191.902344 213.628906 191.058594 214.164062 190.261719 C 214.699219 189.460938 215.308594 188.722656 215.988281 188.042969 C 216.671875 187.363281 217.414062 186.757812 218.214844 186.222656 C 219.015625 185.691406 219.863281 185.238281 220.753906 184.871094 C 221.644531 184.503906 222.5625 184.226562 223.507812 184.039062 C 224.453125 183.851562 225.40625 183.757812 226.371094 183.757812 C 227.335938 183.757812 228.289062 183.851562 229.234375 184.039062 C 230.179688 184.226562 231.097656 184.503906 231.988281 184.871094 C 232.878906 185.238281 233.726562 185.691406 234.527344 186.222656 C 235.328125 186.757812 236.070312 187.363281 236.75 188.042969 C 237.433594 188.722656 238.042969 189.460938 238.578125 190.261719 C 239.113281 191.058594 239.566406 191.902344 239.933594 192.789062 C 240.304688 193.679688 240.582031 194.59375 240.769531 195.535156 C 240.957031 196.476562 241.050781 197.429688 241.050781 198.390625 Z M 241.050781 198.390625 " fill-opacity="1" fill-rule="nonzero"/><path fill="#000000" d="M 250.839844 198.390625 C 250.839844 197.589844 250.800781 196.792969 250.722656 196 C 250.644531 195.203125 250.523438 194.414062 250.367188 193.632812 C 250.210938 192.847656 250.019531 192.074219 249.785156 191.308594 C 249.554688 190.546875 249.28125 189.796875 248.976562 189.058594 C 248.667969 188.320312 248.328125 187.597656 247.949219 186.894531 C 247.570312 186.1875 247.160156 185.503906 246.714844 184.839844 C 246.269531 184.175781 245.792969 183.535156 245.285156 182.917969 C 244.777344 182.300781 244.238281 181.710938 243.671875 181.144531 C 243.105469 180.582031 242.511719 180.046875 241.894531 179.539062 C 241.273438 179.03125 240.628906 178.554688 239.964844 178.113281 C 239.296875 177.667969 238.613281 177.257812 237.90625 176.882812 C 237.199219 176.503906 236.472656 176.164062 235.734375 175.859375 C 234.992188 175.554688 234.238281 175.285156 233.472656 175.054688 C 232.707031 174.820312 231.929688 174.628906 231.144531 174.472656 C 230.359375 174.316406 229.566406 174.199219 228.769531 174.121094 C 227.972656 174.042969 227.171875 174.003906 226.371094 174.003906 C 225.570312 174.003906 224.769531 174.042969 223.972656 174.121094 C 223.175781 174.199219 222.382812 174.316406 221.597656 174.472656 C 220.8125 174.628906 220.035156 174.820312 219.269531 175.054688 C 218.5 175.285156 217.746094 175.554688 217.007812 175.859375 C 216.265625 176.164062 215.542969 176.503906 214.835938 176.882812 C 214.128906 177.257812 213.441406 177.667969 212.777344 178.113281 C 212.109375 178.554688 211.46875 179.03125 210.847656 179.539062 C 210.226562 180.046875 209.636719 180.582031 209.070312 181.144531 C 208.503906 181.710938 207.964844 182.300781 207.457031 182.917969 C 206.949219 183.535156 206.472656 184.175781 206.027344 184.839844 C 205.582031 185.503906 205.167969 186.1875 204.792969 186.894531 C 204.414062 187.597656 204.070312 188.320312 203.765625 189.058594 C 203.457031 189.796875 203.1875 190.546875 202.957031 191.308594 C 202.722656 192.074219 202.527344 192.847656 202.371094 193.632812 C 202.214844 194.414062 202.097656 195.203125 202.019531 196 C 201.941406 196.792969 201.902344 197.589844 201.902344 198.390625 C 201.902344 199.1875 201.941406 199.984375 202.019531 200.78125 C 202.097656 201.574219 202.214844 202.363281 202.371094 203.148438 C 202.527344 203.929688 202.722656 204.703125 202.957031 205.46875 C 203.1875 206.234375 203.457031 206.984375 203.765625 207.722656 C 204.070312 208.460938 204.414062 209.179688 204.792969 209.886719 C 205.167969 210.589844 205.582031 211.273438 206.027344 211.9375 C 206.472656 212.601562 206.949219 213.242188 207.457031 213.859375 C 207.964844 214.476562 208.503906 215.070312 209.070312 215.632812 C 209.636719 216.199219 210.226562 216.734375 210.847656 217.242188 C 211.46875 217.746094 212.109375 218.222656 212.777344 218.667969 C 213.441406 219.109375 214.128906 219.519531 214.835938 219.898438 C 215.542969 220.273438 216.265625 220.613281 217.007812 220.921875 C 217.746094 221.226562 218.5 221.496094 219.269531 221.726562 C 220.035156 221.957031 220.8125 222.152344 221.597656 222.308594 C 222.382812 222.464844 223.175781 222.582031 223.972656 222.660156 C 224.769531 222.738281 225.570312 222.777344 226.371094 222.777344 C 227.171875 222.777344 227.972656 222.734375 228.769531 222.65625 C 229.566406 222.578125 230.355469 222.460938 231.140625 222.304688 C 231.929688 222.148438 232.703125 221.953125 233.46875 221.71875 C 234.238281 221.488281 234.988281 221.21875 235.730469 220.914062 C 236.46875 220.605469 237.191406 220.265625 237.898438 219.890625 C 238.605469 219.511719 239.292969 219.101562 239.957031 218.660156 C 240.625 218.214844 241.265625 217.738281 241.886719 217.234375 C 242.503906 216.726562 243.097656 216.191406 243.664062 215.625 C 244.230469 215.0625 244.769531 214.46875 245.277344 213.851562 C 245.785156 213.234375 246.261719 212.597656 246.707031 211.933594 C 247.152344 211.269531 247.5625 210.585938 247.941406 209.878906 C 248.320312 209.175781 248.664062 208.457031 248.96875 207.71875 C 249.277344 206.980469 249.546875 206.230469 249.777344 205.464844 C 250.011719 204.703125 250.207031 203.929688 250.363281 203.144531 C 250.519531 202.363281 250.640625 201.574219 250.71875 200.777344 C 250.796875 199.984375 250.839844 199.1875 250.839844 198.390625 Z M 226.371094 215.460938 C 225.808594 215.460938 225.25 215.433594 224.691406 215.378906 C 224.132812 215.324219 223.578125 215.242188 223.027344 215.132812 C 222.480469 215.023438 221.933594 214.886719 221.398438 214.726562 C 220.863281 214.5625 220.335938 214.375 219.816406 214.160156 C 219.296875 213.945312 218.792969 213.707031 218.296875 213.445312 C 217.800781 213.179688 217.320312 212.894531 216.855469 212.582031 C 216.386719 212.273438 215.9375 211.941406 215.503906 211.585938 C 215.070312 211.230469 214.65625 210.855469 214.257812 210.460938 C 213.863281 210.066406 213.484375 209.652344 213.128906 209.21875 C 212.773438 208.789062 212.441406 208.339844 212.128906 207.875 C 211.816406 207.410156 211.53125 206.929688 211.265625 206.4375 C 211 205.945312 210.761719 205.4375 210.546875 204.921875 C 210.332031 204.40625 210.144531 203.878906 209.980469 203.34375 C 209.816406 202.808594 209.679688 202.269531 209.570312 201.71875 C 209.460938 201.171875 209.378906 200.621094 209.324219 200.0625 C 209.269531 199.507812 209.242188 198.949219 209.242188 198.390625 C 209.242188 197.832031 209.269531 197.273438 209.324219 196.714844 C 209.378906 196.160156 209.460938 195.609375 209.570312 195.058594 C 209.679688 194.511719 209.816406 193.96875 209.980469 193.433594 C 210.144531 192.898438 210.332031 192.375 210.546875 191.855469 C 210.761719 191.339844 211 190.835938 211.265625 190.34375 C 211.53125 189.847656 211.816406 189.371094 212.128906 188.90625 C 212.441406 188.441406 212.773438 187.992188 213.128906 187.558594 C 213.484375 187.128906 213.863281 186.714844 214.257812 186.320312 C 214.65625 185.921875 215.070312 185.546875 215.503906 185.195312 C 215.9375 184.839844 216.386719 184.507812 216.855469 184.195312 C 217.320312 183.886719 217.800781 183.597656 218.296875 183.335938 C 218.792969 183.070312 219.296875 182.832031 219.816406 182.617188 C 220.335938 182.402344 220.863281 182.214844 221.398438 182.054688 C 221.933594 181.890625 222.480469 181.757812 223.027344 181.648438 C 223.578125 181.539062 224.132812 181.457031 224.691406 181.402344 C 225.25 181.347656 225.808594 181.320312 226.371094 181.320312 C 226.929688 181.320312 227.492188 181.347656 228.050781 181.402344 C 228.609375 181.457031 229.160156 181.539062 229.710938 181.648438 C 230.261719 181.757812 230.804688 181.890625 231.34375 182.054688 C 231.878906 182.214844 232.40625 182.402344 232.925781 182.617188 C 233.441406 182.832031 233.949219 183.070312 234.445312 183.335938 C 234.9375 183.597656 235.417969 183.886719 235.886719 184.195312 C 236.351562 184.507812 236.804688 184.839844 237.238281 185.195312 C 237.671875 185.546875 238.085938 185.921875 238.480469 186.320312 C 238.878906 186.714844 239.253906 187.128906 239.609375 187.558594 C 239.964844 187.992188 240.300781 188.441406 240.613281 188.90625 C 240.921875 189.371094 241.210938 189.847656 241.476562 190.34375 C 241.742188 190.835938 241.980469 191.339844 242.195312 191.855469 C 242.410156 192.375 242.597656 192.898438 242.761719 193.433594 C 242.921875 193.96875 243.058594 194.511719 243.167969 195.058594 C 243.277344 195.609375 243.359375 196.160156 243.414062 196.714844 C 243.472656 197.273438 243.5 197.832031 243.5 198.390625 C 243.496094 198.949219 243.46875 199.507812 243.414062 200.0625 C 243.359375 200.617188 243.277344 201.171875 243.167969 201.71875 C 243.054688 202.265625 242.917969 202.808594 242.757812 203.34375 C 242.59375 203.878906 242.40625 204.402344 242.191406 204.917969 C 241.976562 205.4375 241.734375 205.941406 241.46875 206.433594 C 241.207031 206.925781 240.917969 207.40625 240.605469 207.871094 C 240.292969 208.332031 239.960938 208.78125 239.605469 209.214844 C 239.25 209.644531 238.871094 210.058594 238.476562 210.453125 C 238.078125 210.851562 237.664062 211.226562 237.230469 211.578125 C 236.796875 211.933594 236.347656 212.265625 235.882812 212.578125 C 235.414062 212.886719 234.933594 213.175781 234.441406 213.4375 C 233.945312 213.703125 233.441406 213.941406 232.921875 214.15625 C 232.402344 214.371094 231.875 214.558594 231.339844 214.722656 C 230.804688 214.882812 230.261719 215.019531 229.710938 215.128906 C 229.160156 215.238281 228.605469 215.320312 228.046875 215.375 C 227.492188 215.433594 226.929688 215.460938 226.371094 215.460938 Z M 226.371094 215.460938 " fill-opacity="1" fill-rule="nonzero"/><path fill="#000000" d="M 168.597656 181.753906 L 184.363281 181.753906 C 186.386719 181.753906 188.03125 180.015625 188.03125 177.878906 C 188.03125 175.742188 186.386719 174.003906 184.363281 174.003906 L 168.597656 174.003906 C 162.230469 174.003906 157.046875 179.421875 157.046875 186.082031 L 157.046875 210.695312 C 157.046875 217.359375 162.230469 222.777344 168.597656 222.777344 L 184.363281 222.777344 C 186.386719 222.777344 188.03125 221.039062 188.03125 218.902344 C 188.03125 216.765625 186.386719 215.027344 184.363281 215.027344 L 168.597656 215.027344 C 168.320312 215.023438 168.039062 214.992188 167.765625 214.929688 C 167.492188 214.871094 167.226562 214.785156 166.96875 214.675781 C 166.710938 214.5625 166.464844 214.429688 166.234375 214.269531 C 166.003906 214.109375 165.789062 213.929688 165.59375 213.730469 C 165.398438 213.527344 165.226562 213.308594 165.074219 213.074219 C 164.921875 212.839844 164.792969 212.59375 164.691406 212.332031 C 164.585938 212.070312 164.507812 211.804688 164.457031 211.527344 C 164.40625 211.253906 164.382812 210.976562 164.386719 210.695312 L 164.386719 203.484375 C 164.386719 203.320312 164.417969 203.167969 164.480469 203.015625 C 164.542969 202.867188 164.632812 202.734375 164.746094 202.621094 C 164.859375 202.507812 164.992188 202.417969 165.144531 202.355469 C 165.292969 202.296875 165.449219 202.265625 165.613281 202.265625 L 184.359375 202.265625 C 186.382812 202.265625 188.03125 200.527344 188.03125 198.390625 C 188.03125 196.253906 186.382812 194.515625 184.359375 194.515625 L 165.613281 194.515625 C 165.449219 194.515625 165.292969 194.484375 165.144531 194.421875 C 164.992188 194.359375 164.859375 194.273438 164.746094 194.15625 C 164.632812 194.042969 164.542969 193.910156 164.480469 193.761719 C 164.417969 193.613281 164.386719 193.457031 164.386719 193.296875 L 164.386719 186.082031 C 164.382812 185.804688 164.40625 185.527344 164.457031 185.25 C 164.507812 184.976562 164.585938 184.707031 164.691406 184.445312 C 164.792969 184.1875 164.921875 183.9375 165.074219 183.703125 C 165.226562 183.46875 165.398438 183.25 165.59375 183.050781 C 165.789062 182.847656 166.003906 182.667969 166.234375 182.507812 C 166.464844 182.351562 166.710938 182.214844 166.96875 182.105469 C 167.226562 181.992188 167.492188 181.90625 167.765625 181.847656 C 168.039062 181.789062 168.320312 181.757812 168.597656 181.753906 Z M 168.597656 181.753906 " fill-opacity="1" fill-rule="nonzero"/><g clip-path="url(#5298bba9ea)"><path fill="#000000" d="M 252.480469 125.886719 L 234.996094 122.441406 C 234.761719 122.394531 234.53125 122.414062 234.308594 122.503906 C 234.085938 122.589844 233.90625 122.730469 233.765625 122.925781 C 233.621094 123.121094 233.546875 123.335938 233.535156 123.578125 C 233.523438 123.816406 233.578125 124.039062 233.699219 124.246094 L 236.75 129.507812 C 236.835938 129.660156 236.886719 129.824219 236.902344 129.996094 C 236.917969 130.167969 236.898438 130.339844 236.84375 130.503906 C 236.789062 130.667969 236.703125 130.816406 236.582031 130.945312 C 236.464844 131.074219 236.324219 131.171875 236.164062 131.242188 L 198.398438 147.175781 C 198.253906 147.234375 198.105469 147.265625 197.949219 147.269531 C 197.792969 147.273438 197.644531 147.25 197.496094 147.195312 C 197.351562 147.140625 197.21875 147.0625 197.105469 146.960938 C 196.988281 146.855469 196.894531 146.734375 196.828125 146.597656 L 187.796875 128.597656 C 187.625 128.25 187.417969 127.921875 187.179688 127.609375 C 186.941406 127.300781 186.679688 127.019531 186.386719 126.757812 C 186.09375 126.5 185.78125 126.273438 185.441406 126.074219 C 185.105469 125.875 184.753906 125.710938 184.386719 125.578125 C 184.019531 125.449219 183.640625 125.355469 183.253906 125.296875 C 182.867188 125.238281 182.480469 125.214844 182.089844 125.230469 C 181.699219 125.246094 181.3125 125.300781 180.933594 125.390625 C 180.550781 125.480469 180.183594 125.601562 179.828125 125.761719 L 114.832031 153.140625 C 114.5 153.277344 114.195312 153.464844 113.917969 153.691406 C 113.640625 153.921875 113.402344 154.1875 113.203125 154.488281 C 113.003906 154.785156 112.851562 155.109375 112.746094 155.453125 C 112.644531 155.796875 112.589844 156.148438 112.589844 156.507812 L 112.589844 162.882812 C 112.507812 165.445312 115.414062 167.339844 117.734375 166.234375 L 178.417969 139.753906 C 178.5625 139.691406 178.710938 139.65625 178.867188 139.652344 C 179.027344 139.644531 179.179688 139.667969 179.324219 139.722656 C 179.472656 139.777344 179.605469 139.855469 179.722656 139.957031 C 179.839844 140.0625 179.933594 140.183594 180.003906 140.324219 L 189.089844 158.4375 C 189.269531 158.789062 189.480469 159.121094 189.722656 159.429688 C 189.964844 159.742188 190.234375 160.027344 190.53125 160.285156 C 190.832031 160.542969 191.148438 160.769531 191.492188 160.96875 C 191.832031 161.164062 192.191406 161.328125 192.5625 161.457031 C 192.9375 161.585938 193.316406 161.679688 193.707031 161.734375 C 194.101562 161.789062 194.492188 161.808594 194.886719 161.789062 C 195.28125 161.769531 195.667969 161.710938 196.054688 161.617188 C 196.4375 161.523438 196.808594 161.394531 197.164062 161.226562 L 241.265625 139.578125 C 241.554688 139.4375 241.851562 139.414062 242.160156 139.507812 C 242.46875 139.601562 242.703125 139.789062 242.867188 140.066406 L 245.4375 144.503906 C 245.558594 144.710938 245.726562 144.871094 245.9375 144.980469 C 246.152344 145.089844 246.378906 145.132812 246.617188 145.109375 C 246.855469 145.085938 247.070312 145 247.257812 144.851562 C 247.445312 144.703125 247.578125 144.515625 247.65625 144.289062 L 253.402344 127.476562 C 253.460938 127.308594 253.476562 127.136719 253.460938 126.964844 C 253.441406 126.789062 253.390625 126.625 253.300781 126.472656 C 253.210938 126.320312 253.097656 126.195312 252.953125 126.089844 C 252.808594 125.988281 252.652344 125.921875 252.480469 125.886719 Z M 252.480469 125.886719 " fill-opacity="1" fill-rule="nonzero"/></g><g clip-path="url(#ac3d9fff5e)"><path fill="#000000" d="M 131.011719 215.460938 L 124.769531 215.460938 C 124.464844 215.460938 124.164062 215.429688 123.863281 215.371094 C 123.566406 215.3125 123.273438 215.222656 122.992188 215.105469 C 122.710938 214.992188 122.441406 214.847656 122.1875 214.679688 C 121.933594 214.507812 121.699219 214.316406 121.484375 214.101562 C 121.269531 213.886719 121.078125 213.652344 120.90625 213.398438 C 120.738281 213.148438 120.59375 212.878906 120.476562 212.597656 C 120.359375 212.320312 120.273438 212.027344 120.210938 211.730469 C 120.152344 211.433594 120.121094 211.132812 120.121094 210.828125 C 120.121094 210.34375 120.027344 209.875 119.84375 209.425781 C 119.65625 208.980469 119.390625 208.582031 119.046875 208.242188 C 118.703125 207.898438 118.304688 207.632812 117.855469 207.449219 C 117.40625 207.261719 116.9375 207.167969 116.453125 207.167969 C 115.964844 207.167969 115.496094 207.261719 115.046875 207.449219 C 114.597656 207.632812 114.199219 207.898438 113.855469 208.242188 C 113.511719 208.582031 113.246094 208.980469 113.0625 209.425781 C 112.875 209.875 112.78125 210.34375 112.78125 210.828125 C 112.78125 211.613281 112.859375 212.386719 113.015625 213.15625 C 113.167969 213.925781 113.394531 214.671875 113.699219 215.398438 C 114 216.121094 114.367188 216.8125 114.804688 217.460938 C 115.242188 218.113281 115.742188 218.71875 116.296875 219.273438 C 116.855469 219.828125 117.457031 220.324219 118.113281 220.757812 C 118.765625 221.195312 119.457031 221.5625 120.183594 221.863281 C 120.910156 222.164062 121.660156 222.390625 122.433594 222.542969 C 123.203125 222.699219 123.984375 222.777344 124.769531 222.777344 L 131.011719 222.777344 C 131.933594 222.777344 132.847656 222.6875 133.753906 222.507812 C 134.660156 222.328125 135.542969 222.0625 136.394531 221.710938 C 137.25 221.355469 138.058594 220.925781 138.828125 220.414062 C 139.59375 219.902344 140.304688 219.320312 140.960938 218.667969 C 141.613281 218.019531 142.195312 217.308594 142.707031 216.542969 C 143.222656 215.777344 143.65625 214.972656 144.007812 214.121094 C 144.363281 213.269531 144.628906 212.394531 144.808594 211.488281 C 144.988281 210.585938 145.078125 209.675781 145.078125 208.753906 C 145.078125 207.832031 144.988281 206.921875 144.808594 206.019531 C 144.628906 205.117188 144.363281 204.238281 144.007812 203.386719 C 143.65625 202.539062 143.222656 201.730469 142.707031 200.964844 C 142.195312 200.199219 141.613281 199.488281 140.960938 198.839844 C 140.304688 198.1875 139.59375 197.605469 138.828125 197.09375 C 138.058594 196.582031 137.25 196.152344 136.394531 195.800781 C 135.542969 195.445312 134.660156 195.179688 133.753906 195 C 132.847656 194.820312 131.933594 194.730469 131.011719 194.730469 L 126.851562 194.730469 C 126.410156 194.730469 125.972656 194.6875 125.539062 194.601562 C 125.105469 194.515625 124.683594 194.390625 124.277344 194.222656 C 123.867188 194.050781 123.480469 193.847656 123.113281 193.601562 C 122.746094 193.355469 122.40625 193.078125 122.09375 192.765625 C 121.78125 192.457031 121.5 192.117188 121.257812 191.75 C 121.011719 191.386719 120.804688 191 120.632812 190.589844 C 120.464844 190.183594 120.335938 189.765625 120.25 189.332031 C 120.164062 188.902344 120.121094 188.464844 120.121094 188.023438 C 120.121094 187.585938 120.164062 187.148438 120.25 186.71875 C 120.335938 186.285156 120.464844 185.867188 120.632812 185.457031 C 120.804688 185.050781 121.011719 184.664062 121.257812 184.300781 C 121.5 183.933594 121.78125 183.59375 122.09375 183.28125 C 122.40625 182.972656 122.746094 182.695312 123.113281 182.449219 C 123.480469 182.203125 123.867188 181.996094 124.277344 181.828125 C 124.683594 181.660156 125.105469 181.535156 125.539062 181.449219 C 125.972656 181.363281 126.410156 181.320312 126.851562 181.320312 L 133.089844 181.320312 C 133.394531 181.320312 133.699219 181.347656 133.996094 181.410156 C 134.296875 181.46875 134.585938 181.554688 134.867188 181.671875 C 135.152344 181.789062 135.417969 181.933594 135.671875 182.101562 C 135.925781 182.269531 136.160156 182.460938 136.375 182.675781 C 136.59375 182.890625 136.785156 183.125 136.953125 183.378906 C 137.125 183.632812 137.265625 183.898438 137.382812 184.179688 C 137.5 184.460938 137.589844 184.75 137.648438 185.046875 C 137.710938 185.347656 137.738281 185.648438 137.738281 185.953125 C 137.738281 186.4375 137.832031 186.902344 138.019531 187.351562 C 138.203125 187.800781 138.46875 188.195312 138.8125 188.539062 C 139.160156 188.882812 139.554688 189.144531 140.003906 189.332031 C 140.453125 189.515625 140.921875 189.609375 141.410156 189.609375 C 141.894531 189.609375 142.363281 189.515625 142.8125 189.332031 C 143.265625 189.144531 143.660156 188.882812 144.003906 188.539062 C 144.347656 188.195312 144.613281 187.800781 144.800781 187.351562 C 144.988281 186.902344 145.078125 186.4375 145.078125 185.953125 C 145.078125 185.167969 145 184.390625 144.847656 183.621094 C 144.691406 182.851562 144.464844 182.105469 144.164062 181.382812 C 143.863281 180.65625 143.492188 179.96875 143.054688 179.316406 C 142.617188 178.664062 142.121094 178.0625 141.5625 177.507812 C 141.007812 176.953125 140.402344 176.457031 139.75 176.019531 C 139.09375 175.585938 138.402344 175.214844 137.675781 174.914062 C 136.949219 174.617188 136.199219 174.386719 135.429688 174.234375 C 134.65625 174.082031 133.878906 174.003906 133.089844 174.003906 L 126.851562 174.003906 C 125.925781 174.003906 125.011719 174.09375 124.105469 174.273438 C 123.199219 174.453125 122.320312 174.71875 121.464844 175.070312 C 120.613281 175.421875 119.800781 175.855469 119.035156 176.367188 C 118.265625 176.878906 117.554688 177.457031 116.902344 178.109375 C 116.25 178.761719 115.664062 179.46875 115.152344 180.234375 C 114.640625 181 114.207031 181.808594 113.851562 182.660156 C 113.5 183.507812 113.230469 184.386719 113.050781 185.289062 C 112.871094 186.191406 112.78125 187.105469 112.78125 188.023438 C 112.78125 188.945312 112.871094 189.859375 113.050781 190.761719 C 113.230469 191.664062 113.5 192.539062 113.851562 193.390625 C 114.207031 194.242188 114.640625 195.050781 115.152344 195.816406 C 115.664062 196.582031 116.25 197.289062 116.902344 197.941406 C 117.554688 198.589844 118.265625 199.171875 119.035156 199.683594 C 119.800781 200.195312 120.613281 200.628906 121.464844 200.980469 C 122.320312 201.332031 123.199219 201.597656 124.105469 201.777344 C 125.011719 201.957031 125.925781 202.046875 126.851562 202.046875 L 131.011719 202.046875 C 131.453125 202.046875 131.890625 202.089844 132.324219 202.175781 C 132.757812 202.261719 133.175781 202.390625 133.585938 202.558594 C 133.992188 202.726562 134.382812 202.933594 134.75 203.179688 C 135.117188 203.421875 135.457031 203.699219 135.769531 204.011719 C 136.082031 204.324219 136.359375 204.664062 136.605469 205.027344 C 136.851562 205.394531 137.058594 205.78125 137.226562 206.1875 C 137.394531 206.59375 137.523438 207.015625 137.609375 207.445312 C 137.695312 207.878906 137.738281 208.3125 137.738281 208.753906 C 137.738281 209.195312 137.695312 209.628906 137.609375 210.0625 C 137.523438 210.496094 137.394531 210.914062 137.226562 211.320312 C 137.058594 211.726562 136.851562 212.113281 136.605469 212.480469 C 136.359375 212.847656 136.082031 213.183594 135.769531 213.496094 C 135.457031 213.808594 135.117188 214.085938 134.75 214.332031 C 134.382812 214.574219 133.992188 214.78125 133.585938 214.949219 C 133.175781 215.117188 132.757812 215.246094 132.324219 215.332031 C 131.890625 215.417969 131.453125 215.460938 131.011719 215.460938 Z M 131.011719 215.460938 " fill-opacity="1" fill-rule="nonzero"/></g></svg>