<svg xmlns="http://www.w3.org/2000/svg" xmlns:xlink="http://www.w3.org/1999/xlink" width="500" zoomAndPan="magnify" viewBox="0 0 375 374.999991" height="500" preserveAspectRatio="xMidYMid meet" version="1.0"><defs><clipPath id="a82a7e136f"><path d="M 203 123 L 279.941406 123 L 279.941406 186 L 203 186 Z M 203 123 " clip-rule="nonzero"/></clipPath><clipPath id="bec1786e5c"><path d="M 95 113.023438 L 179 113.023438 L 179 197.773438 L 95 197.773438 Z M 95 113.023438 " clip-rule="nonzero"/></clipPath></defs><g clip-path="url(#a82a7e136f)"><path fill="#362701" d="M 218.90625 145.691406 C 215.566406 145.691406 213.074219 147.335938 213.074219 151.292969 C 213.074219 154.25 214.714844 156.34375 218.722656 156.34375 C 222.121094 156.34375 224.429688 154.335938 224.429688 151.171875 C 224.429688 147.574219 222.367188 145.691406 218.90625 145.691406 Z M 212.226562 173.636719 C 211.433594 174.609375 210.644531 175.644531 210.644531 176.835938 C 210.644531 179.269531 213.742188 180.003906 217.992188 180.003906 C 221.515625 180.003906 226.3125 179.757812 226.3125 176.472656 C 226.3125 174.523438 224.003906 174.402344 221.085938 174.21875 L 212.246094 173.613281 Z M 230.199219 145.871094 C 231.292969 147.277344 232.449219 149.21875 232.449219 152.023438 C 232.449219 158.777344 227.144531 162.738281 219.515625 162.738281 C 217.550781 162.738281 215.832031 162.492188 214.714844 162.1875 L 212.710938 165.390625 L 218.664062 165.753906 C 229.171875 166.421875 235.363281 166.730469 235.363281 174.824219 C 235.363281 181.824219 229.230469 185.777344 218.664062 185.777344 C 207.671875 185.777344 203.484375 182.976562 203.484375 178.144531 C 203.484375 175.40625 204.703125 173.945312 206.824219 171.933594 C 204.820312 171.085938 204.152344 169.5625 204.152344 167.921875 C 204.152344 166.582031 204.820312 165.359375 205.914062 164.226562 L 209.679688 160.574219 C 206.703125 159.117188 204.453125 155.945312 204.453125 151.464844 C 204.453125 144.464844 209.070312 139.65625 218.359375 139.65625 C 220.972656 139.65625 222.554688 139.898438 223.949219 140.265625 L 235.792969 140.265625 L 235.792969 145.441406 L 230.203125 145.867188 M 246.472656 134.808594 C 243.035156 134.808594 241.007812 132.800781 241.007812 129.324219 C 241.007812 125.851562 243.011719 123.96875 246.472656 123.96875 C 249.996094 123.96875 252 125.859375 252 129.324219 C 252 132.792969 249.996094 134.808594 246.472656 134.808594 Z M 238.613281 171.394531 L 238.613281 166.589844 L 241.714844 166.164062 C 242.5625 166.042969 242.6875 165.859375 242.6875 164.945312 L 242.6875 147.050781 C 242.6875 146.378906 242.503906 145.953125 241.894531 145.769531 L 238.613281 144.613281 L 239.28125 139.6875 L 251.855469 139.6875 L 251.855469 164.953125 C 251.855469 165.929688 251.914062 166.050781 252.828125 166.175781 L 255.921875 166.601562 L 255.921875 171.402344 L 238.609375 171.402344 M 279.960938 169.039062 C 277.347656 170.320312 273.519531 171.5 270.058594 171.5 C 262.832031 171.5 260.101562 168.582031 260.101562 161.699219 L 260.101562 145.746094 C 260.101562 145.382812 260.101562 145.136719 259.609375 145.136719 L 255.386719 145.136719 L 255.386719 139.71875 C 260.730469 139.128906 262.855469 136.429688 263.523438 129.792969 L 269.292969 129.792969 L 269.292969 138.441406 C 269.292969 138.863281 269.292969 139.050781 269.78125 139.050781 L 278.347656 139.050781 L 278.347656 145.136719 L 269.269531 145.136719 L 269.269531 159.660156 C 269.269531 163.253906 270.121094 164.652344 273.394531 164.652344 C 275.097656 164.652344 276.832031 164.226562 278.316406 163.679688 L 279.953125 169.035156 " fill-opacity="1" fill-rule="nonzero"/></g><g clip-path="url(#bec1786e5c)"><path fill="#f03c2e" d="M 176.945312 151.558594 L 140.539062 115.066406 C 138.445312 112.964844 135.042969 112.964844 132.945312 115.066406 L 125.386719 122.644531 L 134.976562 132.253906 C 137.203125 131.5 139.757812 132.007812 141.53125 133.785156 C 141.953125 134.210938 142.308594 134.6875 142.597656 135.210938 C 142.890625 135.738281 143.101562 136.292969 143.234375 136.875 C 143.367188 137.460938 143.417969 138.054688 143.386719 138.652344 C 143.355469 139.253906 143.242188 139.835938 143.042969 140.402344 L 152.285156 149.667969 C 154.496094 148.894531 157.097656 149.398438 158.886719 151.183594 C 159.285156 151.582031 159.621094 152.023438 159.902344 152.511719 C 160.183594 152.996094 160.398438 153.511719 160.542969 154.054688 C 160.6875 154.597656 160.761719 155.152344 160.761719 155.714844 C 160.761719 156.277344 160.6875 156.828125 160.542969 157.371094 C 160.398438 157.914062 160.183594 158.429688 159.902344 158.917969 C 159.625 159.40625 159.285156 159.847656 158.886719 160.242188 C 158.492188 160.640625 158.050781 160.980469 157.5625 161.261719 C 157.078125 161.542969 156.5625 161.753906 156.019531 161.898438 C 155.480469 162.046875 154.925781 162.117188 154.367188 162.117188 C 153.804688 162.117188 153.253906 162.046875 152.714844 161.898438 C 152.171875 161.753906 151.65625 161.539062 151.171875 161.257812 C 150.6875 160.976562 150.246094 160.640625 149.851562 160.242188 C 147.972656 158.359375 147.511719 155.59375 148.460938 153.273438 L 139.867188 144.660156 L 139.867188 167.394531 C 140.457031 167.699219 141.050781 168.097656 141.554688 168.605469 C 144.050781 171.109375 144.050781 175.160156 141.554688 177.667969 C 141.257812 177.964844 140.9375 178.230469 140.589844 178.464844 C 140.238281 178.699219 139.871094 178.894531 139.484375 179.054688 C 139.097656 179.21875 138.695312 179.339844 138.285156 179.421875 C 137.875 179.503906 137.457031 179.542969 137.039062 179.542969 C 136.617188 179.542969 136.203125 179.503906 135.792969 179.421875 C 135.378906 179.339844 134.980469 179.21875 134.59375 179.054688 C 134.207031 178.894531 133.835938 178.699219 133.488281 178.464844 C 133.140625 178.230469 132.816406 177.964844 132.519531 177.667969 C 130.027344 175.160156 130.027344 171.109375 132.519531 168.605469 C 133.125 168 133.824219 167.535156 134.613281 167.207031 L 134.613281 144.265625 C 133.875 143.949219 133.140625 143.488281 132.519531 142.886719 C 132.074219 142.4375 131.699219 141.933594 131.402344 141.371094 C 131.101562 140.8125 130.894531 140.21875 130.769531 139.597656 C 130.648438 138.972656 130.617188 138.34375 130.683594 137.710938 C 130.746094 137.082031 130.902344 136.472656 131.144531 135.886719 L 121.691406 126.40625 L 96.714844 151.386719 C 96.464844 151.640625 96.246094 151.910156 96.050781 152.207031 C 95.855469 152.5 95.6875 152.808594 95.554688 153.136719 C 95.417969 153.460938 95.316406 153.800781 95.25 154.144531 C 95.179688 154.492188 95.148438 154.84375 95.148438 155.195312 C 95.148438 155.546875 95.179688 155.898438 95.25 156.246094 C 95.316406 156.589844 95.417969 156.929688 95.554688 157.253906 C 95.6875 157.582031 95.855469 157.890625 96.050781 158.1875 C 96.246094 158.480469 96.464844 158.753906 96.714844 159.003906 L 133.121094 195.496094 C 135.214844 197.597656 138.617188 197.597656 140.714844 195.496094 L 176.945312 159.171875 C 177.191406 158.921875 177.414062 158.652344 177.609375 158.355469 C 177.804688 158.0625 177.96875 157.753906 178.105469 157.425781 C 178.238281 157.101562 178.339844 156.761719 178.410156 156.417969 C 178.476562 156.070312 178.511719 155.71875 178.511719 155.367188 C 178.511719 155.011719 178.476562 154.664062 178.410156 154.316406 C 178.339844 153.96875 178.238281 153.632812 178.105469 153.308594 C 177.96875 152.980469 177.804688 152.671875 177.609375 152.375 C 177.414062 152.082031 177.191406 151.808594 176.945312 151.558594 " fill-opacity="1" fill-rule="nonzero"/></g></svg>